<?xml version='1.0' encoding='UTF-8' standalone='no'?>
<svg height="314pt" viewBox="0 0 418 314" width="418pt" xmlns="http://www.w3.org/2000/svg" xmlns:xlink="http://www.w3.org/1999/xlink">
 <title>Figure 1</title>
 <desc>
Creator: GL2PS 1.4.2, (C) 1999-2020 C. Geuzaine
For: Octave
CreationDate: Mon Apr 14 18:19:00 2025
</desc>
 <defs/>
 <polygon fill="#ffffff" points="0,0 418,0 418,314 0,314"/>
 <g>
  <polygon fill="#ffffff" points="0,314 418,314 418,0 0,0" shape-rendering="crispEdges"/>
  <clipPath id="cp00418314">
   <polygon points="0,314 418,314 418,0 0,0"/>
  </clipPath>
  <g clip-path="url(#cp00418314)">
   <polygon fill="#ffffff" points="54.4343,23.5533 54.4343,279.499 378.946,279.499 378.946,23.5533" shape-rendering="crispEdges"/>
   <polyline fill="none" points="54.4343,279.499 54.4343,276.255" stroke="#262626" stroke-linecap="butt" stroke-linejoin="miter" stroke-width="0.5"/>
   <polyline fill="none" points="108.52,279.499 108.52,276.255" stroke="#262626" stroke-linecap="butt" stroke-linejoin="miter" stroke-width="0.5"/>
   <polyline fill="none" points="162.605,279.499 162.605,276.255" stroke="#262626" stroke-linecap="butt" stroke-linejoin="miter" stroke-width="0.5"/>
   <polyline fill="none" points="216.69,279.499 216.69,276.255" stroke="#262626" stroke-linecap="butt" stroke-linejoin="miter" stroke-width="0.5"/>
   <polyline fill="none" points="270.776,279.499 270.776,276.255" stroke="#262626" stroke-linecap="butt" stroke-linejoin="miter" stroke-width="0.5"/>
   <polyline fill="none" points="324.861,279.499 324.861,276.255" stroke="#262626" stroke-linecap="butt" stroke-linejoin="miter" stroke-width="0.5"/>
   <polyline fill="none" points="378.946,279.499 378.946,276.255" stroke="#262626" stroke-linecap="butt" stroke-linejoin="miter" stroke-width="0.5"/>
   <g font-family="FreeSans" font-size="10" font-style="normal" font-weight="normal" transform="translate(45.4343,296.998) rotate(-0,9,-10)" xml:space="preserve">
    <text fill="rgb(38,38,38)" x="0 6 " y="-0">10</text>
    <text fill="rgb(38,38,38)" font-size="7" x="12 14 " y="-4">-3</text>
   </g>
   <g font-family="FreeSans" font-size="10" font-style="normal" font-weight="normal" transform="translate(99.5196,296.998) rotate(-0,9,-10)" xml:space="preserve">
    <text fill="rgb(38,38,38)" x="0 6 " y="-0">10</text>
    <text fill="rgb(38,38,38)" font-size="7" x="12 14 " y="-4">-2</text>
   </g>
   <g font-family="FreeSans" font-size="10" font-style="normal" font-weight="normal" transform="translate(153.605,296.998) rotate(-0,9,-10)" xml:space="preserve">
    <text fill="rgb(38,38,38)" x="0 6 " y="-0">10</text>
    <text fill="rgb(38,38,38)" font-size="7" x="12 14 " y="-4">-1</text>
   </g>
   <g font-family="FreeSans" font-size="10" font-style="normal" font-weight="normal" transform="translate(208.69,296.998) rotate(-0,8,-10)" xml:space="preserve">
    <text fill="rgb(38,38,38)" x="0 6 " y="-0">10</text>
    <text fill="rgb(38,38,38)" font-size="7" x="12 " y="-4">0</text>
   </g>
   <g font-family="FreeSans" font-size="10" font-style="normal" font-weight="normal" transform="translate(262.776,296.998) rotate(-0,8,-10)" xml:space="preserve">
    <text fill="rgb(38,38,38)" x="0 6 " y="-0">10</text>
    <text fill="rgb(38,38,38)" font-size="7" x="12 " y="-4">1</text>
   </g>
   <g font-family="FreeSans" font-size="10" font-style="normal" font-weight="normal" transform="translate(316.861,296.998) rotate(-0,8,-10)" xml:space="preserve">
    <text fill="rgb(38,38,38)" x="0 6 " y="-0">10</text>
    <text fill="rgb(38,38,38)" font-size="7" x="12 " y="-4">2</text>
   </g>
   <g font-family="FreeSans" font-size="10" font-style="normal" font-weight="normal" transform="translate(370.946,296.998) rotate(-0,8,-10)" xml:space="preserve">
    <text fill="rgb(38,38,38)" x="0 6 " y="-0">10</text>
    <text fill="rgb(38,38,38)" font-size="7" x="12 " y="-4">3</text>
   </g>
   <polyline fill="none" points="54.4343,279.499 57.6745,279.499" stroke="#262626" stroke-linecap="butt" stroke-linejoin="miter" stroke-width="0.5"/>
   <polyline fill="none" points="54.4343,153.862 57.6745,153.862" stroke="#262626" stroke-linecap="butt" stroke-linejoin="miter" stroke-width="0.5"/>
   <polyline fill="none" points="54.4343,28.2249 57.6745,28.2249" stroke="#262626" stroke-linecap="butt" stroke-linejoin="miter" stroke-width="0.5"/>
   <g font-family="FreeSans" font-size="10" font-style="normal" font-weight="normal" transform="translate(43.4418,283.499) rotate(-0,6,-4)" xml:space="preserve">
    <text fill="rgb(38,38,38)" x="0 " y="-0">0</text>
   </g>
   <g font-family="FreeSans" font-size="10" font-style="normal" font-weight="normal" transform="translate(34.4418,158.362) rotate(-0,15,-4.5)" xml:space="preserve">
    <text fill="rgb(38,38,38)" x="0 " y="-0">π</text>
    <text fill="rgb(38,38,38)" x="6 9 " y="-0">/4</text>
   </g>
   <g font-family="FreeSans" font-size="10" font-style="normal" font-weight="normal" transform="translate(34.4418,32.7249) rotate(-0,15,-4.5)" xml:space="preserve">
    <text fill="rgb(38,38,38)" x="0 " y="-0">π</text>
    <text fill="rgb(38,38,38)" x="6 9 " y="-0">/2</text>
   </g>
   <polyline fill="none" points="54.4343,279.499 378.946,279.499" stroke="#262626" stroke-dasharray="16,0" stroke-linecap="square" stroke-linejoin="miter" stroke-width="0.5"/>
   <polyline fill="none" points="54.4343,279.499 54.4343,23.5533" stroke="#262626" stroke-dasharray="16,0" stroke-linecap="square" stroke-linejoin="miter" stroke-width="0.5"/>
   <g font-family="FreeSans" font-size="11" font-style="normal" font-weight="normal" transform="translate(197.69,311.998) rotate(-0,19,-10)" xml:space="preserve">
    <text fill="rgb(38,38,38)" x="0 " y="-1">ω</text>
    <text fill="rgb(38,38,38)" x="8 11 14 18 24 30 33 " y="-1">  rad/s</text>
   </g>
   <g font-family="FreeSans" font-size="11" font-style="normal" font-weight="normal" transform="translate(8.9418,151.526) rotate(-90,20.5,0)" xml:space="preserve">
    <text fill="rgb(38,38,38)" x="0 " y="-3">φ</text>
    <text fill="rgb(38,38,38)" x="8 11 19 22 25 29 35 " y="-3"> G  rad</text>
   </g>
   <g font-family="FreeSans" font-size="11" font-style="normal" font-weight="bold" transform="translate(71.6904,13.5533) rotate(-0,145,0)" xml:space="preserve">
    <text fill="rgb(0,0,0)" x="0 7 13 19 25 28 35 41 44 47 53 56 64 67 73 80 87 93 97 103 106 109 116 119 126 130 136 143 150 156 163 169 175 178 185 188 191 198 205 212 215 222 228 232 239 242 249 255 265 272 275 278 284 " y="-3">Fase della Risposta in Frequenza di uno Zero Semplice</text>
   </g>
   <polyline fill="none" points="54.4343,279.483 54.7591,279.483 55.084,279.483 55.4088,279.482 55.7336,279.482 56.0585,279.482 56.3833,279.482 56.7082,279.482 57.033,279.481 57.3578,279.481 57.6827,279.481 58.0075,279.481 58.3323,279.48 58.6572,279.48 58.982,279.48 59.3069,279.479 59.6317,279.479 59.9565,279.479 60.2814,279.479 60.6062,279.478 60.931,279.478 61.2559,279.478 61.5807,279.477 61.9055,279.477 62.2304,279.477 62.5552,279.477 62.8801,279.476 63.2049,279.476 63.5297,279.476 63.8546,279.475 64.1794,279.475 64.5042,279.475 64.8291,279.474 65.1539,279.474 65.4788,279.474 65.8036,279.473 66.1284,279.473 66.4533,279.472 66.7781,279.472 67.1029,279.472 67.4278,279.471 67.7526,279.471 68.0775,279.471 68.4023,279.47 68.7271,279.47 69.052,279.469 69.3768,279.469 69.7016,279.469 70.0265,279.468 70.3513,279.468 70.6761,279.467 71.001,279.467 71.3258,279.466 71.6507,279.466 71.9755,279.465 72.3003,279.465 72.6252,279.464 72.95,279.464 73.2748,279.464 73.5997,279.463 73.9245,279.462 74.2493,279.462 74.5742,279.461 74.899,279.461 75.2239,279.46 75.5487,279.46 75.8735,279.459 76.1984,279.459 76.5232,279.458 76.848,279.458 77.1729,279.457 77.4977,279.456 77.8226,279.456 78.1474,279.455 78.4722,279.455 78.7971,279.454 79.1219,279.453 79.4467,279.453 79.7716,279.452 80.0964,279.451 80.4212,279.451 80.7461,279.45 81.0709,279.449 81.3958,279.449 81.7206,279.448 82.0454,279.447 82.3703,279.447 82.6951,279.446 83.0199,279.445 83.3448,279.444 83.6696,279.444 83.9944,279.443 84.3193,279.442 84.6441,279.441 84.969,279.44 85.2938,279.44 85.6186,279.439 85.9435,279.438 86.2683,279.437 86.5931,279.436 86.918,279.435 87.2428,279.435 87.5677,279.434 87.8925,279.433 88.2173,279.432 88.5422,279.431 88.867,279.43 89.1918,279.429 89.5167,279.428 89.8415,279.427 90.1664,279.426 90.4912,279.425 90.816,279.424 91.1409,279.423 91.4657,279.422 91.7905,279.421 92.1154,279.42 92.4402,279.418 92.7651,279.417 93.0899,279.416 93.4147,279.415 93.7396,279.414 94.0644,279.413 94.3892,279.411 94.7141,279.41 95.0389,279.409 95.3638,279.408 95.6886,279.407 96.0134,279.405 96.3383,279.404 96.6631,279.403 96.9879,279.401 97.3128,279.4 97.6376,279.398 97.9624,279.397 98.2873,279.396 98.6121,279.394 98.937,279.393 99.2618,279.391 99.5866,279.39 99.9115,279.388 100.236,279.387 100.561,279.385 100.886,279.384 101.211,279.382 101.536,279.38 101.86,279.379 102.185,279.377 102.51,279.375 102.835,279.374 103.16,279.372 103.485,279.37 103.81,279.368 104.134,279.366 104.459,279.365 104.784,279.363 105.109,279.361 105.434,279.359 105.759,279.357 106.083,279.355 106.408,279.353 106.733,279.351 107.058,279.349 107.383,279.347 107.708,279.345 108.032,279.342 108.357,279.34 108.682,279.338 109.007,279.336 109.332,279.334 109.657,279.331 109.981,279.329 110.306,279.327 110.631,279.324 110.956,279.322 111.281,279.319 111.606,279.317 111.93,279.314 112.255,279.312 112.58,279.309 112.905,279.306 113.23,279.304 113.555,279.301 113.879,279.298 114.204,279.295 114.529,279.293 114.854,279.29 115.179,279.287 115.504,279.284 115.828,279.281 116.153,279.278 116.478,279.275 116.803,279.272 117.128,279.268 117.453,279.265 117.777,279.262 118.102,279.259 118.427,279.255 118.752,279.252 119.077,279.248 119.402,279.245 119.727,279.241 120.051,279.238 120.376,279.234 120.701,279.23 121.026,279.227 121.351,279.223 121.676,279.219 122,279.215 122.325,279.211 122.65,279.207 122.975,279.203 123.3,279.199 123.625,279.195 123.949,279.191 124.274,279.186 124.599,279.182 124.924,279.178 125.249,279.173 125.574,279.169 125.898,279.164 126.223,279.159 126.548,279.155 126.873,279.15 127.198,279.145 127.523,279.14 127.847,279.135 128.172,279.13 128.497,279.125 128.822,279.119 129.147,279.114 129.472,279.109 129.796,279.103 130.121,279.098 130.446,279.092 130.771,279.087 131.096,279.081 131.421,279.075 131.745,279.069 132.07,279.063 132.395,279.057 132.72,279.051 133.045,279.045 133.37,279.038 133.695,279.032 134.019,279.025 134.344,279.019 134.669,279.012 134.994,279.005 135.319,278.999 135.644,278.992 135.968,278.984 136.293,278.977 136.618,278.97 136.943,278.963 137.268,278.955 137.593,278.948 137.917,278.94 138.242,278.932 138.567,278.924 138.892,278.916 139.217,278.908 139.542,278.9 139.866,278.892 140.191,278.883 140.516,278.875 140.841,278.866 141.166,278.857 141.491,278.848 141.815,278.839 142.14,278.83 142.465,278.82 142.79,278.811 143.115,278.801 143.44,278.792 143.764,278.782 144.089,278.772 144.414,278.762 144.739,278.752 145.064,278.741 145.389,278.731 145.713,278.72 146.038,278.709 146.363,278.698 146.688,278.687 147.013,278.676 147.338,278.664 147.662,278.652 147.987,278.641 148.312,278.629 148.637,278.617 148.962,278.604 149.287,278.592 149.612,278.579 149.936,278.566 150.261,278.553 150.586,278.54 150.911,278.527 151.236,278.513 151.561,278.5 151.885,278.486 152.21,278.472 152.535,278.457 152.86,278.443 153.185,278.428 153.51,278.413 153.834,278.398 154.159,278.383 154.484,278.367 154.809,278.351 155.134,278.335 155.459,278.319 155.783,278.303 156.108,278.286 156.433,278.269 156.758,278.252 157.083,278.235 157.408,278.217 157.732,278.199 158.057,278.181 158.382,278.163 158.707,278.144 159.032,278.125 159.357,278.106 159.681,278.087 160.006,278.067 160.331,278.047 160.656,278.027 160.981,278.006 161.306,277.986 161.63,277.965 161.955,277.943 162.28,277.922 162.605,277.9 162.93,277.877 163.255,277.855 163.579,277.832 163.904,277.809 164.229,277.785 164.554,277.761 164.879,277.737 165.204,277.712 165.529,277.688 165.853,277.662 166.178,277.637 166.503,277.611 166.828,277.585 167.153,277.558 167.478,277.531 167.802,277.503 168.127,277.476 168.452,277.447 168.777,277.419 169.102,277.39 169.427,277.361 169.751,277.331 170.076,277.301 170.401,277.27 170.726,277.239 171.051,277.207 171.376,277.176 171.7,277.143 172.025,277.11 172.35,277.077 172.675,277.043 173,277.009 173.325,276.975 173.649,276.939 173.974,276.904 174.299,276.868 174.624,276.831 174.949,276.794 175.274,276.756 175.598,276.718 175.923,276.679 176.248,276.64 176.573,276.6 176.898,276.56 177.223,276.519 177.548,276.477 177.872,276.435 178.197,276.393 178.522,276.349 178.847,276.306 179.172,276.261 179.497,276.216 179.821,276.17 180.146,276.124 180.471,276.077 180.796,276.029 181.121,275.981 181.446,275.932 181.77,275.883 182.095,275.832 182.42,275.781 182.745,275.729 183.07,275.677 183.395,275.624 183.719,275.57 184.044,275.515 184.369,275.46 184.694,275.403 185.019,275.346 185.344,275.289 185.668,275.23 185.993,275.171 186.318,275.11 186.643,275.049 186.968,274.987 187.293,274.924 187.617,274.861 187.942,274.796 188.267,274.731 188.592,274.664 188.917,274.597 189.242,274.529 189.566,274.46 189.891,274.39 190.216,274.318 190.541,274.246 190.866,274.173 191.191,274.099 191.515,274.024 191.84,273.948 192.165,273.871 192.49,273.792 192.815,273.713 193.14,273.632 193.465,273.551 193.789,273.468 194.114,273.384 194.439,273.299 194.764,273.213 195.089,273.125 195.414,273.037 195.738,272.947 196.063,272.856 196.388,272.763 196.713,272.67 197.038,272.575 197.363,272.478 197.687,272.381 198.012,272.282 198.337,272.181 198.662,272.079 198.987,271.976 199.312,271.872 199.636,271.766 199.961,271.658 200.286,271.549 200.611,271.439 200.936,271.327 201.261,271.213 201.585,271.098 201.91,270.981 202.235,270.863 202.56,270.743 202.885,270.621 203.21,270.498 203.534,270.372 203.859,270.246 204.184,270.117 204.509,269.987 204.834,269.855 205.159,269.721 205.483,269.585 205.808,269.447 206.133,269.307 206.458,269.166 206.783,269.022 207.108,268.877 207.432,268.73 207.757,268.58 208.082,268.428 208.407,268.275 208.732,268.119 209.057,267.961 209.382,267.801 209.706,267.639 210.031,267.474 210.356,267.307 210.681,267.138 211.006,266.967 211.331,266.793 211.655,266.617 211.98,266.438 212.305,266.257 212.63,266.074 212.955,265.888 213.28,265.699 213.604,265.508 213.929,265.314 214.254,265.117 214.579,264.918 214.904,264.716 215.229,264.512 215.553,264.304 215.878,264.094 216.203,263.881 216.528,263.665 216.853,263.446 217.178,263.224 217.502,262.999 217.827,262.77 218.152,262.539 218.477,262.305 218.802,262.067 219.127,261.827 219.451,261.582 219.776,261.335 220.101,261.084 220.426,260.83 220.751,260.573 221.076,260.312 221.4,260.047 221.725,259.779 222.05,259.507 222.375,259.232 222.7,258.952 223.025,258.67 223.35,258.383 223.674,258.092 223.999,257.798 224.324,257.499 224.649,257.197 224.974,256.89 225.299,256.58 225.623,256.265 225.948,255.946 226.273,255.623 226.598,255.296 226.923,254.964 227.248,254.628 227.572,254.287 227.897,253.942 228.222,253.592 228.547,253.238 228.872,252.879 229.197,252.515 229.521,252.146 229.846,251.773 230.171,251.395 230.496,251.011 230.821,250.623 231.146,250.23 231.47,249.832 231.795,249.428 232.12,249.019 232.445,248.605 232.77,248.186 233.095,247.761 233.419,247.331 233.744,246.895 234.069,246.454 234.394,246.007 234.719,245.554 235.044,245.096 235.368,244.632 235.693,244.162 236.018,243.686 236.343,243.204 236.668,242.716 236.993,242.222 237.317,241.722 237.642,241.216 237.967,240.703 238.292,240.184 238.617,239.659 238.942,239.127 239.267,238.589 239.591,238.044 239.916,237.493 240.241,236.935 240.566,236.371 240.891,235.799 241.216,235.221 241.54,234.636 241.865,234.044 242.19,233.446 242.515,232.84 242.84,232.227 243.165,231.607 243.489,230.98 243.814,230.346 244.139,229.705 244.464,229.056 244.789,228.4 245.114,227.737 245.438,227.066 245.763,226.388 246.088,225.703 246.413,225.01 246.738,224.31 247.063,223.602 247.387,222.886 247.712,222.163 248.037,221.433 248.362,220.695 248.687,219.949 249.012,219.196 249.336,218.435 249.661,217.666 249.986,216.89 250.311,216.106 250.636,215.314 250.961,214.515 251.285,213.708 251.61,212.894 251.935,212.072 252.26,211.242 252.585,210.405 252.91,209.56 253.234,208.708 253.559,207.848 253.884,206.98 254.209,206.106 254.534,205.224 254.859,204.334 255.184,203.438 255.508,202.534 255.833,201.622 256.158,200.704 256.483,199.779 256.808,198.847 257.133,197.907 257.457,196.961 257.782,196.009 258.107,195.049 258.432,194.083 258.757,193.111 259.082,192.132 259.406,191.147 259.731,190.156 260.056,189.159 260.381,188.156 260.706,187.147 261.031,186.133 261.355,185.112 261.68,184.087 262.005,183.056 262.33,182.021 262.655,180.98 262.98,179.934 263.304,178.884 263.629,177.83 263.954,176.771 264.279,175.708 264.604,174.64 264.929,173.57 265.253,172.495 265.578,171.417 265.903,170.336 266.228,169.252 266.553,168.165 266.878,167.075 267.202,165.983 267.527,164.888 267.852,163.791 268.177,162.693 268.502,161.593 268.827,160.491 269.152,159.388 269.476,158.284 269.801,157.179 270.126,156.074 270.451,154.968 270.776,153.862 271.101,152.756 271.425,151.65 271.75,150.545 272.075,149.44 272.4,148.336 272.725,147.233 273.05,146.131 273.374,145.031 273.699,143.933 274.024,142.836 274.349,141.741 274.674,140.649 274.999,139.559 275.323,138.472 275.648,137.388 275.973,136.307 276.298,135.229 276.623,134.154 276.948,133.084 277.272,132.017 277.597,130.953 277.922,129.895 278.247,128.84 278.572,127.79 278.897,126.744 279.221,125.703 279.546,124.668 279.871,123.637 280.196,122.612 280.521,121.592 280.846,120.577 281.17,119.568 281.495,118.565 281.82,117.568 282.145,116.577 282.47,115.592 282.795,114.613 283.12,113.641 283.444,112.675 283.769,111.715 284.094,110.763 284.419,109.817 284.744,108.877 285.069,107.945 285.393,107.02 285.718,106.102 286.043,105.191 286.368,104.287 286.693,103.39 287.018,102.5 287.342,101.618 287.667,100.744 287.992,99.8763 288.317,99.0164 288.642,98.1641 288.967,97.3193 289.291,96.482 289.616,95.6523 289.941,94.8302 290.266,94.0158 290.591,93.2089 290.916,92.4097 291.24,91.6182 291.565,90.8342 291.89,90.058 292.215,89.2894 292.54,88.5284 292.865,87.775 293.189,87.0293 293.514,86.2912 293.839,85.5607 294.164,84.8377 294.489,84.1223 294.814,83.4145 295.138,82.7141 295.463,82.0213 295.788,81.3358 296.113,80.6579 296.438,79.9873 296.763,79.3241 297.087,78.6681 297.412,78.0195 297.737,77.3781 298.062,76.7439 298.387,76.1169 298.712,75.497 299.036,74.8842 299.361,74.2785 299.686,73.6797 300.011,73.0878 300.336,72.5029 300.661,71.9247 300.986,71.3534 301.31,70.7888 301.635,70.2309 301.96,69.6797 302.285,69.135 302.61,68.5968 302.935,68.0651 303.259,67.5399 303.584,67.021 303.909,66.5084 304.234,66.002 304.559,65.5019 304.884,65.0079 305.208,64.52 305.533,64.0381 305.858,63.5622 306.183,63.0922 306.508,62.6281 306.833,62.1697 307.157,61.7171 307.482,61.2702 307.807,60.8289 308.132,60.3931 308.457,59.9629 308.782,59.5381 309.106,59.1188 309.431,58.7047 309.756,58.296 310.081,57.8925 310.406,57.4941 310.731,57.1008 311.055,56.7126 311.38,56.3294 311.705,55.9512 312.03,55.5778 312.355,55.2093 312.68,54.8455 313.005,54.4865 313.329,54.1321 313.654,53.7824 313.979,53.4372 314.304,53.0965 314.629,52.7603 314.954,52.4285 315.278,52.101 315.603,51.7778 315.928,51.4589 316.253,51.1442 316.578,50.8336 316.903,50.5272 317.227,50.2247 317.552,49.9263 317.877,49.6318 318.202,49.3412 318.527,49.0545 318.852,48.7716 319.176,48.4924 319.501,48.217 319.826,47.9452 320.151,47.677 320.476,47.4124 320.801,47.1514 321.125,46.8938 321.45,46.6397 321.775,46.389 322.1,46.1416 322.425,45.8975 322.75,45.6567 323.074,45.4192 323.399,45.1848 323.724,44.9536 324.049,44.7255 324.374,44.5004 324.699,44.2784 325.023,44.0594 325.348,43.8433 325.673,43.6301 325.998,43.4198 326.323,43.2124 326.648,43.0077 326.973,42.8058 327.297,42.6066 327.622,42.4102 327.947,42.2163 328.272,42.0251 328.597,41.8365 328.922,41.6504 329.246,41.4669 329.571,41.2858 329.896,41.1072 330.221,40.931 330.546,40.7573 330.871,40.5858 331.195,40.4167 331.52,40.2499 331.845,40.0854 332.17,39.9231 332.495,39.7629 332.82,39.605 333.144,39.4492 333.469,39.2956 333.794,39.144 334.119,38.9945 334.444,38.847 334.769,38.7016 335.093,38.5581 335.418,38.4166 335.743,38.2769 336.068,38.1393 336.393,38.0034 336.718,37.8694 337.042,37.7373 337.367,37.607 337.692,37.4784 338.017,37.3516 338.342,37.2265 338.667,37.1031 338.991,36.9814 339.316,36.8614 339.641,36.743 339.966,36.6262 340.291,36.5111 340.616,36.3975 340.94,36.2854 341.265,36.1749 341.59,36.0659 341.915,35.9584 342.24,35.8523 342.565,35.7477 342.889,35.6445 343.214,35.5428 343.539,35.4424 343.864,35.3434 344.189,35.2458 344.514,35.1495 344.839,35.0545 345.163,34.9608 345.488,34.8684 345.813,34.7773 346.138,34.6873 346.463,34.5987 346.788,34.5112 347.112,34.425 347.437,34.3399 347.762,34.256 348.087,34.1733 348.412,34.0916 348.737,34.0112 349.061,33.9318 349.386,33.8534 349.711,33.7762 350.036,33.7 350.361,33.6249 350.686,33.5508 351.01,33.4777 351.335,33.4056 351.66,33.3345 351.985,33.2643 352.31,33.1952 352.635,33.127 352.959,33.0597 353.284,32.9933 353.609,32.9279 353.934,32.8633 354.259,32.7996 354.584,32.7368 354.908,32.6749 355.233,32.6138 355.558,32.5536 355.883,32.4941 356.208,32.4355 356.533,32.3777 356.857,32.3207 357.182,32.2645 357.507,32.209 357.832,32.1544 358.157,32.1004 358.482,32.0472 358.807,31.9947 359.131,31.943 359.456,31.8919 359.781,31.8416 360.106,31.7919 360.431,31.7429 360.756,31.6946 361.08,31.647 361.405,31.6 361.73,31.5537 362.055,31.508 362.38,31.4629 362.705,31.4184 363.029,31.3746 363.354,31.3313 363.679,31.2887 364.004,31.2466 364.329,31.2051 364.654,31.1642 364.978,31.1238 365.303,31.084 365.628,31.0448 365.953,31.006 366.278,30.9678 366.603,30.9302 366.927,30.893 367.252,30.8564 367.577,30.8203 367.902,30.7846 368.227,30.7495 368.552,30.7148 368.876,30.6806 369.201,30.6469 369.526,30.6136 369.851,30.5808 370.176,30.5485 370.501,30.5166 370.826,30.4851 371.15,30.4541 371.475,30.4235 371.8,30.3933 372.125,30.3635 372.45,30.3341 372.775,30.3052 373.099,30.2766 373.424,30.2484 373.749,30.2206 374.074,30.1932 374.399,30.1662 374.724,30.1395 375.048,30.1133 375.373,30.0873 375.698,30.0617 376.023,30.0365 376.348,30.0116 376.673,29.9871 376.997,29.9629 377.322,29.939 377.647,29.9155 377.972,29.8923 378.297,29.8694 378.622,29.8468 378.946,29.8245" stroke="#00ff00" stroke-dasharray="9,7" stroke-linecap="butt" stroke-linejoin="round" stroke-width="1"/>
   <polyline fill="none" points="54.4343,277.9 54.7591,277.877 55.084,277.855 55.4088,277.832 55.7336,277.809 56.0585,277.785 56.3833,277.761 56.7082,277.737 57.033,277.712 57.3578,277.688 57.6827,277.662 58.0075,277.637 58.3323,277.611 58.6572,277.585 58.982,277.558 59.3069,277.531 59.6317,277.503 59.9565,277.476 60.2814,277.447 60.6062,277.419 60.931,277.39 61.2559,277.361 61.5807,277.331 61.9055,277.301 62.2304,277.27 62.5552,277.239 62.8801,277.207 63.2049,277.176 63.5297,277.143 63.8546,277.11 64.1794,277.077 64.5042,277.043 64.8291,277.009 65.1539,276.975 65.4788,276.939 65.8036,276.904 66.1284,276.868 66.4533,276.831 66.7781,276.794 67.1029,276.756 67.4278,276.718 67.7526,276.679 68.0775,276.64 68.4023,276.6 68.7271,276.56 69.052,276.519 69.3768,276.477 69.7016,276.435 70.0265,276.393 70.3513,276.349 70.6761,276.306 71.001,276.261 71.3258,276.216 71.6507,276.17 71.9755,276.124 72.3003,276.077 72.6252,276.029 72.95,275.981 73.2748,275.932 73.5997,275.883 73.9245,275.832 74.2493,275.781 74.5742,275.729 74.899,275.677 75.2239,275.624 75.5487,275.57 75.8735,275.515 76.1984,275.46 76.5232,275.403 76.848,275.346 77.1729,275.289 77.4977,275.23 77.8226,275.17 78.1474,275.11 78.4722,275.049 78.7971,274.987 79.1219,274.924 79.4467,274.861 79.7716,274.796 80.0964,274.731 80.4212,274.664 80.7461,274.597 81.0709,274.529 81.3958,274.46 81.7206,274.39 82.0454,274.318 82.3703,274.246 82.6951,274.173 83.0199,274.099 83.3448,274.024 83.6696,273.948 83.9944,273.871 84.3193,273.792 84.6441,273.713 84.969,273.632 85.2938,273.551 85.6186,273.468 85.9435,273.384 86.2683,273.299 86.5931,273.213 86.918,273.125 87.2428,273.037 87.5677,272.947 87.8925,272.856 88.2173,272.763 88.5422,272.67 88.867,272.575 89.1918,272.478 89.5167,272.381 89.8415,272.282 90.1664,272.181 90.4912,272.079 90.816,271.976 91.1409,271.872 91.4657,271.766 91.7905,271.658 92.1154,271.549 92.4402,271.439 92.7651,271.327 93.0899,271.213 93.4147,271.098 93.7396,270.981 94.0644,270.863 94.3892,270.743 94.7141,270.621 95.0389,270.498 95.3638,270.372 95.6886,270.246 96.0134,270.117 96.3383,269.987 96.6631,269.855 96.9879,269.721 97.3128,269.585 97.6376,269.447 97.9624,269.307 98.2873,269.166 98.6121,269.022 98.937,268.877 99.2618,268.73 99.5866,268.58 99.9115,268.428 100.236,268.275 100.561,268.119 100.886,267.961 101.211,267.801 101.536,267.639 101.86,267.474 102.185,267.307 102.51,267.138 102.835,266.967 103.16,266.793 103.485,266.617 103.81,266.438 104.134,266.257 104.459,266.074 104.784,265.888 105.109,265.699 105.434,265.508 105.759,265.314 106.083,265.117 106.408,264.918 106.733,264.716 107.058,264.512 107.383,264.304 107.708,264.094 108.032,263.881 108.357,263.665 108.682,263.446 109.007,263.224 109.332,262.999 109.657,262.77 109.981,262.539 110.306,262.305 110.631,262.067 110.956,261.827 111.281,261.582 111.606,261.335 111.93,261.084 112.255,260.83 112.58,260.573 112.905,260.312 113.23,260.047 113.555,259.779 113.879,259.507 114.204,259.232 114.529,258.952 114.854,258.67 115.179,258.383 115.504,258.092 115.828,257.798 116.153,257.499 116.478,257.197 116.803,256.89 117.128,256.58 117.453,256.265 117.777,255.946 118.102,255.623 118.427,255.296 118.752,254.964 119.077,254.628 119.402,254.287 119.727,253.942 120.051,253.592 120.376,253.238 120.701,252.879 121.026,252.515 121.351,252.146 121.676,251.773 122,251.395 122.325,251.011 122.65,250.623 122.975,250.23 123.3,249.832 123.625,249.428 123.949,249.019 124.274,248.605 124.599,248.186 124.924,247.761 125.249,247.331 125.574,246.895 125.898,246.454 126.223,246.007 126.548,245.554 126.873,245.096 127.198,244.632 127.523,244.162 127.847,243.686 128.172,243.204 128.497,242.716 128.822,242.222 129.147,241.722 129.472,241.216 129.796,240.703 130.121,240.184 130.446,239.659 130.771,239.127 131.096,238.589 131.421,238.044 131.745,237.493 132.07,236.935 132.395,236.371 132.72,235.799 133.045,235.221 133.37,234.636 133.695,234.044 134.019,233.446 134.344,232.84 134.669,232.227 134.994,231.607 135.319,230.98 135.644,230.346 135.968,229.705 136.293,229.056 136.618,228.4 136.943,227.737 137.268,227.066 137.593,226.388 137.917,225.703 138.242,225.01 138.567,224.31 138.892,223.602 139.217,222.886 139.542,222.163 139.866,221.433 140.191,220.695 140.516,219.949 140.841,219.196 141.166,218.435 141.491,217.666 141.815,216.89 142.14,216.106 142.465,215.314 142.79,214.515 143.115,213.708 143.44,212.894 143.764,212.072 144.089,211.242 144.414,210.405 144.739,209.56 145.064,208.708 145.389,207.848 145.713,206.98 146.038,206.106 146.363,205.224 146.688,204.334 147.013,203.438 147.338,202.534 147.663,201.622 147.987,200.704 148.312,199.779 148.637,198.847 148.962,197.907 149.287,196.961 149.612,196.009 149.936,195.049 150.261,194.083 150.586,193.111 150.911,192.132 151.236,191.147 151.561,190.156 151.885,189.159 152.21,188.156 152.535,187.147 152.86,186.133 153.185,185.112 153.51,184.087 153.834,183.056 154.159,182.021 154.484,180.98 154.809,179.934 155.134,178.884 155.459,177.83 155.783,176.771 156.108,175.708 156.433,174.64 156.758,173.57 157.083,172.495 157.408,171.417 157.732,170.336 158.057,169.252 158.382,168.165 158.707,167.075 159.032,165.983 159.357,164.888 159.681,163.791 160.006,162.693 160.331,161.593 160.656,160.491 160.981,159.388 161.306,158.284 161.63,157.179 161.955,156.074 162.28,154.968 162.605,153.862 162.93,152.756 163.255,151.65 163.579,150.545 163.904,149.44 164.229,148.336 164.554,147.233 164.879,146.131 165.204,145.031 165.529,143.933 165.853,142.836 166.178,141.741 166.503,140.649 166.828,139.559 167.153,138.472 167.478,137.388 167.802,136.307 168.127,135.229 168.452,134.154 168.777,133.084 169.102,132.017 169.427,130.953 169.751,129.895 170.076,128.84 170.401,127.79 170.726,126.744 171.051,125.703 171.376,124.668 171.7,123.637 172.025,122.612 172.35,121.592 172.675,120.577 173,119.568 173.325,118.565 173.649,117.568 173.974,116.577 174.299,115.592 174.624,114.613 174.949,113.641 175.274,112.675 175.598,111.715 175.923,110.763 176.248,109.817 176.573,108.877 176.898,107.945 177.223,107.02 177.548,106.102 177.872,105.191 178.197,104.287 178.522,103.39 178.847,102.5 179.172,101.618 179.497,100.744 179.821,99.8763 180.146,99.0164 180.471,98.1641 180.796,97.3193 181.121,96.482 181.446,95.6523 181.77,94.8302 182.095,94.0158 182.42,93.2089 182.745,92.4097 183.07,91.6182 183.395,90.8342 183.719,90.058 184.044,89.2894 184.369,88.5284 184.694,87.775 185.019,87.0293 185.344,86.2912 185.668,85.5607 185.993,84.8377 186.318,84.1223 186.643,83.4145 186.968,82.7141 187.293,82.0213 187.617,81.3358 187.942,80.6579 188.267,79.9873 188.592,79.3241 188.917,78.6681 189.242,78.0195 189.566,77.3781 189.891,76.7439 190.216,76.1169 190.541,75.497 190.866,74.8842 191.191,74.2785 191.515,73.6797 191.84,73.0878 192.165,72.5029 192.49,71.9247 192.815,71.3534 193.14,70.7888 193.465,70.2309 193.789,69.6797 194.114,69.135 194.439,68.5968 194.764,68.0651 195.089,67.5399 195.414,67.021 195.738,66.5084 196.063,66.002 196.388,65.5019 196.713,65.0079 197.038,64.52 197.363,64.0381 197.687,63.5622 198.012,63.0922 198.337,62.6281 198.662,62.1697 198.987,61.7171 199.312,61.2702 199.636,60.8289 199.961,60.3931 200.286,59.9629 200.611,59.5381 200.936,59.1188 201.261,58.7047 201.585,58.296 201.91,57.8925 202.235,57.4941 202.56,57.1008 202.885,56.7126 203.21,56.3294 203.534,55.9512 203.859,55.5778 204.184,55.2093 204.509,54.8455 204.834,54.4865 205.159,54.1321 205.483,53.7824 205.808,53.4372 206.133,53.0965 206.458,52.7603 206.783,52.4285 207.108,52.101 207.432,51.7778 207.757,51.4589 208.082,51.1442 208.407,50.8336 208.732,50.5272 209.057,50.2247 209.382,49.9263 209.706,49.6318 210.031,49.3412 210.356,49.0545 210.681,48.7716 211.006,48.4924 211.331,48.217 211.655,47.9452 211.98,47.677 212.305,47.4124 212.63,47.1514 212.955,46.8938 213.28,46.6397 213.604,46.389 213.929,46.1416 214.254,45.8975 214.579,45.6567 214.904,45.4192 215.229,45.1848 215.553,44.9536 215.878,44.7255 216.203,44.5004 216.528,44.2784 216.853,44.0594 217.178,43.8433 217.502,43.6301 217.827,43.4198 218.152,43.2124 218.477,43.0077 218.802,42.8058 219.127,42.6066 219.451,42.4102 219.776,42.2163 220.101,42.0251 220.426,41.8365 220.751,41.6504 221.076,41.4669 221.4,41.2858 221.725,41.1072 222.05,40.931 222.375,40.7573 222.7,40.5858 223.025,40.4167 223.35,40.2499 223.674,40.0854 223.999,39.9231 224.324,39.7629 224.649,39.605 224.974,39.4492 225.299,39.2956 225.623,39.144 225.948,38.9945 226.273,38.847 226.598,38.7016 226.923,38.5581 227.248,38.4166 227.572,38.2769 227.897,38.1393 228.222,38.0034 228.547,37.8694 228.872,37.7373 229.197,37.607 229.521,37.4784 229.846,37.3516 230.171,37.2265 230.496,37.1031 230.821,36.9814 231.146,36.8614 231.47,36.743 231.795,36.6262 232.12,36.5111 232.445,36.3975 232.77,36.2854 233.095,36.1749 233.419,36.0659 233.744,35.9584 234.069,35.8523 234.394,35.7477 234.719,35.6445 235.044,35.5428 235.368,35.4424 235.693,35.3434 236.018,35.2458 236.343,35.1495 236.668,35.0545 236.993,34.9608 237.317,34.8684 237.642,34.7773 237.967,34.6873 238.292,34.5987 238.617,34.5112 238.942,34.425 239.267,34.3399 239.591,34.256 239.916,34.1733 240.241,34.0916 240.566,34.0112 240.891,33.9318 241.216,33.8534 241.54,33.7762 241.865,33.7 242.19,33.6249 242.515,33.5508 242.84,33.4777 243.165,33.4056 243.489,33.3345 243.814,33.2643 244.139,33.1952 244.464,33.127 244.789,33.0597 245.114,32.9933 245.438,32.9279 245.763,32.8633 246.088,32.7996 246.413,32.7368 246.738,32.6749 247.063,32.6138 247.387,32.5536 247.712,32.4941 248.037,32.4355 248.362,32.3777 248.687,32.3207 249.012,32.2645 249.336,32.209 249.661,32.1544 249.986,32.1004 250.311,32.0472 250.636,31.9947 250.961,31.943 251.285,31.8919 251.61,31.8416 251.935,31.7919 252.26,31.7429 252.585,31.6946 252.91,31.647 253.234,31.6 253.559,31.5537 253.884,31.508 254.209,31.4629 254.534,31.4184 254.859,31.3746 255.184,31.3313 255.508,31.2887 255.833,31.2466 256.158,31.2051 256.483,31.1642 256.808,31.1238 257.133,31.084 257.457,31.0448 257.782,31.006 258.107,30.9678 258.432,30.9302 258.757,30.893 259.082,30.8564 259.406,30.8203 259.731,30.7846 260.056,30.7495 260.381,30.7148 260.706,30.6806 261.031,30.6469 261.355,30.6136 261.68,30.5808 262.005,30.5485 262.33,30.5166 262.655,30.4851 262.98,30.4541 263.304,30.4235 263.629,30.3933 263.954,30.3635 264.279,30.3341 264.604,30.3052 264.929,30.2766 265.253,30.2484 265.578,30.2206 265.903,30.1932 266.228,30.1662 266.553,30.1395 266.878,30.1133 267.202,30.0873 267.527,30.0617 267.852,30.0365 268.177,30.0116 268.502,29.9871 268.827,29.9629 269.152,29.939 269.476,29.9155 269.801,29.8923 270.126,29.8694 270.451,29.8468 270.776,29.8245 271.101,29.8026 271.425,29.7809 271.75,29.7595 272.075,29.7384 272.4,29.7177 272.725,29.6971 273.05,29.6769 273.374,29.657 273.699,29.6373 274.024,29.6179 274.349,29.5988 274.674,29.5799 274.999,29.5613 275.323,29.543 275.648,29.5248 275.973,29.507 276.298,29.4894 276.623,29.472 276.948,29.4549 277.272,29.438 277.597,29.4213 277.922,29.4049 278.247,29.3887 278.572,29.3727 278.897,29.357 279.221,29.3414 279.546,29.3261 279.871,29.3109 280.196,29.296 280.521,29.2813 280.846,29.2668 281.17,29.2525 281.495,29.2384 281.82,29.2245 282.145,29.2108 282.47,29.1972 282.795,29.1838 283.12,29.1707 283.444,29.1577 283.769,29.1449 284.094,29.1323 284.419,29.1198 284.744,29.1075 285.069,29.0954 285.393,29.0834 285.718,29.0716 286.043,29.06 286.368,29.0485 286.693,29.0372 287.018,29.0261 287.342,29.0151 287.667,29.0042 287.992,28.9935 288.317,28.983 288.642,28.9725 288.967,28.9623 289.291,28.9521 289.616,28.9421 289.941,28.9323 290.266,28.9226 290.591,28.913 290.916,28.9036 291.24,28.8942 291.565,28.885 291.89,28.876 292.215,28.867 292.54,28.8582 292.865,28.8495 293.189,28.8409 293.514,28.8325 293.839,28.8241 294.164,28.8159 294.489,28.8078 294.814,28.7997 295.138,28.7919 295.463,28.7841 295.788,28.7764 296.113,28.7689 296.438,28.7614 296.763,28.754 297.087,28.7468 297.412,28.7396 297.737,28.7325 298.062,28.7255 298.387,28.7187 298.712,28.7119 299.036,28.7052 299.361,28.6986 299.686,28.6921 300.011,28.6857 300.336,28.6793 300.661,28.6731 300.986,28.6669 301.31,28.6609 301.635,28.6549 301.96,28.649 302.285,28.6432 302.61,28.6374 302.935,28.6317 303.259,28.6262 303.584,28.6206 303.909,28.6152 304.234,28.6098 304.559,28.6046 304.884,28.5994 305.208,28.5942 305.533,28.5891 305.858,28.5841 306.183,28.5792 306.508,28.5743 306.833,28.5695 307.157,28.5648 307.482,28.5601 307.807,28.5555 308.132,28.551 308.457,28.5465 308.782,28.5421 309.106,28.5378 309.431,28.5334 309.756,28.5292 310.081,28.525 310.406,28.5209 310.731,28.5168 311.055,28.5128 311.38,28.5089 311.705,28.5049 312.03,28.5011 312.355,28.4973 312.68,28.4936 313.005,28.4899 313.329,28.4863 313.654,28.4827 313.979,28.4791 314.304,28.4756 314.629,28.4722 314.954,28.4688 315.278,28.4655 315.603,28.4622 315.928,28.4589 316.253,28.4557 316.578,28.4525 316.903,28.4494 317.227,28.4463 317.552,28.4432 317.877,28.4402 318.202,28.4373 318.527,28.4344 318.852,28.4315 319.176,28.4286 319.501,28.4258 319.826,28.4231 320.151,28.4204 320.476,28.4177 320.801,28.415 321.125,28.4124 321.45,28.4099 321.775,28.4073 322.1,28.4048 322.425,28.4023 322.75,28.3999 323.074,28.3975 323.399,28.3951 323.724,28.3928 324.049,28.3905 324.374,28.3882 324.699,28.386 325.023,28.3837 325.348,28.3816 325.673,28.3794 325.998,28.3773 326.323,28.3752 326.648,28.3732 326.973,28.3711 327.297,28.3691 327.622,28.3671 327.947,28.3652 328.272,28.3632 328.597,28.3613 328.922,28.3594 329.246,28.3576 329.571,28.3558 329.896,28.354 330.221,28.3522 330.546,28.3505 330.871,28.3488 331.195,28.347 331.52,28.3454 331.845,28.3437 332.17,28.3421 332.495,28.3405 332.82,28.3389 333.144,28.3373 333.469,28.3358 333.794,28.3342 334.119,28.3328 334.444,28.3313 334.769,28.3298 335.093,28.3284 335.418,28.327 335.743,28.3256 336.068,28.3242 336.393,28.3228 336.718,28.3215 337.042,28.3201 337.367,28.3188 337.692,28.3175 338.017,28.3163 338.342,28.315 338.667,28.3138 338.991,28.3126 339.316,28.3113 339.641,28.3101 339.966,28.309 340.291,28.3079 340.616,28.3067 340.94,28.3056 341.265,28.3045 341.59,28.3033 341.915,28.3023 342.24,28.3012 342.565,28.3002 342.889,28.2991 343.214,28.2981 343.539,28.2971 343.864,28.2961 344.189,28.2952 344.514,28.2942 344.839,28.2932 345.163,28.2923 345.488,28.2914 345.813,28.2905 346.138,28.2896 346.463,28.2887 346.788,28.2878 347.112,28.2869 347.437,28.2861 347.762,28.2852 348.087,28.2844 348.412,28.2836 348.737,28.2828 349.061,28.282 349.386,28.2812 349.711,28.2805 350.036,28.2797 350.361,28.2789 350.686,28.2782 351.01,28.2775 351.335,28.2767 351.66,28.276 351.985,28.2753 352.31,28.2746 352.635,28.2739 352.959,28.2733 353.284,28.2726 353.609,28.2719 353.934,28.2713 354.259,28.2706 354.584,28.27 354.908,28.2694 355.233,28.2688 355.558,28.2682 355.883,28.2676 356.208,28.267 356.533,28.2664 356.857,28.2659 357.182,28.2653 357.507,28.2647 357.832,28.2642 358.157,28.2637 358.482,28.2631 358.807,28.2626 359.131,28.2621 359.456,28.2616 359.781,28.261 360.106,28.2606 360.431,28.2601 360.756,28.2596 361.08,28.2591 361.405,28.2587 361.73,28.2582 362.055,28.2577 362.38,28.2573 362.705,28.2568 363.029,28.2564 363.354,28.256 363.679,28.2555 364.004,28.2551 364.329,28.2547 364.654,28.2543 364.978,28.2539 365.303,28.2535 365.628,28.2531 365.953,28.2527 366.278,28.2523 366.603,28.252 366.927,28.2516 367.252,28.2512 367.577,28.2509 367.902,28.2505 368.227,28.2501 368.552,28.2498 368.876,28.2495 369.201,28.2491 369.526,28.2488 369.851,28.2485 370.176,28.2481 370.501,28.2478 370.826,28.2475 371.15,28.2472 371.475,28.2469 371.8,28.2466 372.125,28.2463 372.45,28.246 372.775,28.2457 373.099,28.2454 373.424,28.2451 373.749,28.2449 374.074,28.2446 374.399,28.2443 374.724,28.244 375.048,28.2438 375.373,28.2435 375.698,28.2433 376.023,28.243 376.348,28.2428 376.673,28.2425 376.997,28.2423 377.322,28.242 377.647,28.2418 377.972,28.2416 378.297,28.2413 378.622,28.2411 378.946,28.2409" stroke="#ffff00" stroke-dasharray="9,7" stroke-linecap="butt" stroke-linejoin="round" stroke-width="1"/>
   <polyline fill="none" points="54.4343,279.339 54.7591,279.337 55.084,279.335 55.4088,279.332 55.7336,279.33 56.0585,279.328 56.3833,279.325 56.7082,279.323 57.033,279.32 57.3578,279.318 57.6827,279.315 58.0075,279.313 58.3323,279.31 58.6572,279.308 58.982,279.305 59.3069,279.302 59.6317,279.3 59.9565,279.297 60.2814,279.294 60.6062,279.291 60.931,279.288 61.2559,279.285 61.5807,279.282 61.9055,279.279 62.2304,279.276 62.5552,279.273 62.8801,279.27 63.2049,279.267 63.5297,279.264 63.8546,279.26 64.1794,279.257 64.5042,279.254 64.8291,279.25 65.1539,279.247 65.4788,279.243 65.8036,279.24 66.1284,279.236 66.4533,279.232 66.7781,279.229 67.1029,279.225 67.4278,279.221 67.7526,279.217 68.0775,279.213 68.4023,279.209 68.7271,279.205 69.052,279.201 69.3768,279.197 69.7016,279.193 70.0265,279.188 70.3513,279.184 70.6761,279.18 71.001,279.175 71.3258,279.171 71.6507,279.166 71.9755,279.162 72.3003,279.157 72.6252,279.152 72.95,279.147 73.2748,279.142 73.5997,279.137 73.9245,279.132 74.2493,279.127 74.5742,279.122 74.899,279.117 75.2239,279.112 75.5487,279.106 75.8735,279.101 76.1984,279.095 76.5232,279.089 76.848,279.084 77.1729,279.078 77.4977,279.072 77.8226,279.066 78.1474,279.06 78.4722,279.054 78.7971,279.048 79.1219,279.042 79.4467,279.035 79.7716,279.029 80.0964,279.022 80.4212,279.016 80.7461,279.009 81.0709,279.002 81.3958,278.995 81.7206,278.988 82.0454,278.981 82.3703,278.974 82.6951,278.966 83.0199,278.959 83.3448,278.951 83.6696,278.944 83.9944,278.936 84.3193,278.928 84.6441,278.92 84.969,278.912 85.2938,278.904 85.6186,278.896 85.9435,278.887 86.2683,278.879 86.5931,278.87 86.918,278.861 87.2428,278.853 87.5677,278.844 87.8925,278.834 88.2173,278.825 88.5422,278.816 88.867,278.806 89.1918,278.797 89.5167,278.787 89.8415,278.777 90.1664,278.767 90.4912,278.757 90.816,278.746 91.1409,278.736 91.4657,278.725 91.7905,278.714 92.1154,278.703 92.4402,278.692 92.7651,278.681 93.0899,278.67 93.4147,278.658 93.7396,278.647 94.0644,278.635 94.3892,278.623 94.7141,278.61 95.0389,278.598 95.3638,278.586 95.6886,278.573 96.0134,278.56 96.3383,278.547 96.6631,278.534 96.9879,278.52 97.3128,278.506 97.6376,278.493 97.9624,278.479 98.2873,278.464 98.6121,278.45 98.937,278.435 99.2618,278.421 99.5866,278.406 99.9115,278.39 100.236,278.375 100.561,278.359 100.886,278.343 101.211,278.327 101.536,278.311 101.86,278.294 102.185,278.278 102.51,278.261 102.835,278.243 103.16,278.226 103.485,278.208 103.81,278.19 104.134,278.172 104.459,278.153 104.784,278.135 105.109,278.116 105.434,278.096 105.759,278.077 106.083,278.057 106.408,278.037 106.733,278.017 107.058,277.996 107.383,277.975 107.708,277.954 108.032,277.932 108.357,277.911 108.682,277.888 109.007,277.866 109.332,277.843 109.657,277.82 109.981,277.797 110.306,277.773 110.631,277.749 110.956,277.725 111.281,277.7 111.606,277.675 111.93,277.65 112.255,277.624 112.58,277.598 112.905,277.571 113.23,277.544 113.555,277.517 113.879,277.49 114.204,277.462 114.529,277.433 114.854,277.404 115.179,277.375 115.504,277.346 115.828,277.316 116.153,277.285 116.478,277.255 116.803,277.223 117.128,277.192 117.453,277.159 117.777,277.127 118.102,277.094 118.427,277.06 118.752,277.026 119.077,276.992 119.402,276.957 119.727,276.922 120.051,276.886 120.376,276.849 120.701,276.812 121.026,276.775 121.351,276.737 121.676,276.699 122,276.66 122.325,276.62 122.65,276.58 122.975,276.539 123.3,276.498 123.625,276.456 123.949,276.414 124.274,276.371 124.599,276.328 124.924,276.283 125.249,276.239 125.574,276.193 125.898,276.147 126.223,276.101 126.548,276.053 126.873,276.005 127.198,275.957 127.523,275.907 127.847,275.857 128.172,275.807 128.497,275.755 128.822,275.703 129.147,275.65 129.472,275.597 129.796,275.542 130.121,275.487 130.446,275.432 130.771,275.375 131.096,275.318 131.421,275.259 131.745,275.2 132.07,275.14 132.395,275.08 132.72,275.018 133.045,274.956 133.37,274.893 133.695,274.829 134.019,274.764 134.344,274.698 134.669,274.631 134.994,274.563 135.319,274.494 135.644,274.425 135.968,274.354 136.293,274.283 136.618,274.21 136.943,274.136 137.268,274.062 137.593,273.986 137.917,273.909 138.242,273.832 138.567,273.753 138.892,273.673 139.217,273.592 139.542,273.51 139.866,273.426 140.191,273.342 140.516,273.256 140.841,273.169 141.166,273.081 141.491,272.992 141.815,272.901 142.14,272.81 142.465,272.717 142.79,272.622 143.115,272.527 143.44,272.43 143.764,272.331 144.089,272.232 144.414,272.131 144.739,272.028 145.064,271.924 145.389,271.819 145.713,271.712 146.038,271.604 146.363,271.494 146.688,271.383 147.013,271.27 147.338,271.156 147.663,271.04 147.987,270.922 148.312,270.803 148.637,270.682 148.962,270.559 149.287,270.435 149.612,270.309 149.936,270.182 150.261,270.052 150.586,269.921 150.911,269.788 151.236,269.653 151.561,269.516 151.885,269.378 152.21,269.237 152.535,269.094 152.86,268.95 153.185,268.804 153.51,268.655 153.834,268.505 154.159,268.352 154.484,268.197 154.809,268.04 155.134,267.881 155.459,267.72 155.783,267.557 156.108,267.391 156.433,267.223 156.758,267.053 157.083,266.88 157.408,266.705 157.732,266.528 158.057,266.348 158.382,266.166 158.707,265.981 159.032,265.794 159.357,265.604 159.681,265.411 160.006,265.216 160.331,265.018 160.656,264.818 160.981,264.614 161.306,264.408 161.63,264.199 161.955,263.988 162.28,263.773 162.605,263.556 162.93,263.335 163.255,263.111 163.579,262.885 163.904,262.655 164.229,262.422 164.554,262.186 164.879,261.947 165.204,261.705 165.529,261.459 165.853,261.21 166.178,260.958 166.503,260.702 166.828,260.443 167.153,260.18 167.478,259.913 167.802,259.643 168.127,259.37 168.452,259.093 168.777,258.811 169.102,258.527 169.427,258.238 169.751,257.945 170.076,257.649 170.401,257.349 170.726,257.044 171.051,256.736 171.376,256.423 171.7,256.106 172.025,255.785 172.35,255.46 172.675,255.13 173,254.796 173.325,254.458 173.649,254.115 173.974,253.767 174.299,253.415 174.624,253.059 174.949,252.697 175.274,252.331 175.598,251.96 175.923,251.584 176.248,251.204 176.573,250.818 176.898,250.427 177.223,250.031 177.548,249.63 177.872,249.224 178.197,248.813 178.522,248.396 178.847,247.974 179.172,247.547 179.497,247.114 179.821,246.675 180.146,246.231 180.471,245.781 180.796,245.326 181.121,244.865 181.446,244.398 181.77,243.925 182.095,243.446 182.42,242.961 182.745,242.47 183.07,241.973 183.395,241.47 183.719,240.96 184.044,240.444 184.369,239.922 184.694,239.394 185.019,238.859 185.344,238.318 185.668,237.77 185.993,237.215 186.318,236.654 186.643,236.086 186.968,235.511 187.293,234.93 187.617,234.341 187.942,233.746 188.267,233.144 188.592,232.534 188.917,231.918 189.242,231.294 189.566,230.664 189.891,230.026 190.216,229.381 190.541,228.729 190.866,228.069 191.191,227.402 191.515,226.728 191.84,226.046 192.165,225.357 192.49,224.661 192.815,223.957 193.14,223.245 193.465,222.526 193.789,221.799 194.114,221.065 194.439,220.323 194.764,219.573 195.089,218.816 195.414,218.051 195.738,217.279 196.063,216.499 196.388,215.711 196.713,214.916 197.038,214.113 197.363,213.302 197.687,212.484 198.012,211.658 198.337,210.824 198.662,209.983 198.987,209.135 199.312,208.279 199.636,207.415 199.961,206.544 200.286,205.666 200.611,204.78 200.936,203.887 201.261,202.986 201.585,202.079 201.91,201.164 202.235,200.242 202.56,199.314 202.885,198.378 203.21,197.435 203.534,196.486 203.859,195.53 204.184,194.567 204.509,193.598 204.834,192.622 205.159,191.641 205.483,190.652 205.808,189.658 206.133,188.658 206.458,187.652 206.783,186.64 207.108,185.623 207.432,184.6 207.757,183.572 208.082,182.539 208.407,181.501 208.732,180.458 209.057,179.41 209.382,178.357 209.706,177.301 210.031,176.24 210.356,175.174 210.681,174.105 211.006,173.033 211.331,171.957 211.655,170.877 211.98,169.794 212.305,168.709 212.63,167.62 212.955,166.529 213.28,165.436 213.604,164.34 213.929,163.242 214.254,162.143 214.579,161.042 214.904,159.94 215.229,158.836 215.553,157.732 215.878,156.627 216.203,155.521 216.528,154.415 216.853,153.309 217.178,152.203 217.502,151.097 217.827,149.992 218.152,148.888 218.477,147.784 218.802,146.682 219.127,145.581 219.451,144.482 219.776,143.384 220.101,142.288 220.426,141.195 220.751,140.104 221.076,139.016 221.4,137.93 221.725,136.847 222.05,135.768 222.375,134.691 222.7,133.619 223.025,132.55 223.35,131.484 223.674,130.423 223.999,129.367 224.324,128.314 224.649,127.266 224.974,126.223 225.299,125.185 225.623,124.152 225.948,123.124 226.273,122.101 226.598,121.084 226.923,120.072 227.248,119.066 227.572,118.066 227.897,117.072 228.222,116.084 228.547,115.102 228.872,114.126 229.197,113.157 229.521,112.194 229.846,111.238 230.171,110.289 230.496,109.346 230.821,108.41 231.146,107.482 231.47,106.56 231.795,105.645 232.12,104.738 232.445,103.837 232.77,102.944 233.095,102.058 233.419,101.18 233.744,100.309 234.069,99.4454 234.394,98.5893 234.719,97.7407 235.044,96.8997 235.368,96.0662 235.693,95.2403 236.018,94.4221 236.343,93.6114 236.668,92.8084 236.993,92.013 237.317,91.2253 237.642,90.4452 237.967,89.6727 238.292,88.9079 238.617,88.1508 238.942,87.4012 239.267,86.6593 239.591,85.925 239.916,85.1982 240.241,84.4791 240.566,83.7675 240.891,83.0634 241.216,82.3668 241.54,81.6776 241.865,80.9959 242.19,80.3217 242.515,79.6547 242.84,78.9952 243.165,78.3429 243.489,77.6979 243.814,77.0602 244.139,76.4296 244.464,75.8061 244.789,75.1898 245.114,74.5805 245.438,73.9782 245.763,73.3829 246.088,72.7945 246.413,72.213 246.738,71.6382 247.063,71.0703 247.387,70.509 247.712,69.9545 248.037,69.4065 248.362,68.8651 248.687,68.3302 249.012,67.8017 249.336,67.2796 249.661,66.7639 249.986,66.2544 250.311,65.7512 250.636,65.2542 250.961,64.7632 251.285,64.2783 251.61,63.7994 251.935,63.3265 252.26,62.8594 252.585,62.3982 252.91,61.9427 253.234,61.493 253.559,61.0488 253.884,60.6103 254.209,60.1774 254.534,59.7499 254.859,59.3278 255.184,58.9111 255.508,58.4997 255.833,58.0936 256.158,57.6926 256.483,57.2968 256.808,56.9061 257.133,56.5204 257.457,56.1397 257.782,55.7639 258.107,55.3929 258.432,55.0268 258.757,54.6654 259.082,54.3087 259.406,53.9567 259.731,53.6092 260.056,53.2663 260.381,52.9279 260.706,52.5938 261.031,52.2642 261.355,51.9389 261.68,51.6179 262.005,51.301 262.33,50.9884 262.655,50.6799 262.98,50.3754 263.304,50.075 263.629,49.7786 263.954,49.486 264.279,49.1974 264.604,48.9126 264.929,48.6315 265.253,48.3542 265.578,48.0806 265.903,47.8107 266.228,47.5443 266.553,47.2815 266.878,47.0222 267.202,46.7663 267.527,46.5139 267.852,46.2649 268.177,46.0191 268.502,45.7767 268.827,45.5376 269.152,45.3016 269.476,45.0688 269.801,44.8391 270.126,44.6126 270.451,44.389 270.776,44.1685 271.101,43.9509 271.425,43.7363 271.75,43.5246 272.075,43.3157 272.4,43.1097 272.725,42.9064 273.05,42.7059 273.374,42.5081 273.699,42.3129 274.024,42.1204 274.349,41.9305 274.674,41.7432 274.999,41.5583 275.323,41.376 275.648,41.1962 275.973,41.0189 276.298,40.8439 276.623,40.6713 276.948,40.501 277.272,40.333 277.597,40.1674 277.922,40.0039 278.247,39.8427 278.572,39.6837 278.897,39.5269 279.221,39.3722 279.546,39.2195 279.871,39.069 280.196,38.9205 280.521,38.774 280.846,38.6296 281.17,38.4871 281.495,38.3465 281.82,38.2079 282.145,38.0711 282.47,37.9362 282.795,37.8031 283.12,37.6719 283.444,37.5424 283.769,37.4148 284.094,37.2888 284.419,37.1646 284.744,37.0421 285.069,36.9212 285.393,36.802 285.718,36.6844 286.043,36.5685 286.368,36.4541 286.693,36.3412 287.018,36.23 287.342,36.1202 287.667,36.0119 287.992,35.9052 288.317,35.7998 288.642,35.696 288.967,35.5935 289.291,35.4924 289.616,35.3928 289.941,35.2944 290.266,35.1974 290.591,35.1018 290.916,35.0075 291.24,34.9144 291.565,34.8227 291.89,34.7321 292.215,34.6429 292.54,34.5548 292.865,34.468 293.189,34.3823 293.514,34.2979 293.839,34.2145 294.164,34.1323 294.489,34.0512 294.814,33.9713 295.138,33.8925 295.463,33.8147 295.788,33.738 296.113,33.6623 296.438,33.5877 296.763,33.5141 297.087,33.4415 297.412,33.3699 297.737,33.2993 298.062,33.2296 298.387,33.1609 298.712,33.0932 299.036,33.0264 299.361,32.9605 299.686,32.8955 300.011,32.8314 300.336,32.7681 300.661,32.7057 300.986,32.6443 301.31,32.5836 301.635,32.5237 301.96,32.4647 302.285,32.4066 302.61,32.3491 302.935,32.2925 303.259,32.2367 303.584,32.1816 303.909,32.1273 304.234,32.0737 304.559,32.0209 304.884,31.9688 305.208,31.9174 305.533,31.8666 305.858,31.8167 306.183,31.7673 306.508,31.7187 306.833,31.6707 307.157,31.6234 307.482,31.5768 307.807,31.5307 308.132,31.4854 308.457,31.4406 308.782,31.3964 309.106,31.3529 309.431,31.3099 309.756,31.2676 310.081,31.2258 310.406,31.1846 310.731,31.144 311.055,31.1039 311.38,31.0643 311.705,31.0253 312.03,30.9869 312.355,30.949 312.68,30.9116 313.005,30.8747 313.329,30.8383 313.654,30.8024 313.979,30.767 314.304,30.7321 314.629,30.6977 314.954,30.6637 315.278,30.6302 315.603,30.5972 315.928,30.5646 316.253,30.5325 316.578,30.5008 316.903,30.4695 317.227,30.4387 317.552,30.4083 317.877,30.3783 318.202,30.3488 318.527,30.3196 318.852,30.2908 319.176,30.2625 319.501,30.2345 319.826,30.2069 320.151,30.1797 320.476,30.1528 320.801,30.1263 321.125,30.1002 321.45,30.0745 321.775,30.0491 322.1,30.024 322.425,29.9993 322.75,29.9749 323.074,29.9509 323.399,29.9272 323.724,29.9038 324.049,29.8808 324.374,29.858 324.699,29.8356 325.023,29.8135 325.348,29.7917 325.673,29.7701 325.998,29.7489 326.323,29.728 326.648,29.7073 326.973,29.687 327.297,29.6669 327.622,29.6471 327.947,29.6276 328.272,29.6083 328.597,29.5893 328.922,29.5706 329.246,29.5521 329.571,29.5339 329.896,29.5159 330.221,29.4981 330.546,29.4807 330.871,29.4634 331.195,29.4464 331.52,29.4296 331.845,29.4131 332.17,29.3968 332.495,29.3807 332.82,29.3648 333.144,29.3492 333.469,29.3337 333.794,29.3185 334.119,29.3035 334.444,29.2887 334.769,29.274 335.093,29.2596 335.418,29.2454 335.743,29.2314 336.068,29.2176 336.393,29.2039 336.718,29.1905 337.042,29.1772 337.367,29.1642 337.692,29.1513 338.017,29.1385 338.342,29.126 338.667,29.1136 338.991,29.1014 339.316,29.0894 339.641,29.0775 339.966,29.0658 340.291,29.0543 340.616,29.0428 340.94,29.0316 341.265,29.0205 341.59,29.0096 341.915,28.9988 342.24,28.9882 342.565,28.9777 342.889,28.9674 343.214,28.9572 343.539,28.9471 343.864,28.9372 344.189,28.9274 344.514,28.9178 344.839,28.9083 345.163,28.8989 345.488,28.8896 345.813,28.8805 346.138,28.8715 346.463,28.8626 346.788,28.8539 347.112,28.8452 347.437,28.8367 347.762,28.8283 348.087,28.82 348.412,28.8118 348.737,28.8038 349.061,28.7958 349.386,28.788 349.711,28.7802 350.036,28.7726 350.361,28.7651 350.686,28.7577 351.01,28.7504 351.335,28.7431 351.66,28.736 351.985,28.729 352.31,28.7221 352.635,28.7153 352.959,28.7085 353.284,28.7018 353.609,28.6953 353.934,28.6889 354.259,28.6825 354.584,28.6762 354.908,28.67 355.233,28.6639 355.558,28.6579 355.883,28.6519 356.208,28.6461 356.533,28.6403 356.857,28.6346 357.182,28.6289 357.507,28.6234 357.832,28.6179 358.157,28.6125 358.482,28.6072 358.807,28.6019 359.131,28.5967 359.456,28.5916 359.781,28.5866 360.106,28.5817 360.431,28.5768 360.756,28.5719 361.08,28.5672 361.405,28.5624 361.73,28.5578 362.055,28.5532 362.38,28.5488 362.705,28.5443 363.029,28.5399 363.354,28.5356 363.679,28.5313 364.004,28.5271 364.329,28.5229 364.654,28.5189 364.978,28.5148 365.303,28.5108 365.628,28.5069 365.953,28.503 366.278,28.4992 366.603,28.4955 366.927,28.4917 367.252,28.4881 367.577,28.4845 367.902,28.4809 368.227,28.4774 368.552,28.4739 368.876,28.4705 369.201,28.4671 369.526,28.4638 369.851,28.4605 370.176,28.4573 370.501,28.4541 370.826,28.4509 371.15,28.4478 371.475,28.4448 371.8,28.4418 372.125,28.4388 372.45,28.4359 372.775,28.4329 373.099,28.4301 373.424,28.4272 373.749,28.4245 374.074,28.4218 374.399,28.419 374.724,28.4164 375.048,28.4137 375.373,28.4111 375.698,28.4086 376.023,28.4061 376.348,28.4036 376.673,28.4011 376.997,28.3987 377.322,28.3963 377.647,28.394 377.972,28.3916 378.297,28.3893 378.622,28.3871 378.946,28.3849" stroke="#0000ff" stroke-linecap="butt" stroke-linejoin="round" stroke-width="2"/>
  </g>
  <clipPath id="cp00418314">
   <polygon points="0,314 418,314 418,0 0,0"/>
  </clipPath>
  <g clip-path="url(#cp00418314)">
   <polygon fill="#ffffff" points="303.321,34.1783 303.321,88.897 368.321,88.897 368.321,34.1783" shape-rendering="crispEdges"/>
   <polyline fill="none" points="303.321,88.897 368.321,88.897" stroke="#262626" stroke-dasharray="16,0" stroke-linecap="square" stroke-linejoin="miter" stroke-width="0.5"/>
   <polyline fill="none" points="303.321,34.1783 368.321,34.1783" stroke="#262626" stroke-dasharray="16,0" stroke-linecap="square" stroke-linejoin="miter" stroke-width="0.5"/>
   <polyline fill="none" points="303.321,88.897 303.321,34.1783" stroke="#262626" stroke-dasharray="16,0" stroke-linecap="square" stroke-linejoin="miter" stroke-width="0.5"/>
   <polyline fill="none" points="368.321,88.897 368.321,34.1783" stroke="#262626" stroke-dasharray="16,0" stroke-linecap="square" stroke-linejoin="miter" stroke-width="0.5"/>
   <polyline fill="none" points="308.634,45.0689 335.196,45.0689" stroke="#00ff00" stroke-dasharray="9,7" stroke-linecap="butt" stroke-linejoin="round" stroke-width="1"/>
   <g font-family="FreeSans" font-size="9" font-style="normal" font-weight="normal" transform="translate(340.509,50.0689) rotate(-0,-0,-5)" xml:space="preserve">
    <text fill="rgb(0,0,0)" x="0 " y="-2">τ</text>
    <text fill="rgb(0,0,0)" x="4 9 14 17 " y="-2">=0,1</text>
   </g>
   <polyline fill="none" points="308.634,61.5377 335.196,61.5377" stroke="#ffff00" stroke-dasharray="9,7" stroke-linecap="butt" stroke-linejoin="round" stroke-width="1"/>
   <g font-family="FreeSans" font-size="9" font-style="normal" font-weight="normal" transform="translate(340.509,65.5377) rotate(-0,-0,-4)" xml:space="preserve">
    <text fill="rgb(0,0,0)" x="0 " y="-0">τ</text>
    <text fill="rgb(0,0,0)" x="4 9 14 " y="-0">=10</text>
   </g>
   <polyline fill="none" points="308.634,78.0064 335.196,78.0064" stroke="#0000ff" stroke-linecap="butt" stroke-linejoin="round" stroke-width="2"/>
   <g font-family="FreeSans" font-size="9" font-style="normal" font-weight="normal" transform="translate(340.509,82.0064) rotate(-0,-0,-4)" xml:space="preserve">
    <text fill="rgb(0,0,0)" x="0 " y="-0">τ</text>
    <text fill="rgb(0,0,0)" x="4 9 " y="-0">=1</text>
   </g>
  </g>
 </g>
</svg>
