<?xml version='1.0' encoding='UTF-8' standalone='no'?>
<svg height="237pt" viewBox="0 0 316 237" width="316pt" xmlns="http://www.w3.org/2000/svg" xmlns:xlink="http://www.w3.org/1999/xlink">
 <title>Figure 1</title>
 <desc>
Creator: GL2PS 1.4.2, (C) 1999-2020 C. Geuzaine
For: Octave
CreationDate: Thu Mar 27 20:05:51 2025
</desc>
 <defs/>
 <polygon fill="#ffffff" points="0,0 316,0 316,237 0,237"/>
 <g>
  <polygon fill="#ffffff" points="0,237 316,237 316,0 0,0" shape-rendering="crispEdges"/>
  <clipPath id="cp00316237">
   <polygon points="0,237 316,237 316,0 0,0"/>
  </clipPath>
  <g clip-path="url(#cp00316237)">
   <polygon fill="#ffffff" points="41.1106,25 41.1106,208.665 286.193,208.665 286.193,25" shape-rendering="crispEdges"/>
   <polyline fill="none" points="41.1106,208.665 41.1106,25" stroke="#262626" stroke-dasharray="16,0" stroke-linecap="butt" stroke-linejoin="miter" stroke-opacity="0.15" stroke-width="0.5"/>
   <polyline fill="none" points="102.381,208.665 102.381,25" stroke="#262626" stroke-dasharray="16,0" stroke-linecap="butt" stroke-linejoin="miter" stroke-opacity="0.15" stroke-width="0.5"/>
   <polyline fill="none" points="163.652,208.665 163.652,25" stroke="#262626" stroke-dasharray="16,0" stroke-linecap="butt" stroke-linejoin="miter" stroke-opacity="0.15" stroke-width="0.5"/>
   <polyline fill="none" points="224.922,208.665 224.922,25" stroke="#262626" stroke-dasharray="16,0" stroke-linecap="butt" stroke-linejoin="miter" stroke-opacity="0.15" stroke-width="0.5"/>
   <polyline fill="none" points="286.193,208.665 286.193,25" stroke="#262626" stroke-dasharray="16,0" stroke-linecap="butt" stroke-linejoin="miter" stroke-opacity="0.15" stroke-width="0.5"/>
   <polyline fill="none" points="41.1106,208.665 41.1106,206.219" stroke="#262626" stroke-linecap="butt" stroke-linejoin="miter" stroke-width="0.5"/>
   <polyline fill="none" points="41.1106,25 41.1106,27.4464" stroke="#262626" stroke-linecap="butt" stroke-linejoin="miter" stroke-width="0.5"/>
   <polyline fill="none" points="102.381,208.665 102.381,206.219" stroke="#262626" stroke-linecap="butt" stroke-linejoin="miter" stroke-width="0.5"/>
   <polyline fill="none" points="102.381,25 102.381,27.4464" stroke="#262626" stroke-linecap="butt" stroke-linejoin="miter" stroke-width="0.5"/>
   <polyline fill="none" points="163.652,208.665 163.652,206.219" stroke="#262626" stroke-linecap="butt" stroke-linejoin="miter" stroke-width="0.5"/>
   <polyline fill="none" points="163.652,25 163.652,27.4464" stroke="#262626" stroke-linecap="butt" stroke-linejoin="miter" stroke-width="0.5"/>
   <polyline fill="none" points="224.922,208.665 224.922,206.219" stroke="#262626" stroke-linecap="butt" stroke-linejoin="miter" stroke-width="0.5"/>
   <polyline fill="none" points="224.922,25 224.922,27.4464" stroke="#262626" stroke-linecap="butt" stroke-linejoin="miter" stroke-width="0.5"/>
   <polyline fill="none" points="286.193,208.665 286.193,206.219" stroke="#262626" stroke-linecap="butt" stroke-linejoin="miter" stroke-width="0.5"/>
   <polyline fill="none" points="286.193,25 286.193,27.4464" stroke="#262626" stroke-linecap="butt" stroke-linejoin="miter" stroke-width="0.5"/>
   <g font-family="FreeSans" font-size="10" font-style="normal" font-weight="normal" transform="translate(38.1106,224.151) rotate(-0,3,-8)" xml:space="preserve">
    <text fill="rgb(38,38,38)" x="0 " y="-0">0</text>
   </g>
   <g font-family="FreeSans" font-size="10" font-style="normal" font-weight="normal" transform="translate(99.3812,224.151) rotate(-0,3,-8)" xml:space="preserve">
    <text fill="rgb(38,38,38)" x="0 " y="-0">1</text>
   </g>
   <g font-family="FreeSans" font-size="10" font-style="normal" font-weight="normal" transform="translate(160.652,224.151) rotate(-0,3,-8)" xml:space="preserve">
    <text fill="rgb(38,38,38)" x="0 " y="-0">2</text>
   </g>
   <g font-family="FreeSans" font-size="10" font-style="normal" font-weight="normal" transform="translate(221.922,224.151) rotate(-0,3,-8)" xml:space="preserve">
    <text fill="rgb(38,38,38)" x="0 " y="-0">3</text>
   </g>
   <g font-family="FreeSans" font-size="10" font-style="normal" font-weight="normal" transform="translate(283.193,224.151) rotate(-0,3,-8)" xml:space="preserve">
    <text fill="rgb(38,38,38)" x="0 " y="-0">4</text>
   </g>
   <polyline fill="none" points="41.1106,208.665 286.193,208.665" stroke="#262626" stroke-dasharray="16,0" stroke-linecap="butt" stroke-linejoin="miter" stroke-opacity="0.15" stroke-width="0.5"/>
   <polyline fill="none" points="41.1106,171.932 286.193,171.932" stroke="#262626" stroke-dasharray="16,0" stroke-linecap="butt" stroke-linejoin="miter" stroke-opacity="0.15" stroke-width="0.5"/>
   <polyline fill="none" points="41.1106,135.199 286.193,135.199" stroke="#262626" stroke-dasharray="16,0" stroke-linecap="butt" stroke-linejoin="miter" stroke-opacity="0.15" stroke-width="0.5"/>
   <polyline fill="none" points="41.1106,98.4659 286.193,98.4659" stroke="#262626" stroke-dasharray="16,0" stroke-linecap="butt" stroke-linejoin="miter" stroke-opacity="0.15" stroke-width="0.5"/>
   <polyline fill="none" points="41.1106,61.733 286.193,61.733" stroke="#262626" stroke-dasharray="16,0" stroke-linecap="butt" stroke-linejoin="miter" stroke-opacity="0.15" stroke-width="0.5"/>
   <polyline fill="none" points="41.1106,25 286.193,25" stroke="#262626" stroke-dasharray="16,0" stroke-linecap="butt" stroke-linejoin="miter" stroke-opacity="0.15" stroke-width="0.5"/>
   <polyline fill="none" points="41.1106,208.665 43.5622,208.665" stroke="#262626" stroke-linecap="butt" stroke-linejoin="miter" stroke-width="0.5"/>
   <polyline fill="none" points="286.193,208.665 283.741,208.665" stroke="#262626" stroke-linecap="butt" stroke-linejoin="miter" stroke-width="0.5"/>
   <polyline fill="none" points="41.1106,171.932 43.5622,171.932" stroke="#262626" stroke-linecap="butt" stroke-linejoin="miter" stroke-width="0.5"/>
   <polyline fill="none" points="286.193,171.932 283.741,171.932" stroke="#262626" stroke-linecap="butt" stroke-linejoin="miter" stroke-width="0.5"/>
   <polyline fill="none" points="41.1106,135.199 43.5622,135.199" stroke="#262626" stroke-linecap="butt" stroke-linejoin="miter" stroke-width="0.5"/>
   <polyline fill="none" points="286.193,135.199 283.741,135.199" stroke="#262626" stroke-linecap="butt" stroke-linejoin="miter" stroke-width="0.5"/>
   <polyline fill="none" points="41.1106,98.4659 43.5622,98.4659" stroke="#262626" stroke-linecap="butt" stroke-linejoin="miter" stroke-width="0.5"/>
   <polyline fill="none" points="286.193,98.4659 283.741,98.4659" stroke="#262626" stroke-linecap="butt" stroke-linejoin="miter" stroke-width="0.5"/>
   <polyline fill="none" points="41.1106,61.733 43.5622,61.733" stroke="#262626" stroke-linecap="butt" stroke-linejoin="miter" stroke-width="0.5"/>
   <polyline fill="none" points="286.193,61.733 283.741,61.733" stroke="#262626" stroke-linecap="butt" stroke-linejoin="miter" stroke-width="0.5"/>
   <polyline fill="none" points="41.1106,25 43.5622,25" stroke="#262626" stroke-linecap="butt" stroke-linejoin="miter" stroke-width="0.5"/>
   <polyline fill="none" points="286.193,25 283.741,25" stroke="#262626" stroke-linecap="butt" stroke-linejoin="miter" stroke-width="0.5"/>
   <g font-family="FreeSans" font-size="10" font-style="normal" font-weight="normal" transform="translate(30.1089,212.665) rotate(-0,6,-4)" xml:space="preserve">
    <text fill="rgb(38,38,38)" x="0 " y="-0">0</text>
   </g>
   <g font-family="FreeSans" font-size="10" font-style="normal" font-weight="normal" transform="translate(21.1089,175.932) rotate(-0,15,-4)" xml:space="preserve">
    <text fill="rgb(38,38,38)" x="0 6 9 " y="-0">0.2</text>
   </g>
   <g font-family="FreeSans" font-size="10" font-style="normal" font-weight="normal" transform="translate(21.1089,139.199) rotate(-0,15,-4)" xml:space="preserve">
    <text fill="rgb(38,38,38)" x="0 6 9 " y="-0">0.4</text>
   </g>
   <g font-family="FreeSans" font-size="10" font-style="normal" font-weight="normal" transform="translate(21.1089,102.466) rotate(-0,15,-4)" xml:space="preserve">
    <text fill="rgb(38,38,38)" x="0 6 9 " y="-0">0.6</text>
   </g>
   <g font-family="FreeSans" font-size="10" font-style="normal" font-weight="normal" transform="translate(21.1089,65.733) rotate(-0,15,-4)" xml:space="preserve">
    <text fill="rgb(38,38,38)" x="0 6 9 " y="-0">0.8</text>
   </g>
   <g font-family="FreeSans" font-size="10" font-style="normal" font-weight="normal" transform="translate(30.1089,29) rotate(-0,6,-4)" xml:space="preserve">
    <text fill="rgb(38,38,38)" x="0 " y="-0">1</text>
   </g>
   <polyline fill="none" points="41.1106,208.665 286.193,208.665" stroke="#262626" stroke-dasharray="16,0" stroke-linecap="square" stroke-linejoin="miter" stroke-width="0.5"/>
   <polyline fill="none" points="41.1106,25 286.193,25" stroke="#262626" stroke-dasharray="16,0" stroke-linecap="square" stroke-linejoin="miter" stroke-width="0.5"/>
   <polyline fill="none" points="41.1106,208.665 41.1106,25" stroke="#262626" stroke-dasharray="16,0" stroke-linecap="square" stroke-linejoin="miter" stroke-width="0.5"/>
   <polyline fill="none" points="286.193,208.665 286.193,25" stroke="#262626" stroke-dasharray="16,0" stroke-linecap="square" stroke-linejoin="miter" stroke-width="0.5"/>
   <g font-family="FreeSans" font-size="11" font-style="normal" font-weight="bold" transform="translate(116.152,15) rotate(-0,47.5,0)" xml:space="preserve">
    <text fill="rgb(0,0,0)" x="0 6 10 14 18 21 27 30 38 42 48 52 56 62 65 69 72 " y="-3">y(t) = G(0)(1 - e</text>
    <text fill="rgb(0,0,0)" font-size="7.7" x="78 81 84 86 " y="-8">-t/T</text>
    <text fill="rgb(0,0,0)" x="91 " y="-3">)</text>
   </g>
   <g font-family="FreeSans" font-size="11" font-style="normal" font-weight="normal" transform="translate(8.10891,116.832) rotate(-90,8,0)" xml:space="preserve">
    <text fill="rgb(38,38,38)" x="0 5 9 12 " y="-3">y(t)</text>
   </g>
   <g font-family="FreeSans" font-size="11" font-style="normal" font-weight="normal" transform="translate(162.152,237.151) rotate(-0,1.5,-8)" xml:space="preserve">
    <text fill="rgb(38,38,38)" x="0 " y="-0">t</text>
   </g>
   <polyline fill="none" points="41.1106,208.665 42.9673,203.183 44.824,197.864 46.6806,192.705 48.5373,187.699 50.394,182.842 52.2507,178.131 54.1074,173.56 55.9641,169.126 57.8207,164.824 59.6774,160.651 61.5341,156.602 63.3908,152.674 65.2475,148.863 67.1042,145.166 68.9609,141.579 70.8175,138.099 72.6742,134.723 74.5309,131.448 76.3876,128.271 78.2443,125.188 80.101,122.198 81.9576,119.297 83.8143,116.482 85.671,113.751 87.5277,111.102 89.3844,108.532 91.2411,106.039 93.0978,103.62 94.9544,101.273 96.8111,98.9968 98.6678,96.7881 100.524,94.6453 102.381,92.5665 104.238,90.5498 106.095,88.5932 107.951,86.695 109.808,84.8535 111.665,83.067 113.521,81.3338 115.378,79.6523 117.235,78.021 119.091,76.4384 120.948,74.9031 122.805,73.4135 124.661,71.9685 126.518,70.5665 128.375,69.2064 130.231,67.8869 132.088,66.6068 133.945,65.3649 135.801,64.1601 137.658,62.9912 139.515,61.8573 141.372,60.7571 143.228,59.6898 145.085,58.6544 146.942,57.6498 148.798,56.6753 150.655,55.7298 152.512,54.8126 154.368,53.9227 156.225,53.0594 158.082,52.2219 159.938,51.4094 161.795,50.6211 163.652,49.8563 165.508,49.1144 167.365,48.3946 169.222,47.6964 171.078,47.0189 172.935,46.3617 174.792,45.7241 176.649,45.1055 178.505,44.5053 180.362,43.9232 182.219,43.3583 184.075,42.8103 185.932,42.2787 187.789,41.763 189.645,41.2626 191.502,40.7772 193.359,40.3063 195.215,39.8494 197.072,39.4062 198.929,38.9762 200.785,38.559 202.642,38.1543 204.499,37.7617 206.356,37.3808 208.212,37.0112 210.069,36.6527 211.926,36.3049 213.782,35.9675 215.639,35.6401 217.496,35.3225 219.352,35.0144 221.209,34.7155 223.066,34.4255 224.922,34.1441" stroke="#ff0000" stroke-linecap="butt" stroke-linejoin="round" stroke-width="2"/>
   <polyline fill="none" points="41.1106,25 224.922,25" stroke="#000000" stroke-dasharray="9,7" stroke-linecap="butt" stroke-linejoin="round" stroke-width="0.5"/>
   <polygon fill="#ffffff" points="105.381,92.5665 104.808,94.3299 103.308,95.4197 101.454,95.4197 99.9541,94.3299 99.3812,92.5665 99.9541,90.8032 101.454,89.7133 103.308,89.7133 104.808,90.8032" shape-rendering="crispEdges"/>
   <polyline fill="none" points="105.381,92.5665 104.808,94.3299 103.308,95.4197 101.454,95.4197 99.9541,94.3299 99.3812,92.5665 99.9541,90.8032 101.454,89.7133 103.308,89.7133 104.808,90.8032 105.381,92.5665" stroke="#ff0000" stroke-linecap="round" stroke-linejoin="round" stroke-width="0.5"/>
   <g font-family="FreeSans" font-size="12" font-style="normal" font-weight="normal" transform="translate(108.508,99.0665) rotate(-0,-0,-6.5)" xml:space="preserve">
    <text fill="rgb(0,0,0)" x="0 4 " y="-3">(T</text>
    <text fill="rgb(0,0,0)" font-size="8.4" x="12 " y="-1">i</text>
    <text fill="rgb(0,0,0)" x="14 17 20 27 30 37 44 " y="-3">, 0.63)</text>
   </g>
   <polyline fill="none" points="41.1106,208.665 43.5862,201.392 46.0617,194.407 48.5373,187.699 51.0129,181.256 53.4885,175.069 55.9641,169.126 58.4396,163.419 60.9152,157.938 63.3908,152.674 65.8664,147.618 68.342,142.762 70.8175,138.099 73.2931,133.62 75.7687,129.319 78.2443,125.188 80.7199,121.221 83.1954,117.411 85.671,113.751 88.1466,110.237 90.6222,106.862 93.0978,103.62 95.5733,100.507 98.0489,97.5169 100.524,94.6453 103,91.8875 105.476,89.2388 107.951,86.695 110.427,84.252 112.902,81.9057 115.378,79.6523 117.854,77.4882 120.329,75.4097 122.805,73.4135 125.28,71.4964 127.756,69.6552 130.231,67.8869 132.707,66.1887 135.183,64.5577 137.658,62.9912 140.134,61.4868 142.609,60.042 145.085,58.6544 147.561,57.3217 150.036,56.0418 152.512,54.8126 154.987,53.632 157.463,52.4983 159.938,51.4094 162.414,50.3636 164.89,49.3592 167.365,48.3946 169.841,47.4682 172.316,46.5785 174.792,45.7241 177.267,44.9034 179.743,44.1152 182.219,43.3583 184.694,42.6313 187.17,41.9332 189.645,41.2626 192.121,40.6187 194.596,40.0002 197.072,39.4062 199.548,38.8357 202.023,38.2879 204.499,37.7617 206.974,37.2563 209.45,36.771 211.926,36.3049 214.401,35.8572 216.877,35.4273 219.352,35.0144 221.828,34.6178 224.303,34.237 226.779,33.8712 229.255,33.5199 231.73,33.1825 234.206,32.8585 236.681,32.5473 239.157,32.2485 241.633,31.9614 244.108,31.6858 246.584,31.421 249.059,31.1667 251.535,30.9226 254.01,30.688 256.486,30.4628 258.962,30.2465 261.437,30.0387 263.913,29.8392 266.388,29.6476 268.864,29.4635 271.339,29.2868 273.815,29.117 276.291,28.954 278.766,28.7974 281.242,28.6471 283.717,28.5026 286.193,28.364" stroke="#ff0000" stroke-linecap="butt" stroke-linejoin="round" stroke-width="2"/>
   <polyline fill="none" points="41.1106,25 224.922,25" stroke="#000000" stroke-dasharray="9,7" stroke-linecap="butt" stroke-linejoin="round" stroke-width="0.5"/>
   <polygon fill="#ffffff" points="105.381,92.5665 104.808,94.3299 103.308,95.4197 101.454,95.4197 99.9541,94.3299 99.3812,92.5665 99.9541,90.8032 101.454,89.7133 103.308,89.7133 104.808,90.8032" shape-rendering="crispEdges"/>
   <polyline fill="none" points="105.381,92.5665 104.808,94.3299 103.308,95.4197 101.454,95.4197 99.9541,94.3299 99.3812,92.5665 99.9541,90.8032 101.454,89.7133 103.308,89.7133 104.808,90.8032 105.381,92.5665" stroke="#ff0000" stroke-linecap="round" stroke-linejoin="round" stroke-width="0.5"/>
   <g font-family="FreeSans" font-size="12" font-style="normal" font-weight="normal" transform="translate(108.508,99.0665) rotate(-0,-0,-6.5)" xml:space="preserve">
    <text fill="rgb(0,0,0)" x="0 4 " y="-3">(T</text>
    <text fill="rgb(0,0,0)" font-size="8.4" x="12 " y="-1">i</text>
    <text fill="rgb(0,0,0)" x="14 17 20 27 30 37 44 " y="-3">, 0.63)</text>
   </g>
   <polyline fill="none" points="41.1106,208.665 42.9673,203.183 44.824,197.864 46.6806,192.705 48.5373,187.699 50.394,182.842 52.2507,178.131 54.1074,173.56 55.9641,169.126 57.8207,164.824 59.6774,160.651 61.5341,156.602 63.3908,152.674 65.2475,148.863 67.1042,145.166 68.9609,141.579 70.8175,138.099 72.6742,134.723 74.5309,131.448 76.3876,128.271 78.2443,125.188 80.101,122.198 81.9576,119.297 83.8143,116.482 85.671,113.751 87.5277,111.102 89.3844,108.532 91.2411,106.039 93.0978,103.62 94.9544,101.273 96.8111,98.9968 98.6678,96.7881 100.524,94.6453 102.381,92.5665 104.238,90.5498 106.095,88.5932 107.951,86.695 109.808,84.8535 111.665,83.067 113.521,81.3338 115.378,79.6523 117.235,78.021 119.091,76.4384 120.948,74.9031 122.805,73.4135 124.661,71.9685 126.518,70.5665 128.375,69.2064 130.231,67.8869 132.088,66.6068 133.945,65.3649 135.801,64.1601 137.658,62.9912 139.515,61.8573 141.372,60.7571 143.228,59.6898 145.085,58.6544 146.942,57.6498 148.798,56.6753 150.655,55.7298 152.512,54.8126 154.368,53.9227 156.225,53.0594 158.082,52.2219 159.938,51.4094 161.795,50.6211 163.652,49.8563 165.508,49.1144 167.365,48.3946 169.222,47.6964 171.078,47.0189 172.935,46.3617 174.792,45.7241 176.649,45.1055 178.505,44.5053 180.362,43.9232 182.219,43.3583 184.075,42.8103 185.932,42.2787 187.789,41.763 189.645,41.2626 191.502,40.7772 193.359,40.3063 195.215,39.8494 197.072,39.4062 198.929,38.9762 200.785,38.559 202.642,38.1543 204.499,37.7617 206.356,37.3808 208.212,37.0112 210.069,36.6527 211.926,36.3049 213.782,35.9675 215.639,35.6401 217.496,35.3225 219.352,35.0144 221.209,34.7155 223.066,34.4255 224.922,34.1441" stroke="#ff0000" stroke-linecap="butt" stroke-linejoin="round" stroke-width="2"/>
   <polyline fill="none" points="41.1106,25 224.922,25" stroke="#000000" stroke-dasharray="9,7" stroke-linecap="butt" stroke-linejoin="round" stroke-width="0.5"/>
   <polygon fill="#ffffff" points="105.381,92.5665 104.808,94.3299 103.308,95.4197 101.454,95.4197 99.9541,94.3299 99.3812,92.5665 99.9541,90.8032 101.454,89.7133 103.308,89.7133 104.808,90.8032" shape-rendering="crispEdges"/>
   <polyline fill="none" points="105.381,92.5665 104.808,94.3299 103.308,95.4197 101.454,95.4197 99.9541,94.3299 99.3812,92.5665 99.9541,90.8032 101.454,89.7133 103.308,89.7133 104.808,90.8032 105.381,92.5665" stroke="#ff0000" stroke-linecap="round" stroke-linejoin="round" stroke-width="0.5"/>
   <g font-family="FreeSans" font-size="12" font-style="normal" font-weight="normal" transform="translate(108.508,99.0665) rotate(-0,-0,-6.5)" xml:space="preserve">
    <text fill="rgb(0,0,0)" x="0 4 " y="-3">(T</text>
    <text fill="rgb(0,0,0)" font-size="8.4" x="12 " y="-1">i</text>
    <text fill="rgb(0,0,0)" x="14 17 20 27 30 37 44 " y="-3">, 0.63)</text>
   </g>
   <polyline fill="none" points="41.1106,208.665 43.5862,201.392 46.0617,194.407 48.5373,187.699 51.0129,181.256 53.4885,175.069 55.9641,169.126 58.4396,163.419 60.9152,157.938 63.3908,152.674 65.8664,147.618 68.342,142.762 70.8175,138.099 73.2931,133.62 75.7687,129.319 78.2443,125.188 80.7199,121.221 83.1954,117.411 85.671,113.751 88.1466,110.237 90.6222,106.862 93.0978,103.62 95.5733,100.507 98.0489,97.5169 100.524,94.6453 103,91.8875 105.476,89.2388 107.951,86.695 110.427,84.252 112.902,81.9057 115.378,79.6523 117.854,77.4882 120.329,75.4097 122.805,73.4135 125.28,71.4964 127.756,69.6552 130.231,67.8869 132.707,66.1887 135.183,64.5577 137.658,62.9912 140.134,61.4868 142.609,60.042 145.085,58.6544 147.561,57.3217 150.036,56.0418 152.512,54.8126 154.987,53.632 157.463,52.4983 159.938,51.4094 162.414,50.3636 164.89,49.3592 167.365,48.3946 169.841,47.4682 172.316,46.5785 174.792,45.7241 177.267,44.9034 179.743,44.1152 182.219,43.3583 184.694,42.6313 187.17,41.9332 189.645,41.2626 192.121,40.6187 194.596,40.0002 197.072,39.4062 199.548,38.8357 202.023,38.2879 204.499,37.7617 206.974,37.2563 209.45,36.771 211.926,36.3049 214.401,35.8572 216.877,35.4273 219.352,35.0144 221.828,34.6178 224.303,34.237 226.779,33.8712 229.255,33.5199 231.73,33.1825 234.206,32.8585 236.681,32.5473 239.157,32.2485 241.633,31.9614 244.108,31.6858 246.584,31.421 249.059,31.1667 251.535,30.9226 254.01,30.688 256.486,30.4628 258.962,30.2465 261.437,30.0387 263.913,29.8392 266.388,29.6476 268.864,29.4635 271.339,29.2868 273.815,29.117 276.291,28.954 278.766,28.7974 281.242,28.6471 283.717,28.5026 286.193,28.364" stroke="#ff0000" stroke-linecap="butt" stroke-linejoin="round" stroke-width="2"/>
   <polyline fill="none" points="41.1106,25 224.922,25" stroke="#000000" stroke-dasharray="9,7" stroke-linecap="butt" stroke-linejoin="round" stroke-width="0.5"/>
   <polygon fill="#ffffff" points="105.381,92.5665 104.808,94.3299 103.308,95.4197 101.454,95.4197 99.9541,94.3299 99.3812,92.5665 99.9541,90.8032 101.454,89.7133 103.308,89.7133 104.808,90.8032" shape-rendering="crispEdges"/>
   <polyline fill="none" points="105.381,92.5665 104.808,94.3299 103.308,95.4197 101.454,95.4197 99.9541,94.3299 99.3812,92.5665 99.9541,90.8032 101.454,89.7133 103.308,89.7133 104.808,90.8032 105.381,92.5665" stroke="#ff0000" stroke-linecap="round" stroke-linejoin="round" stroke-width="0.5"/>
   <g font-family="FreeSans" font-size="12" font-style="normal" font-weight="normal" transform="translate(108.508,99.0665) rotate(-0,-0,-6.5)" xml:space="preserve">
    <text fill="rgb(0,0,0)" x="0 4 " y="-3">(T</text>
    <text fill="rgb(0,0,0)" font-size="8.4" x="12 " y="-1">i</text>
    <text fill="rgb(0,0,0)" x="14 17 20 27 30 37 44 " y="-3">, 0.63)</text>
   </g>
   <polyline fill="none" points="41.1106,208.665 43.5862,201.392 46.0617,194.407 48.5373,187.699 51.0129,181.256 53.4885,175.069 55.9641,169.126 58.4396,163.419 60.9152,157.938 63.3908,152.674 65.8664,147.618 68.342,142.762 70.8175,138.099 73.2931,133.62 75.7687,129.319 78.2443,125.188 80.7199,121.221 83.1954,117.411 85.671,113.751 88.1466,110.237 90.6222,106.862 93.0978,103.62 95.5733,100.507 98.0489,97.5169 100.524,94.6453 103,91.8875 105.476,89.2388 107.951,86.695 110.427,84.252 112.902,81.9057 115.378,79.6523 117.854,77.4882 120.329,75.4097 122.805,73.4135 125.28,71.4964 127.756,69.6552 130.231,67.8869 132.707,66.1887 135.183,64.5577 137.658,62.9912 140.134,61.4868 142.609,60.042 145.085,58.6544 147.561,57.3217 150.036,56.0418 152.512,54.8126 154.987,53.632 157.463,52.4983 159.938,51.4094 162.414,50.3636 164.89,49.3592 167.365,48.3946 169.841,47.4682 172.316,46.5785 174.792,45.7241 177.267,44.9034 179.743,44.1152 182.219,43.3583 184.694,42.6313 187.17,41.9332 189.645,41.2626 192.121,40.6187 194.596,40.0002 197.072,39.4062 199.548,38.8357 202.023,38.2879 204.499,37.7617 206.974,37.2563 209.45,36.771 211.926,36.3049 214.401,35.8572 216.877,35.4273 219.352,35.0144 221.828,34.6178 224.303,34.237 226.779,33.8712 229.255,33.5199 231.73,33.1825 234.206,32.8585 236.681,32.5473 239.157,32.2485 241.633,31.9614 244.108,31.6858 246.584,31.421 249.059,31.1667 251.535,30.9226 254.01,30.688 256.486,30.4628 258.962,30.2465 261.437,30.0387 263.913,29.8392 266.388,29.6476 268.864,29.4635 271.339,29.2868 273.815,29.117 276.291,28.954 278.766,28.7974 281.242,28.6471 283.717,28.5026 286.193,28.364" stroke="#ff0000" stroke-linecap="butt" stroke-linejoin="round" stroke-width="2"/>
   <polyline fill="none" points="41.1106,25 224.922,25" stroke="#000000" stroke-dasharray="9,7" stroke-linecap="butt" stroke-linejoin="round" stroke-width="0.5"/>
   <polygon fill="#ffffff" points="105.381,92.5665 104.808,94.3299 103.308,95.4197 101.454,95.4197 99.9541,94.3299 99.3812,92.5665 99.9541,90.8032 101.454,89.7133 103.308,89.7133 104.808,90.8032" shape-rendering="crispEdges"/>
   <polyline fill="none" points="105.381,92.5665 104.808,94.3299 103.308,95.4197 101.454,95.4197 99.9541,94.3299 99.3812,92.5665 99.9541,90.8032 101.454,89.7133 103.308,89.7133 104.808,90.8032 105.381,92.5665" stroke="#ff0000" stroke-linecap="round" stroke-linejoin="round" stroke-width="0.5"/>
   <g font-family="FreeSans" font-size="12" font-style="normal" font-weight="normal" transform="translate(108.508,99.0665) rotate(-0,-0,-6.5)" xml:space="preserve">
    <text fill="rgb(0,0,0)" x="0 4 " y="-3">(T</text>
    <text fill="rgb(0,0,0)" font-size="8.4" x="12 " y="-1">i</text>
    <text fill="rgb(0,0,0)" x="14 17 20 27 30 37 44 " y="-3">, 0.63)</text>
   </g>
   <polyline fill="none" points="41.1106,208.665 43.5862,201.392 46.0617,194.407 48.5373,187.699 51.0129,181.256 53.4885,175.069 55.9641,169.126 58.4396,163.419 60.9152,157.938 63.3908,152.674 65.8664,147.618 68.342,142.762 70.8175,138.099 73.2931,133.62 75.7687,129.319 78.2443,125.188 80.7199,121.221 83.1954,117.411 85.671,113.751 88.1466,110.237 90.6222,106.862 93.0978,103.62 95.5733,100.507 98.0489,97.5169 100.524,94.6453 103,91.8875 105.476,89.2388 107.951,86.695 110.427,84.252 112.902,81.9057 115.378,79.6523 117.854,77.4882 120.329,75.4097 122.805,73.4135 125.28,71.4964 127.756,69.6552 130.231,67.8869 132.707,66.1887 135.183,64.5577 137.658,62.9912 140.134,61.4868 142.609,60.042 145.085,58.6544 147.561,57.3217 150.036,56.0418 152.512,54.8126 154.987,53.632 157.463,52.4983 159.938,51.4094 162.414,50.3636 164.89,49.3592 167.365,48.3946 169.841,47.4682 172.316,46.5785 174.792,45.7241 177.267,44.9034 179.743,44.1152 182.219,43.3583 184.694,42.6313 187.17,41.9332 189.645,41.2626 192.121,40.6187 194.596,40.0002 197.072,39.4062 199.548,38.8357 202.023,38.2879 204.499,37.7617 206.974,37.2563 209.45,36.771 211.926,36.3049 214.401,35.8572 216.877,35.4273 219.352,35.0144 221.828,34.6178 224.303,34.237 226.779,33.8712 229.255,33.5199 231.73,33.1825 234.206,32.8585 236.681,32.5473 239.157,32.2485 241.633,31.9614 244.108,31.6858 246.584,31.421 249.059,31.1667 251.535,30.9226 254.01,30.688 256.486,30.4628 258.962,30.2465 261.437,30.0387 263.913,29.8392 266.388,29.6476 268.864,29.4635 271.339,29.2868 273.815,29.117 276.291,28.954 278.766,28.7974 281.242,28.6471 283.717,28.5026 286.193,28.364" stroke="#ff0000" stroke-linecap="butt" stroke-linejoin="round" stroke-width="2"/>
   <polyline fill="none" points="41.1106,25 224.922,25" stroke="#000000" stroke-dasharray="9,7" stroke-linecap="butt" stroke-linejoin="round" stroke-width="0.5"/>
   <polygon fill="#ffffff" points="105.381,92.5665 104.808,94.3299 103.308,95.4197 101.454,95.4197 99.9541,94.3299 99.3812,92.5665 99.9541,90.8032 101.454,89.7133 103.308,89.7133 104.808,90.8032" shape-rendering="crispEdges"/>
   <polyline fill="none" points="105.381,92.5665 104.808,94.3299 103.308,95.4197 101.454,95.4197 99.9541,94.3299 99.3812,92.5665 99.9541,90.8032 101.454,89.7133 103.308,89.7133 104.808,90.8032 105.381,92.5665" stroke="#ff0000" stroke-linecap="round" stroke-linejoin="round" stroke-width="0.5"/>
   <g font-family="FreeSans" font-size="12" font-style="normal" font-weight="normal" transform="translate(108.508,99.0665) rotate(-0,-0,-6.5)" xml:space="preserve">
    <text fill="rgb(0,0,0)" x="0 4 " y="-3">(T</text>
    <text fill="rgb(0,0,0)" font-size="8.4" x="12 " y="-1">i</text>
    <text fill="rgb(0,0,0)" x="14 17 20 27 30 37 44 " y="-3">, 0.63)</text>
   </g>
   <polyline fill="none" points="41.1106,208.665 43.5862,201.392 46.0617,194.407 48.5373,187.699 51.0129,181.256 53.4885,175.069 55.9641,169.126 58.4396,163.419 60.9152,157.938 63.3908,152.674 65.8664,147.618 68.342,142.762 70.8175,138.099 73.2931,133.62 75.7687,129.319 78.2443,125.188 80.7199,121.221 83.1954,117.411 85.671,113.751 88.1466,110.237 90.6222,106.862 93.0978,103.62 95.5733,100.507 98.0489,97.5169 100.524,94.6453 103,91.8875 105.476,89.2388 107.951,86.695 110.427,84.252 112.902,81.9057 115.378,79.6523 117.854,77.4882 120.329,75.4097 122.805,73.4135 125.28,71.4964 127.756,69.6552 130.231,67.8869 132.707,66.1887 135.183,64.5577 137.658,62.9912 140.134,61.4868 142.609,60.042 145.085,58.6544 147.561,57.3217 150.036,56.0418 152.512,54.8126 154.987,53.632 157.463,52.4983 159.938,51.4094 162.414,50.3636 164.89,49.3592 167.365,48.3946 169.841,47.4682 172.316,46.5785 174.792,45.7241 177.267,44.9034 179.743,44.1152 182.219,43.3583 184.694,42.6313 187.17,41.9332 189.645,41.2626 192.121,40.6187 194.596,40.0002 197.072,39.4062 199.548,38.8357 202.023,38.2879 204.499,37.7617 206.974,37.2563 209.45,36.771 211.926,36.3049 214.401,35.8572 216.877,35.4273 219.352,35.0144 221.828,34.6178 224.303,34.237 226.779,33.8712 229.255,33.5199 231.73,33.1825 234.206,32.8585 236.681,32.5473 239.157,32.2485 241.633,31.9614 244.108,31.6858 246.584,31.421 249.059,31.1667 251.535,30.9226 254.01,30.688 256.486,30.4628 258.962,30.2465 261.437,30.0387 263.913,29.8392 266.388,29.6476 268.864,29.4635 271.339,29.2868 273.815,29.117 276.291,28.954 278.766,28.7974 281.242,28.6471 283.717,28.5026 286.193,28.364" stroke="#ff0000" stroke-linecap="butt" stroke-linejoin="round" stroke-width="2"/>
   <polyline fill="none" points="41.1106,25 224.922,25" stroke="#000000" stroke-dasharray="9,7" stroke-linecap="butt" stroke-linejoin="round" stroke-width="0.5"/>
   <polygon fill="#ffffff" points="105.381,92.5665 104.808,94.3299 103.308,95.4197 101.454,95.4197 99.9541,94.3299 99.3812,92.5665 99.9541,90.8032 101.454,89.7133 103.308,89.7133 104.808,90.8032" shape-rendering="crispEdges"/>
   <polyline fill="none" points="105.381,92.5665 104.808,94.3299 103.308,95.4197 101.454,95.4197 99.9541,94.3299 99.3812,92.5665 99.9541,90.8032 101.454,89.7133 103.308,89.7133 104.808,90.8032 105.381,92.5665" stroke="#ff0000" stroke-linecap="round" stroke-linejoin="round" stroke-width="0.5"/>
   <g font-family="FreeSans" font-size="12" font-style="normal" font-weight="normal" transform="translate(108.508,99.0665) rotate(-0,-0,-6.5)" xml:space="preserve">
    <text fill="rgb(0,0,0)" x="0 4 " y="-3">(T</text>
    <text fill="rgb(0,0,0)" font-size="8.4" x="12 " y="-1">i</text>
    <text fill="rgb(0,0,0)" x="14 17 20 27 30 37 44 " y="-3">, 0.63)</text>
   </g>
   <polyline fill="none" points="41.1106,208.665 43.5862,201.392 46.0617,194.407 48.5373,187.699 51.0129,181.256 53.4885,175.069 55.9641,169.126 58.4396,163.419 60.9152,157.938 63.3908,152.674 65.8664,147.618 68.342,142.762 70.8175,138.099 73.2931,133.62 75.7687,129.319 78.2443,125.188 80.7199,121.221 83.1954,117.411 85.671,113.751 88.1466,110.237 90.6222,106.862 93.0978,103.62 95.5733,100.507 98.0489,97.5169 100.524,94.6453 103,91.8875 105.476,89.2388 107.951,86.695 110.427,84.252 112.902,81.9057 115.378,79.6523 117.854,77.4882 120.329,75.4097 122.805,73.4135 125.28,71.4964 127.756,69.6552 130.231,67.8869 132.707,66.1887 135.183,64.5577 137.658,62.9912 140.134,61.4868 142.609,60.042 145.085,58.6544 147.561,57.3217 150.036,56.0418 152.512,54.8126 154.987,53.632 157.463,52.4983 159.938,51.4094 162.414,50.3636 164.89,49.3592 167.365,48.3946 169.841,47.4682 172.316,46.5785 174.792,45.7241 177.267,44.9034 179.743,44.1152 182.219,43.3583 184.694,42.6313 187.17,41.9332 189.645,41.2626 192.121,40.6187 194.596,40.0002 197.072,39.4062 199.548,38.8357 202.023,38.2879 204.499,37.7617 206.974,37.2563 209.45,36.771 211.926,36.3049 214.401,35.8572 216.877,35.4273 219.352,35.0144 221.828,34.6178 224.303,34.237 226.779,33.8712 229.255,33.5199 231.73,33.1825 234.206,32.8585 236.681,32.5473 239.157,32.2485 241.633,31.9614 244.108,31.6858 246.584,31.421 249.059,31.1667 251.535,30.9226 254.01,30.688 256.486,30.4628 258.962,30.2465 261.437,30.0387 263.913,29.8392 266.388,29.6476 268.864,29.4635 271.339,29.2868 273.815,29.117 276.291,28.954 278.766,28.7974 281.242,28.6471 283.717,28.5026 286.193,28.364" stroke="#ff0000" stroke-linecap="butt" stroke-linejoin="round" stroke-width="2"/>
   <polygon fill="#ffffff" points="105.381,92.5665 104.808,94.3299 103.308,95.4197 101.454,95.4197 99.9541,94.3299 99.3812,92.5665 99.9541,90.8032 101.454,89.7133 103.308,89.7133 104.808,90.8032" shape-rendering="crispEdges"/>
   <polyline fill="none" points="105.381,92.5665 104.808,94.3299 103.308,95.4197 101.454,95.4197 99.9541,94.3299 99.3812,92.5665 99.9541,90.8032 101.454,89.7133 103.308,89.7133 104.808,90.8032 105.381,92.5665" stroke="#ff0000" stroke-linecap="round" stroke-linejoin="round" stroke-width="0.5"/>
   <g font-family="FreeSans" font-size="12" font-style="normal" font-weight="normal" transform="translate(108.508,99.0665) rotate(-0,-0,-6.5)" xml:space="preserve">
    <text fill="rgb(0,0,0)" x="0 4 " y="-3">(T</text>
    <text fill="rgb(0,0,0)" font-size="8.4" x="12 " y="-1">i</text>
    <text fill="rgb(0,0,0)" x="14 17 20 27 30 37 44 " y="-3">, 0.63)</text>
   </g>
   <polyline fill="none" points="41.1106,208.665 43.5862,201.392 46.0617,194.407 48.5373,187.699 51.0129,181.256 53.4885,175.069 55.9641,169.126 58.4396,163.419 60.9152,157.938 63.3908,152.674 65.8664,147.618 68.342,142.762 70.8175,138.099 73.2931,133.62 75.7687,129.319 78.2443,125.188 80.7199,121.221 83.1954,117.411 85.671,113.751 88.1466,110.237 90.6222,106.862 93.0978,103.62 95.5733,100.507 98.0489,97.5169 100.524,94.6453 103,91.8875 105.476,89.2388 107.951,86.695 110.427,84.252 112.902,81.9057 115.378,79.6523 117.854,77.4882 120.329,75.4097 122.805,73.4135 125.28,71.4964 127.756,69.6552 130.231,67.8869 132.707,66.1887 135.183,64.5577 137.658,62.9912 140.134,61.4868 142.609,60.042 145.085,58.6544 147.561,57.3217 150.036,56.0418 152.512,54.8126 154.987,53.632 157.463,52.4983 159.938,51.4094 162.414,50.3636 164.89,49.3592 167.365,48.3946 169.841,47.4682 172.316,46.5785 174.792,45.7241 177.267,44.9034 179.743,44.1152 182.219,43.3583 184.694,42.6313 187.17,41.9332 189.645,41.2626 192.121,40.6187 194.596,40.0002 197.072,39.4062 199.548,38.8357 202.023,38.2879 204.499,37.7617 206.974,37.2563 209.45,36.771 211.926,36.3049 214.401,35.8572 216.877,35.4273 219.352,35.0144 221.828,34.6178 224.303,34.237 226.779,33.8712 229.255,33.5199 231.73,33.1825 234.206,32.8585 236.681,32.5473 239.157,32.2485 241.633,31.9614 244.108,31.6858 246.584,31.421 249.059,31.1667 251.535,30.9226 254.01,30.688 256.486,30.4628 258.962,30.2465 261.437,30.0387 263.913,29.8392 266.388,29.6476 268.864,29.4635 271.339,29.2868 273.815,29.117 276.291,28.954 278.766,28.7974 281.242,28.6471 283.717,28.5026 286.193,28.364" stroke="#ff0000" stroke-linecap="butt" stroke-linejoin="round" stroke-width="2"/>
  </g>
 </g>
</svg>
