<?xml version='1.0' encoding='UTF-8' standalone='no'?>
<svg height="314pt" viewBox="0 0 418 314" width="418pt" xmlns="http://www.w3.org/2000/svg" xmlns:xlink="http://www.w3.org/1999/xlink">
 <title>Figure 1</title>
 <desc>
Creator: GL2PS 1.4.2, (C) 1999-2020 C. Geuzaine
For: Octave
CreationDate: Mon Apr 14 11:48:48 2025
</desc>
 <defs/>
 <polygon fill="#ffffff" points="0,0 418,0 418,314 0,314"/>
 <g>
  <polygon fill="#ffffff" points="0,314 418,314 418,0 0,0" shape-rendering="crispEdges"/>
  <clipPath id="cp00418314">
   <polygon points="0,314 418,314 418,0 0,0"/>
  </clipPath>
  <g clip-path="url(#cp00418314)">
   <polygon fill="#ffffff" points="54.4343,23.5533 54.4343,279.499 378.946,279.499 378.946,23.5533" shape-rendering="crispEdges"/>
   <polyline fill="none" points="54.4343,279.499 54.4343,276.255" stroke="#262626" stroke-linecap="butt" stroke-linejoin="miter" stroke-width="0.5"/>
   <polyline fill="none" points="108.52,279.499 108.52,276.255" stroke="#262626" stroke-linecap="butt" stroke-linejoin="miter" stroke-width="0.5"/>
   <polyline fill="none" points="162.605,279.499 162.605,276.255" stroke="#262626" stroke-linecap="butt" stroke-linejoin="miter" stroke-width="0.5"/>
   <polyline fill="none" points="216.69,279.499 216.69,276.255" stroke="#262626" stroke-linecap="butt" stroke-linejoin="miter" stroke-width="0.5"/>
   <polyline fill="none" points="270.776,279.499 270.776,276.255" stroke="#262626" stroke-linecap="butt" stroke-linejoin="miter" stroke-width="0.5"/>
   <polyline fill="none" points="324.861,279.499 324.861,276.255" stroke="#262626" stroke-linecap="butt" stroke-linejoin="miter" stroke-width="0.5"/>
   <polyline fill="none" points="378.946,279.499 378.946,276.255" stroke="#262626" stroke-linecap="butt" stroke-linejoin="miter" stroke-width="0.5"/>
   <g font-family="FreeSans" font-size="10" font-style="normal" font-weight="normal" transform="translate(45.4343,296.998) rotate(-0,9,-10)" xml:space="preserve">
    <text fill="rgb(38,38,38)" x="0 6 " y="-0">10</text>
    <text fill="rgb(38,38,38)" font-size="7" x="12 14 " y="-4">-3</text>
   </g>
   <g font-family="FreeSans" font-size="10" font-style="normal" font-weight="normal" transform="translate(99.5196,296.998) rotate(-0,9,-10)" xml:space="preserve">
    <text fill="rgb(38,38,38)" x="0 6 " y="-0">10</text>
    <text fill="rgb(38,38,38)" font-size="7" x="12 14 " y="-4">-2</text>
   </g>
   <g font-family="FreeSans" font-size="10" font-style="normal" font-weight="normal" transform="translate(153.605,296.998) rotate(-0,9,-10)" xml:space="preserve">
    <text fill="rgb(38,38,38)" x="0 6 " y="-0">10</text>
    <text fill="rgb(38,38,38)" font-size="7" x="12 14 " y="-4">-1</text>
   </g>
   <g font-family="FreeSans" font-size="10" font-style="normal" font-weight="normal" transform="translate(208.69,296.998) rotate(-0,8,-10)" xml:space="preserve">
    <text fill="rgb(38,38,38)" x="0 6 " y="-0">10</text>
    <text fill="rgb(38,38,38)" font-size="7" x="12 " y="-4">0</text>
   </g>
   <g font-family="FreeSans" font-size="10" font-style="normal" font-weight="normal" transform="translate(262.776,296.998) rotate(-0,8,-10)" xml:space="preserve">
    <text fill="rgb(38,38,38)" x="0 6 " y="-0">10</text>
    <text fill="rgb(38,38,38)" font-size="7" x="12 " y="-4">1</text>
   </g>
   <g font-family="FreeSans" font-size="10" font-style="normal" font-weight="normal" transform="translate(316.861,296.998) rotate(-0,8,-10)" xml:space="preserve">
    <text fill="rgb(38,38,38)" x="0 6 " y="-0">10</text>
    <text fill="rgb(38,38,38)" font-size="7" x="12 " y="-4">2</text>
   </g>
   <g font-family="FreeSans" font-size="10" font-style="normal" font-weight="normal" transform="translate(370.946,296.998) rotate(-0,8,-10)" xml:space="preserve">
    <text fill="rgb(38,38,38)" x="0 6 " y="-0">10</text>
    <text fill="rgb(38,38,38)" font-size="7" x="12 " y="-4">3</text>
   </g>
   <polyline fill="none" points="54.4343,235.558 57.6745,235.558" stroke="#262626" stroke-linecap="butt" stroke-linejoin="miter" stroke-width="0.5"/>
   <polyline fill="none" points="54.4343,155.15 57.6745,155.15" stroke="#262626" stroke-linecap="butt" stroke-linejoin="miter" stroke-width="0.5"/>
   <polyline fill="none" points="54.4343,74.7425 57.6745,74.7425" stroke="#262626" stroke-linecap="butt" stroke-linejoin="miter" stroke-width="0.5"/>
   <g font-family="FreeSans" font-size="10" font-style="normal" font-weight="normal" transform="translate(31.4418,240.058) rotate(-0,18,-4.5)" xml:space="preserve">
    <text fill="rgb(38,38,38)" x="0 " y="-0">-</text>
    <text fill="rgb(38,38,38)" x="3 " y="-0">π</text>
    <text fill="rgb(38,38,38)" x="9 12 " y="-0">/2</text>
   </g>
   <g font-family="FreeSans" font-size="10" font-style="normal" font-weight="normal" transform="translate(31.4418,159.65) rotate(-0,18,-4.5)" xml:space="preserve">
    <text fill="rgb(38,38,38)" x="0 " y="-0">-</text>
    <text fill="rgb(38,38,38)" x="3 " y="-0">π</text>
    <text fill="rgb(38,38,38)" x="9 12 " y="-0">/4</text>
   </g>
   <g font-family="FreeSans" font-size="10" font-style="normal" font-weight="normal" transform="translate(43.4418,78.7425) rotate(-0,6,-4)" xml:space="preserve">
    <text fill="rgb(38,38,38)" x="0 " y="-0">0</text>
   </g>
   <polyline fill="none" points="54.4343,279.499 378.946,279.499" stroke="#262626" stroke-dasharray="16,0" stroke-linecap="square" stroke-linejoin="miter" stroke-width="0.5"/>
   <polyline fill="none" points="54.4343,279.499 54.4343,23.5533" stroke="#262626" stroke-dasharray="16,0" stroke-linecap="square" stroke-linejoin="miter" stroke-width="0.5"/>
   <g font-family="FreeSans" font-size="11" font-style="normal" font-weight="normal" transform="translate(199.19,311.998) rotate(-0,17.5,-10)" xml:space="preserve">
    <text fill="rgb(38,38,38)" x="0 " y="-1">ω</text>
    <text fill="rgb(38,38,38)" x="8 11 15 21 27 30 " y="-1"> rad/s</text>
   </g>
   <g font-family="FreeSans" font-size="11" font-style="normal" font-weight="normal" transform="translate(5.9418,151.526) rotate(-90,20.5,0)" xml:space="preserve">
    <text fill="rgb(38,38,38)" x="0 " y="-3">φ</text>
    <text fill="rgb(38,38,38)" x="8 11 19 22 25 29 35 " y="-3"> G  rad</text>
   </g>
   <g font-family="FreeSans" font-size="11" font-style="normal" font-weight="bold" transform="translate(75.1904,13.5533) rotate(-0,141.5,0)" xml:space="preserve">
    <text fill="rgb(0,0,0)" x="0 7 13 19 25 28 35 41 44 47 53 56 64 67 73 80 87 93 97 103 106 109 116 119 126 130 136 143 150 156 163 169 175 178 185 188 191 198 205 208 215 222 225 232 235 242 248 258 265 268 271 277 " y="-3">Fase della Risposta in Frequenza di un Polo Semplice</text>
   </g>
   <polyline fill="none" points="54.4343,74.7425 54.7591,74.7425 55.084,74.7425 55.4088,74.7425 55.7336,74.7425 56.0585,74.7425 56.3833,74.7425 56.7082,74.7425 57.033,74.7425 57.3578,74.7425 57.6827,74.7425 58.0075,74.7425 58.3323,74.7425 58.6572,74.7425 58.982,74.7425 59.3069,74.7425 59.6317,74.7425 59.9565,74.7425 60.2814,74.7425 60.6062,74.7425 60.931,74.7425 61.2559,74.7425 61.5807,74.7425 61.9055,74.7425 62.2304,74.7425 62.5552,74.7425 62.8801,74.7425 63.2049,74.7425 63.5297,74.7425 63.8546,74.7425 64.1794,74.7425 64.5042,74.7425 64.8291,74.7425 65.1539,74.7425 65.4788,74.7425 65.8036,74.7425 66.1284,74.7425 66.4533,74.7425 66.7781,74.7425 67.1029,74.7425 67.4278,74.7425 67.7526,74.7425 68.0775,74.7425 68.4023,74.7425 68.7271,74.7425 69.052,74.7425 69.3768,74.7425 69.7016,74.7425 70.0265,74.7425 70.3513,74.7425 70.6761,74.7425 71.001,74.7425 71.3258,74.7425 71.6507,74.7425 71.9755,74.7425 72.3003,74.7425 72.6252,74.7425 72.95,74.7425 73.2748,74.7425 73.5997,74.7425 73.9245,74.7425 74.2493,74.7425 74.5742,74.7425 74.899,74.7425 75.2239,74.7425 75.5487,74.7425 75.8735,74.7425 76.1984,74.7425 76.5232,74.7425 76.848,74.7425 77.1729,74.7425 77.4977,74.7425 77.8226,74.7425 78.1474,74.7425 78.4722,74.7425 78.7971,74.7425 79.1219,74.7425 79.4467,74.7425 79.7716,74.7425 80.0964,74.7425 80.4212,74.7425 80.7461,74.7425 81.0709,74.7425 81.3958,74.7425 81.7206,74.7425 82.0454,74.7425 82.3703,74.7425 82.6951,74.7425 83.0199,74.7425 83.3448,74.7425 83.6696,74.7425 83.9944,74.7425 84.3193,74.7425 84.6441,74.7425 84.969,74.7425 85.2938,74.7425 85.6186,74.7425 85.9435,74.7425 86.2683,74.7425 86.5931,74.7425 86.918,74.7425 87.2428,74.7425 87.5677,74.7425 87.8925,74.7425 88.2173,74.7425 88.5422,74.7425 88.867,74.7425 89.1918,74.7425 89.5167,74.7425 89.8415,74.7425 90.1664,74.7425 90.4912,74.7425 90.816,74.7425 91.1409,74.7425 91.4657,74.7425 91.7905,74.7425 92.1154,74.7425 92.4402,74.7425 92.7651,74.7425 93.0899,74.7425 93.4147,74.7425 93.7396,74.7425 94.0644,74.7425 94.3892,74.7425 94.7141,74.7425 95.0389,74.7425 95.3638,74.7425 95.6886,74.7425 96.0134,74.7425 96.3383,74.7425 96.6631,74.7425 96.9879,74.7425 97.3128,74.7425 97.6376,74.7425 97.9624,74.7425 98.2873,74.7425 98.6121,74.7425 98.937,74.7425 99.2618,74.7425 99.5866,74.7425 99.9115,74.7425 100.236,74.7425 100.561,74.7425 100.886,74.7425 101.211,74.7425 101.536,74.7425 101.86,74.7425 102.185,74.7425 102.51,74.7425 102.835,74.7425 103.16,74.7425 103.485,74.7425 103.81,74.7425 104.134,74.7425 104.459,74.7425 104.784,74.7425 105.109,74.7425 105.434,74.7425 105.759,74.7425 106.083,74.7425 106.408,74.7425 106.733,74.7425 107.058,74.7425 107.383,74.7425 107.708,74.7425 108.032,74.7425 108.357,74.7425 108.682,74.7425 109.007,74.7425 109.332,74.7425 109.657,74.7425 109.981,74.7425 110.306,74.7425 110.631,74.7425 110.956,74.7425 111.281,74.7425 111.606,74.7425 111.93,74.7425 112.255,74.7425 112.58,74.7425 112.905,74.7425 113.23,74.7425 113.555,74.7425 113.879,74.7425 114.204,74.7425 114.529,74.7425 114.854,74.7425 115.179,74.7425 115.504,74.7425 115.828,74.7425 116.153,74.7425 116.478,74.7425 116.803,74.7425 117.128,74.7425 117.453,74.7425 117.777,74.7425 118.102,74.7425 118.427,74.7425 118.752,74.7425 119.077,74.7425 119.402,74.7425 119.727,74.7425 120.051,74.7425 120.376,74.7425 120.701,74.7425 121.026,74.7425 121.351,74.7425 121.676,74.7425 122,74.7425 122.325,74.7425 122.65,74.7425 122.975,74.7425 123.3,74.7425 123.625,74.7425 123.949,74.7425 124.274,74.7425 124.599,74.7425 124.924,74.7425 125.249,74.7425 125.574,74.7425 125.898,74.7425 126.223,74.7425 126.548,74.7425 126.873,74.7425 127.198,74.7425 127.523,74.7425 127.847,74.7425 128.172,74.7425 128.497,74.7425 128.822,74.7425 129.147,74.7425 129.472,74.7425 129.796,74.7425 130.121,74.7425 130.446,74.7425 130.771,74.7425 131.096,74.7425 131.421,74.7425 131.745,74.7425 132.07,74.7425 132.395,74.7425 132.72,74.7425 133.045,74.7425 133.37,74.7425 133.695,74.7425 134.019,74.7425 134.344,74.7425 134.669,74.7425 134.994,74.7425 135.319,74.7425 135.644,74.7425 135.968,74.7425 136.293,74.7425 136.618,74.7425 136.943,74.7425 137.268,74.7425 137.593,74.7425 137.917,74.7425 138.242,74.7425 138.567,74.7425 138.892,74.7425 139.217,74.7425 139.542,74.7425 139.866,74.7425 140.191,74.7425 140.516,74.7425 140.841,74.7425 141.166,74.7425 141.491,74.7425 141.815,74.7425 142.14,74.7425 142.465,74.7425 142.79,74.7425 143.115,74.7425 143.44,74.7425 143.764,74.7425 144.089,74.7425 144.414,74.7425 144.739,74.7425 145.064,74.7425 145.389,74.7425 145.713,74.7425 146.038,74.7425 146.363,74.7425 146.688,74.7425 147.013,74.7425 147.338,74.7425 147.662,74.7425 147.987,74.7425 148.312,74.7425 148.637,74.7425 148.962,74.7425 149.287,74.7425 149.612,74.7425 149.936,74.7425 150.261,74.7425 150.586,74.7425 150.911,74.7425 151.236,74.7425 151.561,74.7425 151.885,74.7425 152.21,74.7425 152.535,74.7425 152.86,74.7425 153.185,74.7425 153.51,74.7425 153.834,74.7425 154.159,74.7425 154.484,74.7425 154.809,74.7425 155.134,74.7425 155.459,74.7425 155.783,74.7425 156.108,74.7425 156.433,74.7425 156.758,74.7425 157.083,74.7425 157.408,74.7425 157.732,74.7425 158.057,74.7425 158.382,74.7425 158.707,74.7425 159.032,74.7425 159.357,74.7425 159.681,74.7425 160.006,74.7425 160.331,74.7425 160.656,74.7425 160.981,74.7425 161.306,74.7425 161.63,74.7425 161.955,74.7425 162.28,74.7425" stroke="#ff0000" stroke-linecap="butt" stroke-linejoin="round" stroke-width="2"/>
   <polyline fill="none" points="162.605,74.7425 162.93,75.2254 163.255,75.7083 163.579,76.1913 163.904,76.6742 164.229,77.1571 164.554,77.6401 164.879,78.123 165.204,78.6059 165.529,79.0888 165.853,79.5718 166.178,80.0547 166.503,80.5376 166.828,81.0206 167.153,81.5035 167.478,81.9864 167.802,82.4693 168.127,82.9523 168.452,83.4352 168.777,83.9181 169.102,84.4011 169.427,84.884 169.751,85.3669 170.076,85.8499 170.401,86.3328 170.726,86.8157 171.051,87.2986 171.376,87.7816 171.7,88.2645 172.025,88.7474 172.35,89.2304 172.675,89.7133 173,90.1962 173.325,90.6792 173.649,91.1621 173.974,91.645 174.299,92.1279 174.624,92.6109 174.949,93.0938 175.274,93.5767 175.598,94.0596 175.923,94.5426 176.248,95.0255 176.573,95.5084 176.898,95.9914 177.223,96.4743 177.548,96.9572 177.872,97.4402 178.197,97.9231 178.522,98.406 178.847,98.8889 179.172,99.3719 179.497,99.8548 179.821,100.338 180.146,100.821 180.471,101.304 180.796,101.787 181.121,102.269 181.446,102.752 181.77,103.235 182.095,103.718 182.42,104.201 182.745,104.684 183.07,105.167 183.395,105.65 183.719,106.133 184.044,106.616 184.369,107.099 184.694,107.582 185.019,108.065 185.344,108.548 185.668,109.03 185.993,109.513 186.318,109.996 186.643,110.479 186.968,110.962 187.293,111.445 187.617,111.928 187.942,112.411 188.267,112.894 188.592,113.377 188.917,113.86 189.242,114.343 189.566,114.826 189.891,115.309 190.216,115.791 190.541,116.274 190.866,116.757 191.191,117.24 191.515,117.723 191.84,118.206 192.165,118.689 192.49,119.172 192.815,119.655 193.14,120.138 193.465,120.621 193.789,121.104 194.114,121.587 194.439,122.07 194.764,122.553 195.089,123.035 195.414,123.518 195.738,124.001 196.063,124.484 196.388,124.967 196.713,125.45 197.038,125.933 197.363,126.416 197.687,126.899 198.012,127.382 198.337,127.865 198.662,128.348 198.987,128.831 199.312,129.314 199.636,129.796 199.961,130.279 200.286,130.762 200.611,131.245 200.936,131.728 201.261,132.211 201.585,132.694 201.91,133.177 202.235,133.66 202.56,134.143 202.885,134.626 203.21,135.109 203.534,135.592 203.859,136.075 204.184,136.557 204.509,137.04 204.834,137.523 205.159,138.006 205.483,138.489 205.808,138.972 206.133,139.455 206.458,139.938 206.783,140.421 207.108,140.904 207.432,141.387 207.757,141.87 208.082,142.353 208.407,142.836 208.732,143.318 209.057,143.801 209.382,144.284 209.706,144.767 210.031,145.25 210.356,145.733 210.681,146.216 211.006,146.699 211.331,147.182 211.655,147.665 211.98,148.148 212.305,148.631 212.63,149.114 212.955,149.597 213.28,150.079 213.604,150.562 213.929,151.045 214.254,151.528 214.579,152.011 214.904,152.494 215.229,152.977 215.553,153.46 215.878,153.943 216.203,154.426 216.528,154.909 216.853,155.392 217.178,155.875 217.502,156.358 217.827,156.84 218.152,157.323 218.477,157.806 218.802,158.289 219.127,158.772 219.451,159.255 219.776,159.738 220.101,160.221 220.426,160.704 220.751,161.187 221.076,161.67 221.4,162.153 221.725,162.636 222.05,163.119 222.375,163.602 222.7,164.084 223.025,164.567 223.35,165.05 223.674,165.533 223.999,166.016 224.324,166.499 224.649,166.982 224.974,167.465 225.299,167.948 225.623,168.431 225.948,168.914 226.273,169.397 226.598,169.88 226.923,170.363 227.248,170.845 227.572,171.328 227.897,171.811 228.222,172.294 228.547,172.777 228.872,173.26 229.197,173.743 229.521,174.226 229.846,174.709 230.171,175.192 230.496,175.675 230.821,176.158 231.146,176.641 231.47,177.124 231.795,177.606 232.12,178.089 232.445,178.572 232.77,179.055 233.095,179.538 233.419,180.021 233.744,180.504 234.069,180.987 234.394,181.47 234.719,181.953 235.044,182.436 235.368,182.919 235.693,183.402 236.018,183.885 236.343,184.367 236.668,184.85 236.993,185.333 237.317,185.816 237.642,186.299 237.967,186.782 238.292,187.265 238.617,187.748 238.942,188.231 239.267,188.714 239.591,189.197 239.916,189.68 240.241,190.163 240.566,190.646 240.891,191.128 241.216,191.611 241.54,192.094 241.865,192.577 242.19,193.06 242.515,193.543 242.84,194.026 243.165,194.509 243.489,194.992 243.814,195.475 244.139,195.958 244.464,196.441 244.789,196.924 245.114,197.407 245.438,197.889 245.763,198.372 246.088,198.855 246.413,199.338 246.738,199.821 247.063,200.304 247.387,200.787 247.712,201.27 248.037,201.753 248.362,202.236 248.687,202.719 249.012,203.202 249.336,203.685 249.661,204.168 249.986,204.651 250.311,205.133 250.636,205.616 250.961,206.099 251.285,206.582 251.61,207.065 251.935,207.548 252.26,208.031 252.585,208.514 252.91,208.997 253.234,209.48 253.559,209.963 253.884,210.446 254.209,210.929 254.534,211.412 254.859,211.894 255.184,212.377 255.508,212.86 255.833,213.343 256.158,213.826 256.483,214.309 256.808,214.792 257.133,215.275 257.457,215.758 257.782,216.241 258.107,216.724 258.432,217.207 258.757,217.69 259.082,218.173 259.406,218.655 259.731,219.138 260.056,219.621 260.381,220.104 260.706,220.587 261.031,221.07 261.355,221.553 261.68,222.036 262.005,222.519 262.33,223.002 262.655,223.485 262.98,223.968 263.304,224.451 263.629,224.934 263.954,225.417 264.279,225.899 264.604,226.382 264.929,226.865 265.253,227.348 265.578,227.831 265.903,228.314 266.228,228.797 266.553,229.28 266.878,229.763 267.202,230.246 267.527,230.729 267.852,231.212 268.177,231.695 268.502,232.178 268.827,232.66 269.152,233.143 269.476,233.626 269.801,234.109 270.126,234.592 270.451,235.075 270.776,235.558" stroke="#ff0000" stroke-linecap="butt" stroke-linejoin="round" stroke-width="2"/>
   <polyline fill="none" points="271.101,235.558 271.425,235.558 271.75,235.558 272.075,235.558 272.4,235.558 272.725,235.558 273.05,235.558 273.374,235.558 273.699,235.558 274.024,235.558 274.349,235.558 274.674,235.558 274.999,235.558 275.323,235.558 275.648,235.558 275.973,235.558 276.298,235.558 276.623,235.558 276.948,235.558 277.272,235.558 277.597,235.558 277.922,235.558 278.247,235.558 278.572,235.558 278.897,235.558 279.221,235.558 279.546,235.558 279.871,235.558 280.196,235.558 280.521,235.558 280.846,235.558 281.17,235.558 281.495,235.558 281.82,235.558 282.145,235.558 282.47,235.558 282.795,235.558 283.12,235.558 283.444,235.558 283.769,235.558 284.094,235.558 284.419,235.558 284.744,235.558 285.069,235.558 285.393,235.558 285.718,235.558 286.043,235.558 286.368,235.558 286.693,235.558 287.018,235.558 287.342,235.558 287.667,235.558 287.992,235.558 288.317,235.558 288.642,235.558 288.967,235.558 289.291,235.558 289.616,235.558 289.941,235.558 290.266,235.558 290.591,235.558 290.916,235.558 291.24,235.558 291.565,235.558 291.89,235.558 292.215,235.558 292.54,235.558 292.865,235.558 293.189,235.558 293.514,235.558 293.839,235.558 294.164,235.558 294.489,235.558 294.814,235.558 295.138,235.558 295.463,235.558 295.788,235.558 296.113,235.558 296.438,235.558 296.763,235.558 297.087,235.558 297.412,235.558 297.737,235.558 298.062,235.558 298.387,235.558 298.712,235.558 299.036,235.558 299.361,235.558 299.686,235.558 300.011,235.558 300.336,235.558 300.661,235.558 300.986,235.558 301.31,235.558 301.635,235.558 301.96,235.558 302.285,235.558 302.61,235.558 302.935,235.558 303.259,235.558 303.584,235.558 303.909,235.558 304.234,235.558 304.559,235.558 304.884,235.558 305.208,235.558 305.533,235.558 305.858,235.558 306.183,235.558 306.508,235.558 306.833,235.558 307.157,235.558 307.482,235.558 307.807,235.558 308.132,235.558 308.457,235.558 308.782,235.558 309.106,235.558 309.431,235.558 309.756,235.558 310.081,235.558 310.406,235.558 310.731,235.558 311.055,235.558 311.38,235.558 311.705,235.558 312.03,235.558 312.355,235.558 312.68,235.558 313.005,235.558 313.329,235.558 313.654,235.558 313.979,235.558 314.304,235.558 314.629,235.558 314.954,235.558 315.278,235.558 315.603,235.558 315.928,235.558 316.253,235.558 316.578,235.558 316.903,235.558 317.227,235.558 317.552,235.558 317.877,235.558 318.202,235.558 318.527,235.558 318.852,235.558 319.176,235.558 319.501,235.558 319.826,235.558 320.151,235.558 320.476,235.558 320.801,235.558 321.125,235.558 321.45,235.558 321.775,235.558 322.1,235.558 322.425,235.558 322.75,235.558 323.074,235.558 323.399,235.558 323.724,235.558 324.049,235.558 324.374,235.558 324.699,235.558 325.023,235.558 325.348,235.558 325.673,235.558 325.998,235.558 326.323,235.558 326.648,235.558 326.973,235.558 327.297,235.558 327.622,235.558 327.947,235.558 328.272,235.558 328.597,235.558 328.922,235.558 329.246,235.558 329.571,235.558 329.896,235.558 330.221,235.558 330.546,235.558 330.871,235.558 331.195,235.558 331.52,235.558 331.845,235.558 332.17,235.558 332.495,235.558 332.82,235.558 333.144,235.558 333.469,235.558 333.794,235.558 334.119,235.558 334.444,235.558 334.769,235.558 335.093,235.558 335.418,235.558 335.743,235.558 336.068,235.558 336.393,235.558 336.718,235.558 337.042,235.558 337.367,235.558 337.692,235.558 338.017,235.558 338.342,235.558 338.667,235.558 338.991,235.558 339.316,235.558 339.641,235.558 339.966,235.558 340.291,235.558 340.616,235.558 340.94,235.558 341.265,235.558 341.59,235.558 341.915,235.558 342.24,235.558 342.565,235.558 342.889,235.558 343.214,235.558 343.539,235.558 343.864,235.558 344.189,235.558 344.514,235.558 344.839,235.558 345.163,235.558 345.488,235.558 345.813,235.558 346.138,235.558 346.463,235.558 346.788,235.558 347.112,235.558 347.437,235.558 347.762,235.558 348.087,235.558 348.412,235.558 348.737,235.558 349.061,235.558 349.386,235.558 349.711,235.558 350.036,235.558 350.361,235.558 350.686,235.558 351.01,235.558 351.335,235.558 351.66,235.558 351.985,235.558 352.31,235.558 352.635,235.558 352.959,235.558 353.284,235.558 353.609,235.558 353.934,235.558 354.259,235.558 354.584,235.558 354.908,235.558 355.233,235.558 355.558,235.558 355.883,235.558 356.208,235.558 356.533,235.558 356.857,235.558 357.182,235.558 357.507,235.558 357.832,235.558 358.157,235.558 358.482,235.558 358.807,235.558 359.131,235.558 359.456,235.558 359.781,235.558 360.106,235.558 360.431,235.558 360.756,235.558 361.08,235.558 361.405,235.558 361.73,235.558 362.055,235.558 362.38,235.558 362.705,235.558 363.029,235.558 363.354,235.558 363.679,235.558 364.004,235.558 364.329,235.558 364.654,235.558 364.978,235.558 365.303,235.558 365.628,235.558 365.953,235.558 366.278,235.558 366.603,235.558 366.927,235.558 367.252,235.558 367.577,235.558 367.902,235.558 368.227,235.558 368.552,235.558 368.876,235.558 369.201,235.558 369.526,235.558 369.851,235.558 370.176,235.558 370.501,235.558 370.826,235.558 371.15,235.558 371.475,235.558 371.8,235.558 372.125,235.558 372.45,235.558 372.775,235.558 373.099,235.558 373.424,235.558 373.749,235.558 374.074,235.558 374.399,235.558 374.724,235.558 375.048,235.558 375.373,235.558 375.698,235.558 376.023,235.558 376.348,235.558 376.673,235.558 376.997,235.558 377.322,235.558 377.647,235.558 377.972,235.558 378.297,235.558 378.622,235.558 378.946,235.558" stroke="#ff0000" stroke-linecap="butt" stroke-linejoin="round" stroke-width="2"/>
   <polyline fill="none" points="54.4343,74.7527 54.7591,74.7529 55.084,74.753 55.4088,74.7531 55.7336,74.7533 56.0585,74.7534 56.3833,74.7536 56.7082,74.7538 57.033,74.7539 57.3578,74.7541 57.6827,74.7542 58.0075,74.7544 58.3323,74.7546 58.6572,74.7547 58.982,74.7549 59.3069,74.7551 59.6317,74.7552 59.9565,74.7554 60.2814,74.7556 60.6062,74.7558 60.931,74.756 61.2559,74.7562 61.5807,74.7563 61.9055,74.7565 62.2304,74.7567 62.5552,74.7569 62.8801,74.7571 63.2049,74.7573 63.5297,74.7575 63.8546,74.7578 64.1794,74.758 64.5042,74.7582 64.8291,74.7584 65.1539,74.7586 65.4788,74.7589 65.8036,74.7591 66.1284,74.7593 66.4533,74.7596 66.7781,74.7598 67.1029,74.76 67.4278,74.7603 67.7526,74.7605 68.0775,74.7608 68.4023,74.761 68.7271,74.7613 69.052,74.7615 69.3768,74.7618 69.7016,74.7621 70.0265,74.7624 70.3513,74.7626 70.6761,74.7629 71.001,74.7632 71.3258,74.7635 71.6507,74.7638 71.9755,74.7641 72.3003,74.7644 72.6252,74.7647 72.95,74.765 73.2748,74.7653 73.5997,74.7656 73.9245,74.7659 74.2493,74.7663 74.5742,74.7666 74.899,74.7669 75.2239,74.7673 75.5487,74.7676 75.8735,74.768 76.1984,74.7683 76.5232,74.7687 76.848,74.7691 77.1729,74.7694 77.4977,74.7698 77.8226,74.7702 78.1474,74.7706 78.4722,74.771 78.7971,74.7714 79.1219,74.7718 79.4467,74.7722 79.7716,74.7726 80.0964,74.773 80.4212,74.7734 80.7461,74.7739 81.0709,74.7743 81.3958,74.7747 81.7206,74.7752 82.0454,74.7756 82.3703,74.7761 82.6951,74.7766 83.0199,74.7771 83.3448,74.7775 83.6696,74.778 83.9944,74.7785 84.3193,74.779 84.6441,74.7795 84.969,74.78 85.2938,74.7806 85.6186,74.7811 85.9435,74.7816 86.2683,74.7822 86.5931,74.7827 86.918,74.7833 87.2428,74.7838 87.5677,74.7844 87.8925,74.785 88.2173,74.7856 88.5422,74.7862 88.867,74.7868 89.1918,74.7874 89.5167,74.7881 89.8415,74.7887 90.1664,74.7893 90.4912,74.79 90.816,74.7906 91.1409,74.7913 91.4657,74.792 91.7905,74.7927 92.1154,74.7934 92.4402,74.7941 92.7651,74.7948 93.0899,74.7956 93.4147,74.7963 93.7396,74.797 94.0644,74.7978 94.3892,74.7986 94.7141,74.7993 95.0389,74.8001 95.3638,74.8009 95.6886,74.8018 96.0134,74.8026 96.3383,74.8034 96.6631,74.8043 96.9879,74.8051 97.3128,74.806 97.6376,74.8069 97.9624,74.8078 98.2873,74.8087 98.6121,74.8096 98.937,74.8105 99.2618,74.8115 99.5866,74.8125 99.9115,74.8134 100.236,74.8144 100.561,74.8154 100.886,74.8164 101.211,74.8175 101.536,74.8185 101.86,74.8196 102.185,74.8206 102.51,74.8217 102.835,74.8228 103.16,74.824 103.485,74.8251 103.81,74.8262 104.134,74.8274 104.459,74.8286 104.784,74.8298 105.109,74.831 105.434,74.8322 105.759,74.8335 106.083,74.8348 106.408,74.8361 106.733,74.8374 107.058,74.8387 107.383,74.84 107.708,74.8414 108.032,74.8427 108.357,74.8441 108.682,74.8456 109.007,74.847 109.332,74.8484 109.657,74.8499 109.981,74.8514 110.306,74.8529 110.631,74.8545 110.956,74.856 111.281,74.8576 111.606,74.8592 111.93,74.8608 112.255,74.8625 112.58,74.8642 112.905,74.8659 113.23,74.8676 113.555,74.8693 113.879,74.8711 114.204,74.8729 114.529,74.8747 114.854,74.8765 115.179,74.8784 115.504,74.8803 115.828,74.8822 116.153,74.8842 116.478,74.8861 116.803,74.8881 117.128,74.8902 117.453,74.8922 117.777,74.8943 118.102,74.8964 118.427,74.8986 118.752,74.9007 119.077,74.903 119.402,74.9052 119.727,74.9074 120.051,74.9097 120.376,74.9121 120.701,74.9144 121.026,74.9168 121.351,74.9193 121.676,74.9217 122,74.9242 122.325,74.9268 122.65,74.9293 122.975,74.9319 123.3,74.9346 123.625,74.9372 123.949,74.9399 124.274,74.9427 124.599,74.9455 124.924,74.9483 125.249,74.9512 125.574,74.9541 125.898,74.957 126.223,74.96 126.548,74.963 126.873,74.9661 127.198,74.9692 127.523,74.9724 127.847,74.9756 128.172,74.9788 128.497,74.9821 128.822,74.9855 129.147,74.9888 129.472,74.9923 129.796,74.9958 130.121,74.9993 130.446,75.0029 130.771,75.0065 131.096,75.0102 131.421,75.0139 131.745,75.0177 132.07,75.0215 132.395,75.0254 132.72,75.0293 133.045,75.0333 133.37,75.0374 133.695,75.0415 134.019,75.0456 134.344,75.0499 134.669,75.0541 134.994,75.0585 135.319,75.0629 135.644,75.0674 135.968,75.0719 136.293,75.0764 136.618,75.0811 136.943,75.0858 137.268,75.0906 137.593,75.0954 137.917,75.1004 138.242,75.1053 138.567,75.1104 138.892,75.1155 139.217,75.1207 139.542,75.126 139.866,75.1313 140.191,75.1367 140.516,75.1422 140.841,75.1478 141.166,75.1534 141.491,75.1592 141.815,75.165 142.14,75.1709 142.465,75.1768 142.79,75.1829 143.115,75.189 143.44,75.1952 143.764,75.2015 144.089,75.2079 144.414,75.2144 144.739,75.221 145.064,75.2276 145.389,75.2344 145.713,75.2412 146.038,75.2482 146.363,75.2552 146.688,75.2624 147.013,75.2696 147.338,75.2769 147.663,75.2844 147.987,75.2919 148.312,75.2996 148.637,75.3073 148.962,75.3152 149.287,75.3232 149.612,75.3313 149.936,75.3395 150.261,75.3478 150.586,75.3562 150.911,75.3647 151.236,75.3734 151.561,75.3822 151.885,75.3911 152.21,75.4001 152.535,75.4093 152.86,75.4186 153.185,75.428 153.51,75.4376 153.834,75.4472 154.159,75.457 154.484,75.467 154.809,75.4771 155.134,75.4873 155.459,75.4977 155.783,75.5082 156.108,75.5189 156.433,75.5297 156.758,75.5406 157.083,75.5518 157.408,75.563 157.732,75.5744 158.057,75.586 158.382,75.5978 158.707,75.6097 159.032,75.6218 159.357,75.634 159.681,75.6464 160.006,75.659 160.331,75.6718 160.656,75.6847 160.981,75.6978 161.306,75.7111 161.63,75.7246 161.955,75.7383 162.28,75.7522 162.605,75.7662 162.93,75.7805 163.255,75.7949 163.579,75.8096 163.904,75.8244 164.229,75.8395 164.554,75.8548 164.879,75.8703 165.204,75.886 165.529,75.9019 165.853,75.918 166.178,75.9344 166.503,75.951 166.828,75.9678 167.153,75.9849 167.478,76.0022 167.802,76.0197 168.127,76.0375 168.452,76.0556 168.777,76.0739 169.102,76.0924 169.427,76.1112 169.751,76.1302 170.076,76.1496 170.401,76.1691 170.726,76.189 171.051,76.2092 171.376,76.2296 171.7,76.2503 172.025,76.2713 172.35,76.2926 172.675,76.3141 173,76.336 173.325,76.3582 173.649,76.3807 173.974,76.4035 174.299,76.4266 174.624,76.4501 174.949,76.4739 175.274,76.498 175.598,76.5224 175.923,76.5472 176.248,76.5723 176.573,76.5978 176.898,76.6236 177.223,76.6498 177.548,76.6764 177.872,76.7033 178.197,76.7306 178.522,76.7583 178.847,76.7863 179.172,76.8148 179.497,76.8436 179.821,76.8729 180.146,76.9025 180.471,76.9326 180.796,76.9631 181.121,76.994 181.446,77.0254 181.77,77.0571 182.095,77.0894 182.42,77.122 182.745,77.1552 183.07,77.1887 183.395,77.2228 183.719,77.2573 184.044,77.2923 184.369,77.3278 184.694,77.3638 185.019,77.4003 185.344,77.4373 185.668,77.4748 185.993,77.5128 186.318,77.5514 186.643,77.5905 186.968,77.6301 187.293,77.6703 187.617,77.7111 187.942,77.7524 188.267,77.7943 188.592,77.8367 188.917,77.8798 189.242,77.9234 189.566,77.9677 189.891,78.0126 190.216,78.0581 190.541,78.1042 190.866,78.151 191.191,78.1985 191.515,78.2466 191.84,78.2953 192.165,78.3447 192.49,78.3949 192.815,78.4457 193.14,78.4972 193.465,78.5494 193.789,78.6024 194.114,78.6561 194.439,78.7105 194.764,78.7657 195.089,78.8217 195.414,78.8784 195.738,78.936 196.063,78.9943 196.388,79.0535 196.713,79.1134 197.038,79.1742 197.363,79.2358 197.687,79.2983 198.012,79.3617 198.337,79.4259 198.662,79.491 198.987,79.5571 199.312,79.624 199.636,79.6919 199.961,79.7607 200.286,79.8305 200.611,79.9012 200.936,79.9729 201.261,80.0456 201.585,80.1193 201.91,80.1941 202.235,80.2698 202.56,80.3467 202.885,80.4245 203.21,80.5035 203.534,80.5836 203.859,80.6647 204.184,80.747 204.509,80.8304 204.834,80.915 205.159,81.0007 205.483,81.0877 205.808,81.1758 206.133,81.2651 206.458,81.3557 206.783,81.4475 207.108,81.5406 207.432,81.635 207.757,81.7307 208.082,81.8277 208.407,81.9261 208.732,82.0258 209.057,82.1268 209.382,82.2293 209.706,82.3332 210.031,82.4385 210.356,82.5452 210.681,82.6535 211.006,82.7632 211.331,82.8744 211.655,82.9872 211.98,83.1015 212.305,83.2173 212.63,83.3348 212.955,83.4539 213.28,83.5746 213.604,83.697 213.929,83.821 214.254,83.9468 214.579,84.0742 214.904,84.2035 215.229,84.3344 215.553,84.4672 215.878,84.6018 216.203,84.7382 216.528,84.8765 216.853,85.0167 217.178,85.1588 217.502,85.3028 217.827,85.4488 218.152,85.5968 218.477,85.7468 218.802,85.8988 219.127,86.0529 219.451,86.2092 219.776,86.3675 220.101,86.528 220.426,86.6906 220.751,86.8554 221.076,87.0225 221.4,87.1918 221.725,87.3635 222.05,87.5374 222.375,87.7137 222.7,87.8923 223.025,88.0734 223.35,88.2569 223.674,88.4429 223.999,88.6314 224.324,88.8224 224.649,89.0159 224.974,89.2121 225.299,89.4108 225.623,89.6122 225.948,89.8163 226.273,90.0232 226.598,90.2328 226.923,90.4451 227.248,90.6603 227.572,90.8783 227.897,91.0993 228.222,91.3231 228.547,91.5499 228.872,91.7797 229.197,92.0125 229.521,92.2483 229.846,92.4873 230.171,92.7294 230.496,92.9746 230.821,93.2231 231.146,93.4748 231.47,93.7297 231.795,93.988 232.12,94.2496 232.445,94.5146 232.77,94.783 233.095,95.0548 233.419,95.3302 233.744,95.609 234.069,95.8915 234.394,96.1775 234.719,96.4672 235.044,96.7605 235.368,97.0576 235.693,97.3584 236.018,97.6629 236.343,97.9713 236.668,98.2836 236.993,98.5998 237.317,98.9199 237.642,99.2439 237.967,99.572 238.292,99.9041 238.617,100.24 238.942,100.58 239.267,100.925 239.591,101.274 239.916,101.626 240.241,101.983 240.566,102.345 240.891,102.71 241.216,103.08 241.54,103.455 241.865,103.834 242.19,104.217 242.515,104.604 242.84,104.997 243.165,105.393 243.489,105.795 243.814,106.201 244.139,106.611 244.464,107.026 244.789,107.446 245.114,107.87 245.438,108.3 245.763,108.733 246.088,109.172 246.413,109.616 246.738,110.064 247.063,110.517 247.387,110.975 247.712,111.437 248.037,111.905 248.362,112.377 248.687,112.855 249.012,113.337 249.336,113.824 249.661,114.316 249.986,114.812 250.311,115.314 250.636,115.821 250.961,116.332 251.285,116.849 251.61,117.37 251.935,117.896 252.26,118.427 252.585,118.963 252.91,119.504 253.234,120.049 253.559,120.599 253.884,121.154 254.209,121.714 254.534,122.279 254.859,122.848 255.184,123.422 255.508,124 255.833,124.584 256.158,125.171 256.483,125.763 256.808,126.36 257.133,126.961 257.457,127.567 257.782,128.176 258.107,128.79 258.432,129.409 258.757,130.031 259.082,130.657 259.406,131.288 259.731,131.922 260.056,132.56 260.381,133.202 260.706,133.848 261.031,134.497 261.355,135.15 261.68,135.806 262.005,136.466 262.33,137.129 262.655,137.795 262.98,138.464 263.304,139.136 263.629,139.811 263.954,140.489 264.279,141.169 264.604,141.852 264.929,142.537 265.253,143.225 265.578,143.915 265.903,144.607 266.228,145.301 266.553,145.997 266.878,146.694 267.202,147.393 267.527,148.094 267.852,148.795 268.177,149.498 268.502,150.203 268.827,150.908 269.152,151.613 269.476,152.32 269.801,153.027 270.126,153.735 270.451,154.442 270.776,155.15 271.101,155.858 271.425,156.566 271.75,157.273 272.075,157.98 272.4,158.687 272.725,159.393 273.05,160.098 273.374,160.802 273.699,161.505 274.024,162.207 274.349,162.907 274.674,163.606 274.999,164.304 275.323,165 275.648,165.694 275.973,166.386 276.298,167.075 276.623,167.763 276.948,168.448 277.272,169.131 277.597,169.812 277.922,170.489 278.247,171.164 278.572,171.837 278.897,172.506 279.221,173.172 279.546,173.835 279.871,174.494 280.196,175.151 280.521,175.803 280.846,176.453 281.17,177.098 281.495,177.74 281.82,178.378 282.145,179.013 282.47,179.643 282.795,180.27 283.12,180.892 283.444,181.51 283.769,182.124 284.094,182.734 284.419,183.339 284.744,183.94 285.069,184.537 285.393,185.129 285.718,185.717 286.043,186.3 286.368,186.879 286.693,187.452 287.018,188.022 287.342,188.586 287.667,189.146 287.992,189.701 288.317,190.251 288.642,190.797 288.967,191.338 289.291,191.873 289.616,192.404 289.941,192.931 290.266,193.452 290.591,193.968 290.916,194.48 291.24,194.986 291.565,195.488 291.89,195.985 292.215,196.477 292.54,196.964 292.865,197.446 293.189,197.923 293.514,198.396 293.839,198.863 294.164,199.326 294.489,199.784 294.814,200.237 295.138,200.685 295.463,201.128 295.788,201.567 296.113,202.001 296.438,202.43 296.763,202.855 297.087,203.274 297.412,203.689 297.737,204.1 298.062,204.506 298.387,204.907 298.712,205.304 299.036,205.696 299.361,206.084 299.686,206.467 300.011,206.846 300.336,207.22 300.661,207.59 300.986,207.956 301.31,208.317 301.635,208.674 301.96,209.027 302.285,209.376 302.61,209.72 302.935,210.06 303.259,210.396 303.584,210.729 303.909,211.057 304.234,211.381 304.559,211.701 304.884,212.017 305.208,212.329 305.533,212.638 305.858,212.942 306.183,213.243 306.508,213.54 306.833,213.833 307.157,214.123 307.482,214.409 307.807,214.691 308.132,214.97 308.457,215.246 308.782,215.518 309.106,215.786 309.431,216.051 309.756,216.313 310.081,216.571 310.406,216.826 310.731,217.077 311.055,217.326 311.38,217.571 311.705,217.813 312.03,218.052 312.355,218.288 312.68,218.521 313.005,218.751 313.329,218.977 313.654,219.201 313.979,219.422 314.304,219.64 314.629,219.855 314.954,220.068 315.278,220.277 315.603,220.484 315.928,220.688 316.253,220.89 316.578,221.088 316.903,221.285 317.227,221.478 317.552,221.669 317.877,221.858 318.202,222.044 318.527,222.227 318.852,222.408 319.176,222.587 319.501,222.763 319.826,222.937 320.151,223.109 320.476,223.278 320.801,223.445 321.125,223.61 321.45,223.773 321.775,223.933 322.1,224.091 322.425,224.248 322.75,224.402 323.074,224.554 323.399,224.704 323.724,224.852 324.049,224.998 324.374,225.142 324.699,225.284 325.023,225.424 325.348,225.562 325.673,225.699 325.998,225.833 326.323,225.966 326.648,226.097 326.973,226.226 327.297,226.354 327.622,226.479 327.947,226.603 328.272,226.726 328.597,226.847 328.922,226.966 329.246,227.083 329.571,227.199 329.896,227.313 330.221,227.426 330.546,227.537 330.871,227.647 331.195,227.755 331.52,227.862 331.845,227.967 332.17,228.071 332.495,228.174 332.82,228.275 333.144,228.374 333.469,228.473 333.794,228.57 334.119,228.665 334.444,228.76 334.769,228.853 335.093,228.945 335.418,229.035 335.743,229.125 336.068,229.213 336.393,229.3 336.718,229.385 337.042,229.47 337.367,229.553 337.692,229.636 338.017,229.717 338.342,229.797 338.667,229.876 338.991,229.954 339.316,230.031 339.641,230.106 339.966,230.181 340.291,230.255 340.616,230.328 340.94,230.399 341.265,230.47 341.59,230.54 341.915,230.609 342.24,230.676 342.565,230.743 342.889,230.809 343.214,230.875 343.539,230.939 343.864,231.002 344.189,231.065 344.514,231.126 344.839,231.187 345.163,231.247 345.488,231.306 345.813,231.365 346.138,231.422 346.463,231.479 346.788,231.535 347.112,231.59 347.437,231.644 347.762,231.698 348.087,231.751 348.412,231.803 348.737,231.855 349.061,231.906 349.386,231.956 349.711,232.005 350.036,232.054 350.361,232.102 350.686,232.149 351.01,232.196 351.335,232.242 351.66,232.288 351.985,232.333 352.31,232.377 352.635,232.421 352.959,232.464 353.284,232.506 353.609,232.548 353.934,232.589 354.259,232.63 354.584,232.67 354.908,232.71 355.233,232.749 355.558,232.788 355.883,232.826 356.208,232.863 356.533,232.9 356.857,232.937 357.182,232.973 357.507,233.008 357.832,233.043 358.157,233.078 358.482,233.112 358.807,233.145 359.131,233.178 359.456,233.211 359.781,233.243 360.106,233.275 360.431,233.306 360.756,233.337 361.08,233.368 361.405,233.398 361.73,233.428 362.055,233.457 362.38,233.486 362.705,233.514 363.029,233.542 363.354,233.57 363.679,233.597 364.004,233.624 364.329,233.651 364.654,233.677 364.978,233.703 365.303,233.728 365.628,233.753 365.953,233.778 366.278,233.803 366.603,233.827 366.927,233.85 367.252,233.874 367.577,233.897 367.902,233.92 368.227,233.942 368.552,233.964 368.876,233.986 369.201,234.008 369.526,234.029 369.851,234.05 370.176,234.071 370.501,234.091 370.826,234.111 371.15,234.131 371.475,234.151 371.8,234.17 372.125,234.189 372.45,234.208 372.775,234.227 373.099,234.245 373.424,234.263 373.749,234.281 374.074,234.298 374.399,234.316 374.724,234.333 375.048,234.349 375.373,234.366 375.698,234.382 376.023,234.399 376.348,234.414 376.673,234.43 376.997,234.446 377.322,234.461 377.647,234.476 377.972,234.491 378.297,234.506 378.622,234.52 378.946,234.534" stroke="#00ff00" stroke-dasharray="9,7" stroke-linecap="butt" stroke-linejoin="round" stroke-width="1"/>
   <polyline fill="none" points="54.4343,75.7662 54.7591,75.7805 55.084,75.7949 55.4088,75.8096 55.7336,75.8244 56.0585,75.8395 56.3833,75.8548 56.7082,75.8703 57.033,75.886 57.3578,75.9019 57.6827,75.918 58.0075,75.9344 58.3323,75.951 58.6572,75.9678 58.982,75.9849 59.3069,76.0022 59.6317,76.0197 59.9565,76.0375 60.2814,76.0556 60.6062,76.0739 60.931,76.0924 61.2559,76.1112 61.5807,76.1302 61.9055,76.1496 62.2304,76.1691 62.5552,76.189 62.8801,76.2092 63.2049,76.2296 63.5297,76.2503 63.8546,76.2713 64.1794,76.2926 64.5042,76.3141 64.8291,76.336 65.1539,76.3582 65.4788,76.3807 65.8036,76.4035 66.1284,76.4266 66.4533,76.4501 66.7781,76.4739 67.1029,76.498 67.4278,76.5224 67.7526,76.5472 68.0775,76.5723 68.4023,76.5978 68.7271,76.6236 69.052,76.6498 69.3768,76.6764 69.7016,76.7033 70.0265,76.7306 70.3513,76.7583 70.6761,76.7863 71.001,76.8148 71.3258,76.8436 71.6507,76.8729 71.9755,76.9025 72.3003,76.9326 72.6252,76.9631 72.95,76.994 73.2748,77.0254 73.5997,77.0571 73.9245,77.0894 74.2493,77.122 74.5742,77.1552 74.899,77.1887 75.2239,77.2228 75.5487,77.2573 75.8735,77.2923 76.1984,77.3278 76.5232,77.3638 76.848,77.4003 77.1729,77.4373 77.4977,77.4748 77.8226,77.5128 78.1474,77.5514 78.4722,77.5905 78.7971,77.6301 79.1219,77.6703 79.4467,77.7111 79.7716,77.7524 80.0964,77.7943 80.4212,77.8367 80.7461,77.8798 81.0709,77.9234 81.3958,77.9677 81.7206,78.0126 82.0454,78.0581 82.3703,78.1042 82.6951,78.151 83.0199,78.1985 83.3448,78.2466 83.6696,78.2953 83.9944,78.3447 84.3193,78.3949 84.6441,78.4457 84.969,78.4972 85.2938,78.5494 85.6186,78.6024 85.9435,78.6561 86.2683,78.7105 86.5931,78.7657 86.918,78.8217 87.2428,78.8784 87.5677,78.936 87.8925,78.9943 88.2173,79.0535 88.5422,79.1134 88.867,79.1742 89.1918,79.2358 89.5167,79.2983 89.8415,79.3617 90.1664,79.4259 90.4912,79.491 90.816,79.5571 91.1409,79.624 91.4657,79.6919 91.7905,79.7607 92.1154,79.8305 92.4402,79.9012 92.7651,79.9729 93.0899,80.0456 93.4147,80.1193 93.7396,80.1941 94.0644,80.2698 94.3892,80.3467 94.7141,80.4245 95.0389,80.5035 95.3638,80.5836 95.6886,80.6647 96.0134,80.747 96.3383,80.8304 96.6631,80.915 96.9879,81.0007 97.3128,81.0877 97.6376,81.1758 97.9624,81.2651 98.2873,81.3557 98.6121,81.4475 98.937,81.5406 99.2618,81.635 99.5866,81.7307 99.9115,81.8277 100.236,81.9261 100.561,82.0258 100.886,82.1268 101.211,82.2293 101.536,82.3332 101.86,82.4385 102.185,82.5452 102.51,82.6535 102.835,82.7632 103.16,82.8744 103.485,82.9872 103.81,83.1015 104.134,83.2173 104.459,83.3348 104.784,83.4539 105.109,83.5746 105.434,83.697 105.759,83.821 106.083,83.9468 106.408,84.0742 106.733,84.2035 107.058,84.3344 107.383,84.4672 107.708,84.6018 108.032,84.7382 108.357,84.8765 108.682,85.0167 109.007,85.1588 109.332,85.3028 109.657,85.4488 109.981,85.5968 110.306,85.7468 110.631,85.8988 110.956,86.0529 111.281,86.2092 111.606,86.3675 111.93,86.528 112.255,86.6906 112.58,86.8554 112.905,87.0225 113.23,87.1918 113.555,87.3635 113.879,87.5374 114.204,87.7137 114.529,87.8923 114.854,88.0734 115.179,88.2569 115.504,88.4429 115.828,88.6314 116.153,88.8224 116.478,89.0159 116.803,89.2121 117.128,89.4108 117.453,89.6122 117.777,89.8163 118.102,90.0232 118.427,90.2328 118.752,90.4451 119.077,90.6603 119.402,90.8783 119.727,91.0993 120.051,91.3231 120.376,91.5499 120.701,91.7797 121.026,92.0125 121.351,92.2483 121.676,92.4873 122,92.7294 122.325,92.9746 122.65,93.2231 122.975,93.4748 123.3,93.7297 123.625,93.988 123.949,94.2496 124.274,94.5146 124.599,94.783 124.924,95.0548 125.249,95.3302 125.574,95.609 125.898,95.8915 126.223,96.1775 126.548,96.4672 126.873,96.7605 127.198,97.0576 127.523,97.3584 127.847,97.6629 128.172,97.9713 128.497,98.2836 128.822,98.5998 129.147,98.9199 129.472,99.2439 129.796,99.572 130.121,99.9041 130.446,100.24 130.771,100.58 131.096,100.925 131.421,101.274 131.745,101.626 132.07,101.983 132.395,102.345 132.72,102.71 133.045,103.08 133.37,103.455 133.695,103.834 134.019,104.217 134.344,104.604 134.669,104.997 134.994,105.393 135.319,105.795 135.644,106.201 135.968,106.611 136.293,107.026 136.618,107.446 136.943,107.87 137.268,108.3 137.593,108.733 137.917,109.172 138.242,109.616 138.567,110.064 138.892,110.517 139.217,110.975 139.542,111.437 139.866,111.905 140.191,112.377 140.516,112.855 140.841,113.337 141.166,113.824 141.491,114.316 141.815,114.812 142.14,115.314 142.465,115.821 142.79,116.332 143.115,116.849 143.44,117.37 143.764,117.896 144.089,118.427 144.414,118.963 144.739,119.504 145.064,120.049 145.389,120.599 145.713,121.154 146.038,121.714 146.363,122.279 146.688,122.848 147.013,123.422 147.338,124 147.663,124.584 147.987,125.171 148.312,125.763 148.637,126.36 148.962,126.961 149.287,127.567 149.612,128.176 149.936,128.79 150.261,129.409 150.586,130.031 150.911,130.657 151.236,131.288 151.561,131.922 151.885,132.56 152.21,133.202 152.535,133.848 152.86,134.497 153.185,135.15 153.51,135.806 153.834,136.466 154.159,137.129 154.484,137.795 154.809,138.464 155.134,139.136 155.459,139.811 155.783,140.489 156.108,141.169 156.433,141.852 156.758,142.537 157.083,143.225 157.408,143.915 157.732,144.607 158.057,145.301 158.382,145.997 158.707,146.694 159.032,147.393 159.357,148.094 159.681,148.795 160.006,149.498 160.331,150.203 160.656,150.908 160.981,151.613 161.306,152.32 161.63,153.027 161.955,153.735 162.28,154.442 162.605,155.15 162.93,155.858 163.255,156.566 163.579,157.273 163.904,157.98 164.229,158.687 164.554,159.393 164.879,160.098 165.204,160.802 165.529,161.505 165.853,162.207 166.178,162.907 166.503,163.606 166.828,164.304 167.153,165 167.478,165.694 167.802,166.386 168.127,167.075 168.452,167.763 168.777,168.448 169.102,169.131 169.427,169.812 169.751,170.489 170.076,171.164 170.401,171.837 170.726,172.506 171.051,173.172 171.376,173.835 171.7,174.494 172.025,175.151 172.35,175.803 172.675,176.453 173,177.098 173.325,177.74 173.649,178.378 173.974,179.013 174.299,179.643 174.624,180.27 174.949,180.892 175.274,181.51 175.598,182.124 175.923,182.734 176.248,183.339 176.573,183.94 176.898,184.537 177.223,185.129 177.548,185.717 177.872,186.3 178.197,186.879 178.522,187.452 178.847,188.022 179.172,188.586 179.497,189.146 179.821,189.701 180.146,190.251 180.471,190.797 180.796,191.338 181.121,191.873 181.446,192.404 181.77,192.931 182.095,193.452 182.42,193.968 182.745,194.48 183.07,194.986 183.395,195.488 183.719,195.985 184.044,196.477 184.369,196.964 184.694,197.446 185.019,197.923 185.344,198.396 185.668,198.863 185.993,199.326 186.318,199.784 186.643,200.237 186.968,200.685 187.293,201.128 187.617,201.567 187.942,202.001 188.267,202.43 188.592,202.855 188.917,203.274 189.242,203.689 189.566,204.1 189.891,204.506 190.216,204.907 190.541,205.304 190.866,205.696 191.191,206.084 191.515,206.467 191.84,206.846 192.165,207.22 192.49,207.59 192.815,207.956 193.14,208.317 193.465,208.674 193.789,209.027 194.114,209.376 194.439,209.72 194.764,210.06 195.089,210.396 195.414,210.729 195.738,211.057 196.063,211.381 196.388,211.701 196.713,212.017 197.038,212.329 197.363,212.638 197.687,212.942 198.012,213.243 198.337,213.54 198.662,213.833 198.987,214.123 199.312,214.409 199.636,214.691 199.961,214.97 200.286,215.246 200.611,215.518 200.936,215.786 201.261,216.051 201.585,216.313 201.91,216.571 202.235,216.826 202.56,217.077 202.885,217.326 203.21,217.571 203.534,217.813 203.859,218.052 204.184,218.288 204.509,218.521 204.834,218.751 205.159,218.977 205.483,219.201 205.808,219.422 206.133,219.64 206.458,219.855 206.783,220.068 207.108,220.277 207.432,220.484 207.757,220.688 208.082,220.89 208.407,221.088 208.732,221.285 209.057,221.478 209.382,221.669 209.706,221.858 210.031,222.044 210.356,222.227 210.681,222.408 211.006,222.587 211.331,222.763 211.655,222.937 211.98,223.109 212.305,223.278 212.63,223.445 212.955,223.61 213.28,223.773 213.604,223.933 213.929,224.091 214.254,224.248 214.579,224.402 214.904,224.554 215.229,224.704 215.553,224.852 215.878,224.998 216.203,225.142 216.528,225.284 216.853,225.424 217.178,225.562 217.502,225.699 217.827,225.833 218.152,225.966 218.477,226.097 218.802,226.226 219.127,226.354 219.451,226.479 219.776,226.603 220.101,226.726 220.426,226.847 220.751,226.966 221.076,227.083 221.4,227.199 221.725,227.313 222.05,227.426 222.375,227.537 222.7,227.647 223.025,227.755 223.35,227.862 223.674,227.967 223.999,228.071 224.324,228.174 224.649,228.275 224.974,228.374 225.299,228.473 225.623,228.57 225.948,228.665 226.273,228.76 226.598,228.853 226.923,228.945 227.248,229.035 227.572,229.125 227.897,229.213 228.222,229.3 228.547,229.385 228.872,229.47 229.197,229.553 229.521,229.636 229.846,229.717 230.171,229.797 230.496,229.876 230.821,229.954 231.146,230.031 231.47,230.106 231.795,230.181 232.12,230.255 232.445,230.328 232.77,230.399 233.095,230.47 233.419,230.54 233.744,230.609 234.069,230.676 234.394,230.743 234.719,230.809 235.044,230.875 235.368,230.939 235.693,231.002 236.018,231.065 236.343,231.126 236.668,231.187 236.993,231.247 237.317,231.306 237.642,231.365 237.967,231.422 238.292,231.479 238.617,231.535 238.942,231.59 239.267,231.644 239.591,231.698 239.916,231.751 240.241,231.803 240.566,231.855 240.891,231.906 241.216,231.956 241.54,232.005 241.865,232.054 242.19,232.102 242.515,232.149 242.84,232.196 243.165,232.242 243.489,232.288 243.814,232.333 244.139,232.377 244.464,232.421 244.789,232.464 245.114,232.506 245.438,232.548 245.763,232.589 246.088,232.63 246.413,232.67 246.738,232.71 247.063,232.749 247.387,232.788 247.712,232.826 248.037,232.863 248.362,232.9 248.687,232.937 249.012,232.973 249.336,233.008 249.661,233.043 249.986,233.078 250.311,233.112 250.636,233.145 250.961,233.178 251.285,233.211 251.61,233.243 251.935,233.275 252.26,233.306 252.585,233.337 252.91,233.368 253.234,233.398 253.559,233.428 253.884,233.457 254.209,233.486 254.534,233.514 254.859,233.542 255.184,233.57 255.508,233.597 255.833,233.624 256.158,233.651 256.483,233.677 256.808,233.703 257.133,233.728 257.457,233.753 257.782,233.778 258.107,233.803 258.432,233.827 258.757,233.85 259.082,233.874 259.406,233.897 259.731,233.92 260.056,233.942 260.381,233.964 260.706,233.986 261.031,234.008 261.355,234.029 261.68,234.05 262.005,234.071 262.33,234.091 262.655,234.111 262.98,234.131 263.304,234.151 263.629,234.17 263.954,234.189 264.279,234.208 264.604,234.227 264.929,234.245 265.253,234.263 265.578,234.281 265.903,234.298 266.228,234.316 266.553,234.333 266.878,234.349 267.202,234.366 267.527,234.382 267.852,234.399 268.177,234.414 268.502,234.43 268.827,234.446 269.152,234.461 269.476,234.476 269.801,234.491 270.126,234.506 270.451,234.52 270.776,234.534 271.101,234.548 271.425,234.562 271.75,234.576 272.075,234.589 272.4,234.603 272.725,234.616 273.05,234.629 273.374,234.641 273.699,234.654 274.024,234.666 274.349,234.679 274.674,234.691 274.999,234.703 275.323,234.714 275.648,234.726 275.973,234.737 276.298,234.749 276.623,234.76 276.948,234.771 277.272,234.782 277.597,234.792 277.922,234.803 278.247,234.813 278.572,234.823 278.897,234.833 279.221,234.843 279.546,234.853 279.871,234.863 280.196,234.872 280.521,234.882 280.846,234.891 281.17,234.9 281.495,234.909 281.82,234.918 282.145,234.927 282.47,234.936 282.795,234.944 283.12,234.953 283.444,234.961 283.769,234.969 284.094,234.977 284.419,234.985 284.744,234.993 285.069,235.001 285.393,235.009 285.718,235.016 286.043,235.024 286.368,235.031 286.693,235.038 287.018,235.045 287.342,235.052 287.667,235.059 287.992,235.066 288.317,235.073 288.642,235.08 288.967,235.086 289.291,235.093 289.616,235.099 289.941,235.105 290.266,235.111 290.591,235.118 290.916,235.124 291.24,235.13 291.565,235.135 291.89,235.141 292.215,235.147 292.54,235.153 292.865,235.158 293.189,235.164 293.514,235.169 293.839,235.174 294.164,235.18 294.489,235.185 294.814,235.19 295.138,235.195 295.463,235.2 295.788,235.205 296.113,235.21 296.438,235.215 296.763,235.219 297.087,235.224 297.412,235.229 297.737,235.233 298.062,235.238 298.387,235.242 298.712,235.246 299.036,235.251 299.361,235.255 299.686,235.259 300.011,235.263 300.336,235.267 300.661,235.271 300.986,235.275 301.31,235.279 301.635,235.283 301.96,235.287 302.285,235.29 302.61,235.294 302.935,235.298 303.259,235.301 303.584,235.305 303.909,235.308 304.234,235.312 304.559,235.315 304.884,235.318 305.208,235.322 305.533,235.325 305.858,235.328 306.183,235.331 306.508,235.334 306.833,235.337 307.157,235.34 307.482,235.343 307.807,235.346 308.132,235.349 308.457,235.352 308.782,235.355 309.106,235.358 309.431,235.361 309.756,235.363 310.081,235.366 310.406,235.369 310.731,235.371 311.055,235.374 311.38,235.376 311.705,235.379 312.03,235.381 312.355,235.384 312.68,235.386 313.005,235.388 313.329,235.391 313.654,235.393 313.979,235.395 314.304,235.398 314.629,235.4 314.954,235.402 315.278,235.404 315.603,235.406 315.928,235.408 316.253,235.41 316.578,235.412 316.903,235.414 317.227,235.416 317.552,235.418 317.877,235.42 318.202,235.422 318.527,235.424 318.852,235.426 319.176,235.428 319.501,235.429 319.826,235.431 320.151,235.433 320.476,235.435 320.801,235.436 321.125,235.438 321.45,235.44 321.775,235.441 322.1,235.443 322.425,235.444 322.75,235.446 323.074,235.448 323.399,235.449 323.724,235.451 324.049,235.452 324.374,235.453 324.699,235.455 325.023,235.456 325.348,235.458 325.673,235.459 325.998,235.46 326.323,235.462 326.648,235.463 326.973,235.464 327.297,235.466 327.622,235.467 327.947,235.468 328.272,235.469 328.597,235.471 328.922,235.472 329.246,235.473 329.571,235.474 329.896,235.475 330.221,235.477 330.546,235.478 330.871,235.479 331.195,235.48 331.52,235.481 331.845,235.482 332.17,235.483 332.495,235.484 332.82,235.485 333.144,235.486 333.469,235.487 333.794,235.488 334.119,235.489 334.444,235.49 334.769,235.491 335.093,235.492 335.418,235.493 335.743,235.494 336.068,235.494 336.393,235.495 336.718,235.496 337.042,235.497 337.367,235.498 337.692,235.499 338.017,235.5 338.342,235.5 338.667,235.501 338.991,235.502 339.316,235.503 339.641,235.503 339.966,235.504 340.291,235.505 340.616,235.506 340.94,235.506 341.265,235.507 341.59,235.508 341.915,235.508 342.24,235.509 342.565,235.51 342.889,235.51 343.214,235.511 343.539,235.512 343.864,235.512 344.189,235.513 344.514,235.514 344.839,235.514 345.163,235.515 345.488,235.515 345.813,235.516 346.138,235.517 346.463,235.517 346.788,235.518 347.112,235.518 347.437,235.519 347.762,235.519 348.087,235.52 348.412,235.52 348.737,235.521 349.061,235.521 349.386,235.522 349.711,235.522 350.036,235.523 350.361,235.523 350.686,235.524 351.01,235.524 351.335,235.525 351.66,235.525 351.985,235.526 352.31,235.526 352.635,235.527 352.959,235.527 353.284,235.527 353.609,235.528 353.934,235.528 354.259,235.529 354.584,235.529 354.908,235.53 355.233,235.53 355.558,235.53 355.883,235.531 356.208,235.531 356.533,235.531 356.857,235.532 357.182,235.532 357.507,235.533 357.832,235.533 358.157,235.533 358.482,235.534 358.807,235.534 359.131,235.534 359.456,235.535 359.781,235.535 360.106,235.535 360.431,235.535 360.756,235.536 361.08,235.536 361.405,235.536 361.73,235.537 362.055,235.537 362.38,235.537 362.705,235.538 363.029,235.538 363.354,235.538 363.679,235.538 364.004,235.539 364.329,235.539 364.654,235.539 364.978,235.539 365.303,235.54 365.628,235.54 365.953,235.54 366.278,235.54 366.603,235.541 366.927,235.541 367.252,235.541 367.577,235.541 367.902,235.542 368.227,235.542 368.552,235.542 368.876,235.542 369.201,235.543 369.526,235.543 369.851,235.543 370.176,235.543 370.501,235.543 370.826,235.544 371.15,235.544 371.475,235.544 371.8,235.544 372.125,235.544 372.45,235.545 372.775,235.545 373.099,235.545 373.424,235.545 373.749,235.545 374.074,235.545 374.399,235.546 374.724,235.546 375.048,235.546 375.373,235.546 375.698,235.546 376.023,235.546 376.348,235.547 376.673,235.547 376.997,235.547 377.322,235.547 377.647,235.547 377.972,235.547 378.297,235.547 378.622,235.548 378.946,235.548" stroke="#ffff00" stroke-dasharray="9,7" stroke-linecap="butt" stroke-linejoin="round" stroke-width="1"/>
   <polyline fill="none" points="54.4343,74.8448 54.7591,74.8463 55.084,74.8477 55.4088,74.8492 55.7336,74.8507 56.0585,74.8522 56.3833,74.8537 56.7082,74.8553 57.033,74.8568 57.3578,74.8584 57.6827,74.86 58.0075,74.8617 58.3323,74.8633 58.6572,74.865 58.982,74.8667 59.3069,74.8684 59.6317,74.8702 59.9565,74.872 60.2814,74.8738 60.6062,74.8756 60.931,74.8775 61.2559,74.8793 61.5807,74.8813 61.9055,74.8832 62.2304,74.8852 62.5552,74.8871 62.8801,74.8892 63.2049,74.8912 63.5297,74.8933 63.8546,74.8954 64.1794,74.8975 64.5042,74.8997 64.8291,74.9018 65.1539,74.9041 65.4788,74.9063 65.8036,74.9086 66.1284,74.9109 66.4533,74.9132 66.7781,74.9156 67.1029,74.918 67.4278,74.9205 67.7526,74.923 68.0775,74.9255 68.4023,74.928 68.7271,74.9306 69.052,74.9332 69.3768,74.9359 69.7016,74.9386 70.0265,74.9413 70.3513,74.9441 70.6761,74.9469 71.001,74.9497 71.3258,74.9526 71.6507,74.9555 71.9755,74.9585 72.3003,74.9615 72.6252,74.9646 72.95,74.9677 73.2748,74.9708 73.5997,74.974 73.9245,74.9772 74.2493,74.9805 74.5742,74.9838 74.899,74.9872 75.2239,74.9906 75.5487,74.994 75.8735,74.9975 76.1984,75.0011 76.5232,75.0047 76.848,75.0083 77.1729,75.012 77.4977,75.0158 77.8226,75.0196 78.1474,75.0234 78.4722,75.0273 78.7971,75.0313 79.1219,75.0353 79.4467,75.0394 79.7716,75.0435 80.0964,75.0477 80.4212,75.052 80.7461,75.0563 81.0709,75.0607 81.3958,75.0651 81.7206,75.0696 82.0454,75.0742 82.3703,75.0788 82.6951,75.0835 83.0199,75.0882 83.3448,75.093 83.6696,75.0979 83.9944,75.1028 84.3193,75.1079 84.6441,75.1129 84.969,75.1181 85.2938,75.1234 85.6186,75.1286 85.9435,75.134 86.2683,75.1395 86.5931,75.145 86.918,75.1506 87.2428,75.1563 87.5677,75.162 87.8925,75.1679 88.2173,75.1738 88.5422,75.1798 88.867,75.1859 89.1918,75.1921 89.5167,75.1984 89.8415,75.2047 90.1664,75.2111 90.4912,75.2177 90.816,75.2243 91.1409,75.231 91.4657,75.2378 91.7905,75.2447 92.1154,75.2517 92.4402,75.2588 92.7651,75.266 93.0899,75.2733 93.4147,75.2806 93.7396,75.2881 94.0644,75.2957 94.3892,75.3034 94.7141,75.3112 95.0389,75.3192 95.3638,75.3272 95.6886,75.3354 96.0134,75.3436 96.3383,75.352 96.6631,75.3605 96.9879,75.3691 97.3128,75.3778 97.6376,75.3866 97.9624,75.3956 98.2873,75.4047 98.6121,75.4139 98.937,75.4233 99.2618,75.4328 99.5866,75.4424 99.9115,75.4521 100.236,75.462 100.561,75.472 100.886,75.4822 101.211,75.4925 101.536,75.5029 101.86,75.5135 102.185,75.5243 102.51,75.5351 102.835,75.5462 103.16,75.5574 103.485,75.5687 103.81,75.5802 104.134,75.5919 104.459,75.6037 104.784,75.6157 105.109,75.6279 105.434,75.6402 105.759,75.6527 106.083,75.6654 106.408,75.6782 106.733,75.6913 107.058,75.7045 107.383,75.7178 107.708,75.7314 108.032,75.7452 108.357,75.7592 108.682,75.7733 109.007,75.7877 109.332,75.8022 109.657,75.817 109.981,75.832 110.306,75.8471 110.631,75.8625 110.956,75.8781 111.281,75.8939 111.606,75.9099 111.93,75.9262 112.255,75.9427 112.58,75.9594 112.905,75.9763 113.23,75.9935 113.555,76.0109 113.879,76.0286 114.204,76.0465 114.529,76.0647 114.854,76.0831 115.179,76.1017 115.504,76.1207 115.828,76.1399 116.153,76.1593 116.478,76.179 116.803,76.199 117.128,76.2193 117.453,76.2399 117.777,76.2607 118.102,76.2819 118.427,76.3033 118.752,76.325 119.077,76.3471 119.402,76.3694 119.727,76.3921 120.051,76.415 120.376,76.4383 120.701,76.4619 121.026,76.4859 121.351,76.5101 121.676,76.5348 122,76.5597 122.325,76.585 122.65,76.6107 122.975,76.6367 123.3,76.6631 123.625,76.6898 123.949,76.7169 124.274,76.7444 124.599,76.7722 124.924,76.8005 125.249,76.8292 125.574,76.8582 125.898,76.8877 126.223,76.9175 126.548,76.9478 126.873,76.9785 127.198,77.0096 127.523,77.0412 127.847,77.0732 128.172,77.1057 128.497,77.1385 128.822,77.1719 129.147,77.2057 129.472,77.24 129.796,77.2747 130.121,77.31 130.446,77.3457 130.771,77.382 131.096,77.4187 131.421,77.456 131.745,77.4937 132.07,77.532 132.395,77.5709 132.72,77.6102 133.045,77.6501 133.37,77.6906 133.695,77.7316 134.019,77.7733 134.344,77.8154 134.669,77.8582 134.994,77.9016 135.319,77.9455 135.644,77.9901 135.968,78.0353 136.293,78.0811 136.618,78.1276 136.943,78.1747 137.268,78.2224 137.593,78.2708 137.917,78.3199 138.242,78.3697 138.567,78.4202 138.892,78.4713 139.217,78.5232 139.542,78.5758 139.866,78.6292 140.191,78.6832 140.516,78.738 140.841,78.7936 141.166,78.85 141.491,78.9071 141.815,78.9651 142.14,79.0238 142.465,79.0833 142.79,79.1437 143.115,79.2049 143.44,79.267 143.764,79.3299 144.089,79.3937 144.414,79.4584 144.739,79.524 145.064,79.5904 145.389,79.6578 145.713,79.7262 146.038,79.7955 146.363,79.8657 146.688,79.9369 147.013,80.0092 147.338,80.0824 147.663,80.1566 147.987,80.2318 148.312,80.3081 148.637,80.3855 148.962,80.4639 149.287,80.5434 149.612,80.624 149.936,80.7057 150.261,80.7886 150.586,80.8726 150.911,80.9577 151.236,81.044 151.561,81.1316 151.885,81.2203 152.21,81.3103 152.535,81.4015 152.86,81.4939 153.185,81.5877 153.51,81.6827 153.834,81.7791 154.159,81.8767 154.484,81.9757 154.809,82.0761 155.134,82.1779 155.459,82.2811 155.783,82.3857 156.108,82.4917 156.433,82.5992 156.758,82.7081 157.083,82.8186 157.408,82.9306 157.732,83.0441 158.057,83.1592 158.382,83.2759 158.707,83.3942 159.032,83.514 159.357,83.6356 159.681,83.7588 160.006,83.8837 160.331,84.0103 160.656,84.1386 160.981,84.2687 161.306,84.4006 161.63,84.5343 161.955,84.6698 162.28,84.8072 162.605,84.9464 162.93,85.0875 163.255,85.2306 163.579,85.3756 163.904,85.5226 164.229,85.6716 164.554,85.8226 164.879,85.9756 165.204,86.1308 165.529,86.2881 165.853,86.4474 166.178,86.609 166.503,86.7727 166.828,86.9387 167.153,87.1069 167.478,87.2774 167.802,87.4501 168.127,87.6252 168.452,87.8027 168.777,87.9826 169.102,88.1649 169.427,88.3496 169.751,88.5368 170.076,88.7265 170.401,88.9188 170.726,89.1136 171.051,89.3111 171.376,89.5112 171.7,89.714 172.025,89.9194 172.35,90.1276 172.675,90.3386 173,90.5524 173.325,90.769 173.649,90.9884 173.974,91.2108 174.299,91.4361 174.624,91.6644 174.949,91.8957 175.274,92.13 175.598,92.3674 175.923,92.6079 176.248,92.8516 176.573,93.0984 176.898,93.3485 177.223,93.6018 177.548,93.8584 177.872,94.1183 178.197,94.3816 178.522,94.6483 178.847,94.9185 179.172,95.192 179.497,95.4691 179.821,95.7498 180.146,96.034 180.471,96.3219 180.796,96.6134 181.121,96.9086 181.446,97.2075 181.77,97.5102 182.095,97.8167 182.42,98.127 182.745,98.4412 183.07,98.7593 183.395,99.0814 183.719,99.4074 184.044,99.7375 184.369,100.072 184.694,100.41 185.019,100.752 185.344,101.099 185.668,101.449 185.993,101.804 186.318,102.164 186.643,102.527 186.968,102.895 187.293,103.267 187.617,103.644 187.942,104.025 188.267,104.41 188.592,104.8 188.917,105.194 189.242,105.593 189.566,105.997 189.891,106.405 190.216,106.818 190.541,107.235 190.866,107.658 191.191,108.084 191.515,108.516 191.84,108.952 192.165,109.393 192.49,109.839 192.815,110.29 193.14,110.745 193.465,111.205 193.789,111.671 194.114,112.14 194.439,112.615 194.764,113.095 195.089,113.58 195.414,114.069 195.738,114.563 196.063,115.063 196.388,115.567 196.713,116.076 197.038,116.59 197.363,117.109 197.687,117.632 198.012,118.161 198.337,118.694 198.662,119.233 198.987,119.776 199.312,120.324 199.636,120.876 199.961,121.434 200.286,121.996 200.611,122.563 200.936,123.134 201.261,123.711 201.585,124.291 201.91,124.877 202.235,125.467 202.56,126.061 202.885,126.66 203.21,127.263 203.534,127.871 203.859,128.483 204.184,129.099 204.509,129.719 204.834,130.344 205.159,130.972 205.483,131.604 205.808,132.241 206.133,132.881 206.458,133.525 206.783,134.172 207.108,134.823 207.432,135.478 207.757,136.136 208.082,136.797 208.407,137.461 208.732,138.129 209.057,138.8 209.382,139.473 209.706,140.15 210.031,140.829 210.356,141.51 210.681,142.194 211.006,142.881 211.331,143.57 211.655,144.261 211.98,144.954 212.305,145.648 212.63,146.345 212.955,147.043 213.28,147.743 213.604,148.444 213.929,149.147 214.254,149.85 214.579,150.555 214.904,151.26 215.229,151.967 215.553,152.674 215.878,153.381 216.203,154.088 216.528,154.796 216.853,155.504 217.178,156.212 217.502,156.92 217.827,157.627 218.152,158.334 218.477,159.04 218.802,159.745 219.127,160.45 219.451,161.154 219.776,161.856 220.101,162.557 220.426,163.257 220.751,163.955 221.076,164.652 221.4,165.347 221.725,166.04 222.05,166.731 222.375,167.42 222.7,168.106 223.025,168.79 223.35,169.472 223.674,170.151 223.999,170.827 224.324,171.501 224.649,172.171 224.974,172.839 225.299,173.504 225.623,174.165 225.948,174.823 226.273,175.477 226.598,176.128 226.923,176.776 227.248,177.42 227.572,178.06 227.897,178.696 228.222,179.328 228.547,179.957 228.872,180.581 229.197,181.202 229.521,181.818 229.846,182.43 230.171,183.037 230.496,183.64 230.821,184.239 231.146,184.834 231.47,185.424 231.795,186.009 232.12,186.59 232.445,187.166 232.77,187.738 233.095,188.305 233.419,188.867 233.744,189.424 234.069,189.977 234.394,190.525 234.719,191.068 235.044,191.606 235.368,192.14 235.693,192.668 236.018,193.192 236.343,193.711 236.668,194.225 236.993,194.734 237.317,195.238 237.642,195.737 237.967,196.231 238.292,196.721 238.617,197.205 238.942,197.685 239.267,198.16 239.591,198.63 239.916,199.095 240.241,199.555 240.566,200.011 240.891,200.461 241.216,200.907 241.54,201.348 241.865,201.785 242.19,202.216 242.515,202.643 242.84,203.065 243.165,203.482 243.489,203.895 243.814,204.303 244.139,204.707 244.464,205.106 244.789,205.5 245.114,205.89 245.438,206.276 245.763,206.657 246.088,207.033 246.413,207.406 246.738,207.773 247.063,208.137 247.387,208.496 247.712,208.851 248.037,209.202 248.362,209.548 248.687,209.891 249.012,210.229 249.336,210.563 249.661,210.893 249.986,211.219 250.311,211.541 250.636,211.859 250.961,212.173 251.285,212.484 251.61,212.79 251.935,213.093 252.26,213.392 252.585,213.687 252.91,213.979 253.234,214.266 253.559,214.551 253.884,214.831 254.209,215.108 254.534,215.382 254.859,215.652 255.184,215.919 255.508,216.182 255.833,216.442 256.158,216.699 256.483,216.952 256.808,217.202 257.133,217.449 257.457,217.693 257.782,217.933 258.107,218.17 258.432,218.405 258.757,218.636 259.082,218.864 259.406,219.09 259.731,219.312 260.056,219.532 260.381,219.748 260.706,219.962 261.031,220.173 261.355,220.381 261.68,220.587 262.005,220.789 262.33,220.989 262.655,221.187 262.98,221.382 263.304,221.574 263.629,221.764 263.954,221.951 264.279,222.136 264.604,222.318 264.929,222.498 265.253,222.675 265.578,222.85 265.903,223.023 266.228,223.194 266.553,223.362 266.878,223.528 267.202,223.691 267.527,223.853 267.852,224.012 268.177,224.17 268.502,224.325 268.827,224.478 269.152,224.629 269.476,224.778 269.801,224.925 270.126,225.07 270.451,225.213 270.776,225.354 271.101,225.493 271.425,225.631 271.75,225.766 272.075,225.9 272.4,226.032 272.725,226.162 273.05,226.29 273.374,226.417 273.699,226.542 274.024,226.665 274.349,226.786 274.674,226.906 274.999,227.025 275.323,227.141 275.648,227.256 275.973,227.37 276.298,227.482 276.623,227.592 276.948,227.701 277.272,227.809 277.597,227.915 277.922,228.019 278.247,228.123 278.572,228.224 278.897,228.325 279.221,228.424 279.546,228.521 279.871,228.618 280.196,228.713 280.521,228.807 280.846,228.899 281.17,228.99 281.495,229.08 281.82,229.169 282.145,229.256 282.47,229.343 282.795,229.428 283.12,229.512 283.444,229.595 283.769,229.676 284.094,229.757 284.419,229.837 284.744,229.915 285.069,229.992 285.393,230.069 285.718,230.144 286.043,230.218 286.368,230.291 286.693,230.364 287.018,230.435 287.342,230.505 287.667,230.574 287.992,230.643 288.317,230.71 288.642,230.777 288.967,230.842 289.291,230.907 289.616,230.971 289.941,231.034 290.266,231.096 290.591,231.157 290.916,231.217 291.24,231.277 291.565,231.335 291.89,231.393 292.215,231.451 292.54,231.507 292.865,231.562 293.189,231.617 293.514,231.671 293.839,231.725 294.164,231.777 294.489,231.829 294.814,231.88 295.138,231.931 295.463,231.981 295.788,232.03 296.113,232.078 296.438,232.126 296.763,232.173 297.087,232.219 297.412,232.265 297.737,232.31 298.062,232.355 298.387,232.399 298.712,232.442 299.036,232.485 299.361,232.527 299.686,232.569 300.011,232.61 300.336,232.65 300.661,232.69 300.986,232.73 301.31,232.768 301.635,232.807 301.96,232.844 302.285,232.882 302.61,232.918 302.935,232.955 303.259,232.99 303.584,233.026 303.909,233.06 304.234,233.095 304.559,233.129 304.884,233.162 305.208,233.195 305.533,233.227 305.858,233.259 306.183,233.291 306.508,233.322 306.833,233.353 307.157,233.383 307.482,233.413 307.807,233.442 308.132,233.471 308.457,233.5 308.782,233.528 309.106,233.556 309.431,233.584 309.756,233.611 310.081,233.637 310.406,233.664 310.731,233.69 311.055,233.715 311.38,233.741 311.705,233.766 312.03,233.79 312.355,233.815 312.68,233.839 313.005,233.862 313.329,233.885 313.654,233.908 313.979,233.931 314.304,233.953 314.629,233.975 314.954,233.997 315.278,234.019 315.603,234.04 315.928,234.061 316.253,234.081 316.578,234.101 316.903,234.121 317.227,234.141 317.552,234.161 317.877,234.18 318.202,234.199 318.527,234.217 318.852,234.236 319.176,234.254 319.501,234.272 319.826,234.29 320.151,234.307 320.476,234.324 320.801,234.341 321.125,234.358 321.45,234.374 321.775,234.391 322.1,234.407 322.425,234.422 322.75,234.438 323.074,234.453 323.399,234.469 323.724,234.483 324.049,234.498 324.374,234.513 324.699,234.527 325.023,234.541 325.348,234.555 325.673,234.569 325.998,234.583 326.323,234.596 326.648,234.609 326.973,234.622 327.297,234.635 327.622,234.648 327.947,234.66 328.272,234.673 328.597,234.685 328.922,234.697 329.246,234.709 329.571,234.72 329.896,234.732 330.221,234.743 330.546,234.754 330.871,234.765 331.195,234.776 331.52,234.787 331.845,234.798 332.17,234.808 332.495,234.818 332.82,234.828 333.144,234.838 333.469,234.848 333.794,234.858 334.119,234.868 334.444,234.877 334.769,234.887 335.093,234.896 335.418,234.905 335.743,234.914 336.068,234.923 336.393,234.931 336.718,234.94 337.042,234.949 337.367,234.957 337.692,234.965 338.017,234.973 338.342,234.981 338.667,234.989 338.991,234.997 339.316,235.005 339.641,235.012 339.966,235.02 340.291,235.027 340.616,235.035 340.94,235.042 341.265,235.049 341.59,235.056 341.915,235.063 342.24,235.069 342.565,235.076 342.889,235.083 343.214,235.089 343.539,235.096 343.864,235.102 344.189,235.108 344.514,235.115 344.839,235.121 345.163,235.127 345.488,235.133 345.813,235.138 346.138,235.144 346.463,235.15 346.788,235.155 347.112,235.161 347.437,235.166 347.762,235.172 348.087,235.177 348.412,235.182 348.737,235.188 349.061,235.193 349.386,235.198 349.711,235.203 350.036,235.207 350.361,235.212 350.686,235.217 351.01,235.222 351.335,235.226 351.66,235.231 351.985,235.235 352.31,235.24 352.635,235.244 352.959,235.248 353.284,235.253 353.609,235.257 353.934,235.261 354.259,235.265 354.584,235.269 354.908,235.273 355.233,235.277 355.558,235.281 355.883,235.285 356.208,235.288 356.533,235.292 356.857,235.296 357.182,235.299 357.507,235.303 357.832,235.306 358.157,235.31 358.482,235.313 358.807,235.317 359.131,235.32 359.456,235.323 359.781,235.327 360.106,235.33 360.431,235.333 360.756,235.336 361.08,235.339 361.405,235.342 361.73,235.345 362.055,235.348 362.38,235.351 362.705,235.354 363.029,235.356 363.354,235.359 363.679,235.362 364.004,235.365 364.329,235.367 364.654,235.37 364.978,235.372 365.303,235.375 365.628,235.378 365.953,235.38 366.278,235.382 366.603,235.385 366.927,235.387 367.252,235.39 367.577,235.392 367.902,235.394 368.227,235.396 368.552,235.399 368.876,235.401 369.201,235.403 369.526,235.405 369.851,235.407 370.176,235.409 370.501,235.411 370.826,235.413 371.15,235.415 371.475,235.417 371.8,235.419 372.125,235.421 372.45,235.423 372.775,235.425 373.099,235.427 373.424,235.428 373.749,235.43 374.074,235.432 374.399,235.434 374.724,235.435 375.048,235.437 375.373,235.439 375.698,235.44 376.023,235.442 376.348,235.444 376.673,235.445 376.997,235.447 377.322,235.448 377.647,235.45 377.972,235.451 378.297,235.453 378.622,235.454 378.946,235.456" stroke="#0000ff" stroke-linecap="butt" stroke-linejoin="round" stroke-width="2"/>
   <polyline fill="none" points="54.4343,155.15 378.946,155.15" stroke="#000000" stroke-dasharray="9,7" stroke-linecap="butt" stroke-linejoin="round" stroke-width="0.5"/>
   <polyline fill="none" points="216.69,279.499 216.69,23.5533" stroke="#000000" stroke-dasharray="9,7" stroke-linecap="butt" stroke-linejoin="round" stroke-width="0.5"/>
  </g>
  <clipPath id="cp00418314">
   <polygon points="0,314 418,314 418,0 0,0"/>
  </clipPath>
  <g clip-path="url(#cp00418314)">
   <polygon fill="#ffffff" points="244.821,34.1783 244.821,138.303 368.321,138.303 368.321,34.1783" shape-rendering="crispEdges"/>
   <polyline fill="none" points="244.821,138.303 368.321,138.303" stroke="#262626" stroke-dasharray="16,0" stroke-linecap="square" stroke-linejoin="miter" stroke-width="0.5"/>
   <polyline fill="none" points="244.821,34.1783 368.321,34.1783" stroke="#262626" stroke-dasharray="16,0" stroke-linecap="square" stroke-linejoin="miter" stroke-width="0.5"/>
   <polyline fill="none" points="244.821,138.303 244.821,34.1783" stroke="#262626" stroke-dasharray="16,0" stroke-linecap="square" stroke-linejoin="miter" stroke-width="0.5"/>
   <polyline fill="none" points="368.321,138.303 368.321,34.1783" stroke="#262626" stroke-dasharray="16,0" stroke-linecap="square" stroke-linejoin="miter" stroke-width="0.5"/>
   <polyline fill="none" points="250.134,45.0689 276.696,45.0689" stroke="#ff0000" stroke-linecap="butt" stroke-linejoin="round" stroke-width="2"/>
   <polyline fill="none" points="250.134,61.5377 276.696,61.5377" stroke="#ff0000" stroke-linecap="butt" stroke-linejoin="round" stroke-width="2"/>
   <g font-family="FreeSans" font-size="9" font-style="normal" font-weight="normal" transform="translate(282.009,66.0377) rotate(-0,-0,-4.5)" xml:space="preserve">
    <text fill="rgb(0,0,0)" x="0 7 10 15 18 20 25 30 32 38 42 44 49 52 57 60 62 67 " y="-1">Grafico Asintotico</text>
   </g>
   <polyline fill="none" points="250.134,78.0064 276.696,78.0064" stroke="#ff0000" stroke-linecap="butt" stroke-linejoin="round" stroke-width="2"/>
   <polyline fill="none" points="250.134,94.4752 276.696,94.4752" stroke="#00ff00" stroke-dasharray="9,7" stroke-linecap="butt" stroke-linejoin="round" stroke-width="1"/>
   <g font-family="FreeSans" font-size="9" font-style="normal" font-weight="normal" transform="translate(282.009,98.4752) rotate(-0,-0,-4)" xml:space="preserve">
    <text fill="rgb(0,0,0)" x="0 " y="-0">τ</text>
    <text fill="rgb(0,0,0)" x="4 9 14 16 " y="-0">=0.1</text>
   </g>
   <polyline fill="none" points="250.134,110.944 276.696,110.944" stroke="#ffff00" stroke-dasharray="9,7" stroke-linecap="butt" stroke-linejoin="round" stroke-width="1"/>
   <g font-family="FreeSans" font-size="9" font-style="normal" font-weight="normal" transform="translate(282.009,114.944) rotate(-0,-0,-4)" xml:space="preserve">
    <text fill="rgb(0,0,0)" x="0 " y="-0">τ</text>
    <text fill="rgb(0,0,0)" x="4 9 14 " y="-0">=10</text>
   </g>
   <polyline fill="none" points="250.134,127.413 276.696,127.413" stroke="#0000ff" stroke-linecap="butt" stroke-linejoin="round" stroke-width="2"/>
   <g font-family="FreeSans" font-size="9" font-style="normal" font-weight="normal" transform="translate(282.009,132.413) rotate(-0,-0,-5)" xml:space="preserve">
    <text fill="rgb(0,0,0)" x="0 " y="-2">φ</text>
    <text fill="rgb(0,0,0)" x="6 8 15 17 22 24 29 32 37 42 " y="-2"> G = atan(</text>
    <text fill="rgb(0,0,0)" x="45 " y="-2">ω</text>
    <text fill="rgb(0,0,0)" x="52 56 " y="-2">*(</text>
    <text fill="rgb(0,0,0)" x="59 " y="-2">τ</text>
    <text fill="rgb(0,0,0)" x="63 68 73 76 " y="-2">=1))</text>
   </g>
  </g>
 </g>
</svg>
