<?xml version='1.0' encoding='UTF-8' standalone='no'?>
<svg height="314pt" viewBox="0 0 418 314" width="418pt" xmlns="http://www.w3.org/2000/svg" xmlns:xlink="http://www.w3.org/1999/xlink">
 <title>Figure 3</title>
 <desc>
Creator: GL2PS 1.4.2, (C) 1999-2020 C. Geuzaine
For: Octave
CreationDate: Tue Apr  1 17:46:41 2025
</desc>
 <defs/>
 <polygon fill="#ffffff" points="0,0 418,0 418,314 0,314"/>
 <g>
  <polygon fill="#ffffff" points="0,314 418,314 418,0 0,0" shape-rendering="crispEdges"/>
  <clipPath id="cp00418314">
   <polygon points="0,314 418,314 418,0 0,0"/>
  </clipPath>
  <g clip-path="url(#cp00418314)">
   <polygon fill="#ffffff" points="54.4343,23.5533 54.4343,279.499 378.946,279.499 378.946,23.5533" shape-rendering="crispEdges"/>
   <polyline fill="none" points="54.4343,279.499 54.4343,23.5533" stroke="#262626" stroke-dasharray="16,0" stroke-linecap="butt" stroke-linejoin="miter" stroke-opacity="0.15" stroke-width="0.5"/>
   <polyline fill="none" points="104.359,279.499 104.359,23.5533" stroke="#262626" stroke-dasharray="16,0" stroke-linecap="butt" stroke-linejoin="miter" stroke-opacity="0.15" stroke-width="0.5"/>
   <polyline fill="none" points="204.209,279.499 204.209,23.5533" stroke="#262626" stroke-dasharray="16,0" stroke-linecap="butt" stroke-linejoin="miter" stroke-opacity="0.15" stroke-width="0.5"/>
   <polyline fill="none" points="353.984,279.499 353.984,23.5533" stroke="#262626" stroke-dasharray="16,0" stroke-linecap="butt" stroke-linejoin="miter" stroke-opacity="0.15" stroke-width="0.5"/>
   <polyline fill="none" points="54.4343,279.499 54.4343,276.255" stroke="#262626" stroke-linecap="butt" stroke-linejoin="miter" stroke-width="0.5"/>
   <polyline fill="none" points="54.4343,23.5533 54.4343,26.7977" stroke="#262626" stroke-linecap="butt" stroke-linejoin="miter" stroke-width="0.5"/>
   <polyline fill="none" points="104.359,279.499 104.359,276.255" stroke="#262626" stroke-linecap="butt" stroke-linejoin="miter" stroke-width="0.5"/>
   <polyline fill="none" points="104.359,23.5533 104.359,26.7977" stroke="#262626" stroke-linecap="butt" stroke-linejoin="miter" stroke-width="0.5"/>
   <polyline fill="none" points="204.209,279.499 204.209,276.255" stroke="#262626" stroke-linecap="butt" stroke-linejoin="miter" stroke-width="0.5"/>
   <polyline fill="none" points="204.209,23.5533 204.209,26.7977" stroke="#262626" stroke-linecap="butt" stroke-linejoin="miter" stroke-width="0.5"/>
   <polyline fill="none" points="353.984,279.499 353.984,276.255" stroke="#262626" stroke-linecap="butt" stroke-linejoin="miter" stroke-width="0.5"/>
   <polyline fill="none" points="353.984,23.5533 353.984,26.7977" stroke="#262626" stroke-linecap="butt" stroke-linejoin="miter" stroke-width="0.5"/>
   <g font-family="FreeSans" font-size="10" font-style="normal" font-weight="normal" transform="translate(51.4343,294.998) rotate(-0,3,-8)" xml:space="preserve">
    <text fill="rgb(38,38,38)" x="0 " y="-0">0</text>
   </g>
   <g font-family="FreeSans" font-size="10" font-style="normal" font-weight="normal" transform="translate(101.359,294.998) rotate(-0,3,-8)" xml:space="preserve">
    <text fill="rgb(38,38,38)" x="0 " y="-0">1</text>
   </g>
   <g font-family="FreeSans" font-size="10" font-style="normal" font-weight="normal" transform="translate(201.209,294.998) rotate(-0,3,-8)" xml:space="preserve">
    <text fill="rgb(38,38,38)" x="0 " y="-0">3</text>
   </g>
   <g font-family="FreeSans" font-size="10" font-style="normal" font-weight="normal" transform="translate(350.984,294.998) rotate(-0,3,-8)" xml:space="preserve">
    <text fill="rgb(38,38,38)" x="0 " y="-0">6</text>
   </g>
   <polyline fill="none" points="54.4343,279.499 378.946,279.499" stroke="#262626" stroke-dasharray="16,0" stroke-linecap="butt" stroke-linejoin="miter" stroke-opacity="0.15" stroke-width="0.5"/>
   <polyline fill="none" points="54.4343,236.842 378.946,236.842" stroke="#262626" stroke-dasharray="16,0" stroke-linecap="butt" stroke-linejoin="miter" stroke-opacity="0.15" stroke-width="0.5"/>
   <polyline fill="none" points="54.4343,194.184 378.946,194.184" stroke="#262626" stroke-dasharray="16,0" stroke-linecap="butt" stroke-linejoin="miter" stroke-opacity="0.15" stroke-width="0.5"/>
   <polyline fill="none" points="54.4343,151.526 378.946,151.526" stroke="#262626" stroke-dasharray="16,0" stroke-linecap="butt" stroke-linejoin="miter" stroke-opacity="0.15" stroke-width="0.5"/>
   <polyline fill="none" points="54.4343,108.869 378.946,108.869" stroke="#262626" stroke-dasharray="16,0" stroke-linecap="butt" stroke-linejoin="miter" stroke-opacity="0.15" stroke-width="0.5"/>
   <polyline fill="none" points="54.4343,66.211 378.946,66.211" stroke="#262626" stroke-dasharray="16,0" stroke-linecap="butt" stroke-linejoin="miter" stroke-opacity="0.15" stroke-width="0.5"/>
   <polyline fill="none" points="54.4343,279.499 57.6745,279.499" stroke="#262626" stroke-linecap="butt" stroke-linejoin="miter" stroke-width="0.5"/>
   <polyline fill="none" points="378.946,279.499 375.706,279.499" stroke="#262626" stroke-linecap="butt" stroke-linejoin="miter" stroke-width="0.5"/>
   <polyline fill="none" points="54.4343,236.842 57.6745,236.842" stroke="#262626" stroke-linecap="butt" stroke-linejoin="miter" stroke-width="0.5"/>
   <polyline fill="none" points="378.946,236.842 375.706,236.842" stroke="#262626" stroke-linecap="butt" stroke-linejoin="miter" stroke-width="0.5"/>
   <polyline fill="none" points="54.4343,194.184 57.6745,194.184" stroke="#262626" stroke-linecap="butt" stroke-linejoin="miter" stroke-width="0.5"/>
   <polyline fill="none" points="378.946,194.184 375.706,194.184" stroke="#262626" stroke-linecap="butt" stroke-linejoin="miter" stroke-width="0.5"/>
   <polyline fill="none" points="54.4343,151.526 57.6745,151.526" stroke="#262626" stroke-linecap="butt" stroke-linejoin="miter" stroke-width="0.5"/>
   <polyline fill="none" points="378.946,151.526 375.706,151.526" stroke="#262626" stroke-linecap="butt" stroke-linejoin="miter" stroke-width="0.5"/>
   <polyline fill="none" points="54.4343,108.869 57.6745,108.869" stroke="#262626" stroke-linecap="butt" stroke-linejoin="miter" stroke-width="0.5"/>
   <polyline fill="none" points="378.946,108.869 375.706,108.869" stroke="#262626" stroke-linecap="butt" stroke-linejoin="miter" stroke-width="0.5"/>
   <polyline fill="none" points="54.4343,66.211 57.6745,66.211" stroke="#262626" stroke-linecap="butt" stroke-linejoin="miter" stroke-width="0.5"/>
   <polyline fill="none" points="378.946,66.211 375.706,66.211" stroke="#262626" stroke-linecap="butt" stroke-linejoin="miter" stroke-width="0.5"/>
   <g font-family="FreeSans" font-size="10" font-style="normal" font-weight="normal" transform="translate(43.4418,283.499) rotate(-0,6,-4)" xml:space="preserve">
    <text fill="rgb(38,38,38)" x="0 " y="-0">0</text>
   </g>
   <g font-family="FreeSans" font-size="10" font-style="normal" font-weight="normal" transform="translate(34.4418,240.842) rotate(-0,15,-4)" xml:space="preserve">
    <text fill="rgb(38,38,38)" x="0 6 9 " y="-0">0.2</text>
   </g>
   <g font-family="FreeSans" font-size="10" font-style="normal" font-weight="normal" transform="translate(34.4418,198.184) rotate(-0,15,-4)" xml:space="preserve">
    <text fill="rgb(38,38,38)" x="0 6 9 " y="-0">0.4</text>
   </g>
   <g font-family="FreeSans" font-size="10" font-style="normal" font-weight="normal" transform="translate(34.4418,155.526) rotate(-0,15,-4)" xml:space="preserve">
    <text fill="rgb(38,38,38)" x="0 6 9 " y="-0">0.6</text>
   </g>
   <g font-family="FreeSans" font-size="10" font-style="normal" font-weight="normal" transform="translate(34.4418,112.869) rotate(-0,15,-4)" xml:space="preserve">
    <text fill="rgb(38,38,38)" x="0 6 9 " y="-0">0.8</text>
   </g>
   <g font-family="FreeSans" font-size="10" font-style="normal" font-weight="normal" transform="translate(43.4418,70.2109) rotate(-0,6,-4)" xml:space="preserve">
    <text fill="rgb(38,38,38)" x="0 " y="-0">1</text>
   </g>
   <polyline fill="none" points="54.4343,279.499 378.946,279.499" stroke="#262626" stroke-dasharray="16,0" stroke-linecap="square" stroke-linejoin="miter" stroke-width="0.5"/>
   <polyline fill="none" points="54.4343,23.5533 378.946,23.5533" stroke="#262626" stroke-dasharray="16,0" stroke-linecap="square" stroke-linejoin="miter" stroke-width="0.5"/>
   <polyline fill="none" points="54.4343,279.499 54.4343,23.5533" stroke="#262626" stroke-dasharray="16,0" stroke-linecap="square" stroke-linejoin="miter" stroke-width="0.5"/>
   <polyline fill="none" points="378.946,279.499 378.946,23.5533" stroke="#262626" stroke-dasharray="16,0" stroke-linecap="square" stroke-linejoin="miter" stroke-width="0.5"/>
   <g font-family="FreeSans" font-size="11" font-style="normal" font-weight="normal" transform="translate(215.19,307.998) rotate(-0,1.5,-8)" xml:space="preserve">
    <text fill="rgb(38,38,38)" x="0 " y="-0">t</text>
   </g>
   <g font-family="FreeSans" font-size="11" font-style="normal" font-weight="normal" transform="translate(21.4418,151.526) rotate(-90,8,0)" xml:space="preserve">
    <text fill="rgb(38,38,38)" x="0 5 9 12 " y="-3">y(t)</text>
   </g>
   <g font-family="FreeSans" font-size="11" font-style="normal" font-weight="bold" transform="translate(23.1904,13.5533) rotate(-0,193.5,0)" xml:space="preserve">
    <text fill="rgb(0,0,0)" x="0 8 11 17 24 31 37 41 47 50 56 59 62 69 73 79 86 89 96 103 106 113 116 119 126 133 136 142 145 151 155 161 171 177 180 187 190 193 199 205 211 218 225 232 239 242 249 253 260 263 270 276 279 285 292 299 302 309 316 319 322 325 329 335 341 344 347 350 357 360 366 370 373 380 384 " y="-3">Risposta al gradino di un sistema di secondo ordine con poli reali distinti</text>
   </g>
   <polyline fill="none" points="54.4343,279.499 56.065,279.388 57.6957,279.068 59.3264,278.555 60.9572,277.864 62.5879,277.011 64.2186,276.008 65.8493,274.87 67.48,273.607 69.1107,272.23 70.7414,270.75 72.3722,269.177 74.0029,267.52 75.6336,265.786 77.2643,263.983 78.895,262.12 80.5257,260.201 82.1564,258.235 83.7872,256.226 85.4179,254.18 87.0486,252.101 88.6793,249.996 90.31,247.867 91.9407,245.719 93.5714,243.555 95.2022,241.38 96.8329,239.195 98.4636,237.005 100.094,234.811 101.725,232.617 103.356,230.425 104.986,228.236 106.617,226.052 108.248,223.877 109.879,221.71 111.509,219.554 113.14,217.41 114.771,215.279 116.401,213.162 118.032,211.061 119.663,208.976 121.294,206.909 122.924,204.859 124.555,202.829 126.186,200.817 127.816,198.825 129.447,196.854 131.078,194.903 132.709,192.974 134.339,191.066 135.97,189.179 137.601,187.315 139.231,185.473 140.862,183.653 142.493,181.855 144.124,180.08 145.754,178.328 147.385,176.598 149.016,174.89 150.646,173.205 152.277,171.543 153.908,169.903 155.539,168.286 157.169,166.69 158.8,165.117 160.431,163.566 162.061,162.037 163.692,160.53 165.323,159.044 166.954,157.579 168.584,156.136 170.215,154.714 171.846,153.313 173.476,151.932 175.107,150.572 176.738,149.232 178.369,147.912 179.999,146.612 181.63,145.331 183.261,144.07 184.891,142.828 186.522,141.605 188.153,140.4 189.784,139.214 191.414,138.047 193.045,136.897 194.676,135.765 196.306,134.65 197.937,133.553 199.568,132.473 201.199,131.409 202.829,130.362 204.46,129.332 206.091,128.318 207.721,127.319 209.352,126.337 210.983,125.369 212.614,124.417 214.244,123.48 215.875,122.558 217.506,121.651 219.136,120.757 220.767,119.878 222.398,119.013 224.029,118.162 225.659,117.324 227.29,116.5 228.921,115.688 230.551,114.89 232.182,114.104 233.813,113.331 235.444,112.57 237.074,111.822 238.705,111.085 240.336,110.36 241.966,109.647 243.597,108.945 245.228,108.255 246.859,107.575 248.489,106.907 250.12,106.249 251.751,105.602 253.381,104.965 255.012,104.338 256.643,103.722 258.274,103.115 259.904,102.518 261.535,101.931 263.166,101.353 264.796,100.785 266.427,100.225 268.058,99.675 269.689,99.1335 271.319,98.6008 272.95,98.0767 274.581,97.5611 276.211,97.0537 277.842,96.5546 279.473,96.0634 281.104,95.5802 282.734,95.1049 284.365,94.6372 285.996,94.177 287.626,93.7243 289.257,93.2789 290.888,92.8407 292.519,92.4096 294.149,91.9855 295.78,91.5682 297.411,91.1576 299.041,90.7537 300.672,90.3563 302.303,89.9654 303.934,89.5807 305.564,89.2023 307.195,88.83 308.826,88.4637 310.456,88.1034 312.087,87.7489 313.718,87.4001 315.349,87.057 316.979,86.7194 318.61,86.3873 320.241,86.0605 321.871,85.739 323.502,85.4228 325.133,85.1116 326.764,84.8055 328.394,84.5044 330.025,84.2081 331.656,83.9166 333.286,83.6298 334.917,83.3477 336.548,83.0702 338.179,82.7971 339.809,82.5285 341.44,82.2642 343.071,82.0042 344.701,81.7484 346.332,81.4967 347.963,81.2491 349.594,81.0055 351.224,80.7659 352.855,80.5302 354.486,80.2982 356.116,80.07 357.747,79.8456 359.378,79.6247 361.009,79.4074 362.639,79.1937 364.27,78.9834 365.901,78.7765 367.531,78.573 369.162,78.3727 370.793,78.1757 372.424,77.9819 374.054,77.7912 375.685,77.6037 377.316,77.4191 378.946,77.2376" stroke="#ff0000" stroke-linecap="butt" stroke-linejoin="round" stroke-width="2"/>
   <polyline fill="none" points="54.4343,66.211 378.946,66.211" stroke="#000000" stroke-dasharray="9,7" stroke-linecap="butt" stroke-linejoin="round" stroke-width="0.5"/>
   <g font-family="FreeSans" font-size="10" font-style="normal" font-weight="normal" transform="translate(249.142,61.0465) rotate(-0,-0,-5.5)" xml:space="preserve">
    <text fill="rgb(0,0,0)" x="0 8 11 17 20 23 29 32 38 41 47 50 53 61 66 71 77 82 88 93 98 101 108 111 116 119 121 126 131 " y="-2">G(0) = 1.0 (Guadagno Statico)</text>
   </g>
  </g>
 </g>
</svg>
